<svg width="98" height="84" viewBox="0 0 98 84" fill="none" xmlns="http://www.w3.org/2000/svg">
<rect x="5" width="93" height="84" rx="20" fill="#1093FF"/>
<rect width="93" height="80" rx="20" fill="black"/>
<g clip-path="url(#clip0_583_568)">
<path d="M46.5 18.129C42.4984 15.2175 36.6972 14.7843 31.4159 15.2312C25.2653 15.7572 19.0578 17.5412 15.1903 19.0297C14.8354 19.1662 14.5345 19.3863 14.3235 19.6636C14.1124 19.941 14.0001 20.2639 14 20.5937V58.4062C14.0001 58.6938 14.0855 58.9768 14.2483 59.2292C14.4111 59.4816 14.6462 59.6954 14.932 59.8511C15.2178 60.0067 15.5451 60.0992 15.8841 60.12C16.2231 60.1408 16.5628 60.0893 16.8722 59.9703C20.4553 58.5953 26.2281 56.9418 31.8222 56.464C37.5463 55.9759 42.3441 56.7631 44.9156 59.4787C45.106 59.6795 45.3471 59.8415 45.6214 59.9528C45.8956 60.0641 46.1959 60.1219 46.5 60.1219C46.8041 60.1219 47.1044 60.0641 47.3786 59.9528C47.6529 59.8415 47.894 59.6795 48.0844 59.4787C50.6559 56.7631 55.4538 55.9759 61.1738 56.464C66.7719 56.9418 72.5488 58.5953 76.1278 59.9703C76.4372 60.0893 76.7769 60.1408 77.1159 60.12C77.4548 60.0992 77.7822 60.0067 78.068 59.8511C78.3538 59.6954 78.5889 59.4816 78.7517 59.2292C78.9145 58.9768 78.9999 58.6938 79 58.4062V20.5937C78.9999 20.2639 78.8876 19.941 78.6765 19.6636C78.4655 19.3863 78.1646 19.1662 77.8097 19.0297C73.9422 17.5412 67.7347 15.7572 61.5841 15.2312C56.3028 14.7809 50.5016 15.2175 46.5 18.129Z" fill="white"/>
</g>
<defs>
<clipPath id="clip0_583_568">
<rect width="65" height="55" fill="white" transform="translate(14 12)"/>
</clipPath>
</defs>
</svg>
