<svg width="98" height="85" viewBox="0 0 98 85" fill="none" xmlns="http://www.w3.org/2000/svg">
<rect x="5" y="1" width="93" height="84" rx="20" fill="#1093FF"/>
<rect y="1" width="93" height="80" rx="20" fill="black"/>
<path d="M41.2225 6.77026C43.6086 6.77026 44.9688 9.14626 44.9688 11.5324V26.1563H41.9481C41.3607 24.7041 40.2865 23.5015 38.9096 22.7545C37.5328 22.0075 35.939 21.7626 34.4013 22.0618C32.8637 22.361 31.478 23.1857 30.4818 24.3945C29.4855 25.6034 28.9407 27.1211 28.9407 28.6875C28.9407 30.254 29.4855 31.7717 30.4818 32.9805C31.478 34.1893 32.8637 35.014 34.4013 35.3132C35.939 35.6124 37.5328 35.3676 38.9096 34.6206C40.2865 33.8735 41.3607 32.6709 41.9481 31.2188H44.9688V67.9995C44.9688 70.011 44.1182 72.0124 42.3261 72.927C40.7011 73.7782 38.8956 74.2273 37.0611 74.2365C31.9649 74.2365 28.1748 71.658 25.7346 68.607C24.0447 66.5015 22.8663 64.0327 22.2921 61.3946C20.7161 60.9296 19.2564 60.1359 18.0093 59.0659C15.613 57.0038 13.75 53.6963 13.75 48.8228C13.75 46.2746 13.9323 44.0539 14.3913 42.1875H28.6C30.8883 42.1875 32.785 43.875 33.1056 46.0721C31.6592 46.6705 30.4656 47.7531 29.7293 49.1345C28.9931 50.5159 28.7598 52.1102 29.0694 53.6446C29.379 55.1791 30.2123 56.5582 31.4267 57.5459C32.6411 58.5337 34.161 59.0687 35.7263 59.0593C37.2917 59.05 38.8051 58.4969 40.0076 57.4947C41.2101 56.4925 42.0268 55.1035 42.3181 53.5655C42.6094 52.0275 42.3571 50.436 41.6044 49.0635C40.8516 47.6911 39.6453 46.6229 38.1917 46.0418C38.0145 43.6189 36.927 41.3529 35.1477 39.6989C33.3685 38.0449 31.0293 37.1254 28.6 37.125H17.26C17.7654 36.7073 18.328 36.3641 18.9306 36.1058C18.5827 34.8657 18.3811 33.5891 18.3299 32.3021C18.2185 29.8215 18.5897 27.2396 19.3255 24.9413C20.0545 22.68 21.2088 20.4761 22.8288 18.954C23.845 17.9638 25.1324 17.2978 26.5277 17.0404C27.1994 14.2054 28.9105 11.8631 31.0941 10.1655C33.8988 7.97851 37.5741 6.77026 41.2191 6.77026H41.2225ZM50.0312 57.375H55.6C58.1511 57.375 60.5976 56.3616 62.4015 54.5577C64.2053 52.7539 65.2188 50.3073 65.2188 47.7563V41.6981C66.6709 41.1107 67.8735 40.0365 68.6205 38.6597C69.3676 37.2828 69.6124 35.689 69.3132 34.1514C69.014 32.6137 68.1893 31.2281 66.9805 30.2318C65.7717 29.2355 64.254 28.6907 62.6875 28.6907C61.121 28.6907 59.6033 29.2355 58.3945 30.2318C57.1857 31.2281 56.361 32.6137 56.0618 34.1514C55.7626 35.689 56.0075 37.2828 56.7545 38.6597C57.5015 40.0365 58.7041 41.1107 60.1562 41.6981V47.7563C60.1562 48.9647 59.6762 50.1236 58.8218 50.978C57.9673 51.8325 56.8084 52.3125 55.6 52.3125H50.0312V11.5324C50.0312 9.14626 51.3914 6.77026 53.7775 6.77026C57.4292 6.77026 61.1012 7.97851 63.9059 10.1655C66.0895 11.8631 67.8006 14.2088 68.4723 17.0404C69.8898 17.2766 71.152 17.9989 72.1712 18.954C73.7912 20.4761 74.9455 22.6766 75.6745 24.9413C76.4102 27.2396 76.7815 29.8215 76.6701 32.3021C76.6127 33.5711 76.4271 34.8671 76.0694 36.1058L76.2921 36.207C77.5409 36.7943 78.5534 37.7156 79.3094 38.9408C80.7437 41.2526 81.25 44.5804 81.25 48.8228C81.25 53.6996 79.387 57.0105 76.9908 59.0659C75.7426 60.1363 74.2818 60.93 72.7045 61.3946C72.1312 64.0323 70.954 66.5011 69.2654 68.607C66.8252 71.658 63.0351 74.2365 57.9355 74.2365C56.1013 74.2283 54.2958 73.7804 52.6705 72.9304C50.8817 72.0124 50.0312 70.011 50.0312 67.9995V57.375ZM34 28.6875C34 28.24 34.1778 27.8107 34.4943 27.4943C34.8107 27.1778 35.2399 27 35.6875 27C36.1351 27 36.5643 27.1778 36.8807 27.4943C37.1972 27.8107 37.375 28.24 37.375 28.6875C37.375 29.1351 37.1972 29.5643 36.8807 29.8808C36.5643 30.1972 36.1351 30.375 35.6875 30.375C35.2399 30.375 34.8107 30.1972 34.4943 29.8808C34.1778 29.5643 34 29.1351 34 28.6875ZM35.6875 50.625C35.2399 50.625 34.8107 50.8028 34.4943 51.1193C34.1778 51.4357 34 51.865 34 52.3125C34 52.7601 34.1778 53.1893 34.4943 53.5058C34.8107 53.8222 35.2399 54 35.6875 54C36.1351 54 36.5643 53.8222 36.8807 53.5058C37.1972 53.1893 37.375 52.7601 37.375 52.3125C37.375 51.865 37.1972 51.4357 36.8807 51.1193C36.5643 50.8028 36.1351 50.625 35.6875 50.625ZM61 35.4375C61 35.8851 61.1778 36.3143 61.4943 36.6308C61.8107 36.9472 62.2399 37.125 62.6875 37.125C63.1351 37.125 63.5643 36.9472 63.8807 36.6308C64.1972 36.3143 64.375 35.8851 64.375 35.4375C64.375 34.99 64.1972 34.5607 63.8807 34.2443C63.5643 33.9278 63.1351 33.75 62.6875 33.75C62.2399 33.75 61.8107 33.9278 61.4943 34.2443C61.1778 34.5607 61 34.99 61 35.4375Z" fill="white"/>
</svg>
