<svg width="590" height="590" viewBox="0 0 590 590" fill="none" xmlns="http://www.w3.org/2000/svg">
<g clip-path="url(#clip0_583_520)">
<path d="M304.422 138.727C306.505 138.396 308.636 138.862 310.39 140.034C311.939 141.636 312.808 143.776 312.815 146.004C312.706 153.399 310.577 160.624 306.658 166.896C301.437 176.41 294.348 185.738 284.274 189.844C282.834 190.576 281.182 190.773 279.61 190.402C278.671 189.941 277.858 189.258 277.242 188.414C276.625 187.569 276.223 186.587 276.07 185.552C273.459 174.731 279.987 163.164 284.466 153.651C286.21 149.645 288.968 146.162 292.467 143.545C295.966 140.928 300.086 139.268 304.422 138.727Z" fill="#F7846C"/>
<path d="M307.593 145.816C302.233 151.371 297.422 157.431 293.227 163.911C296.212 162.793 299.012 161.675 301.994 160.554C297.838 170.626 290.235 178.891 280.545 183.874C281.105 183.688 282.97 172.867 283.53 171.374C284.567 168.458 285.879 165.647 287.448 162.979C293.18 156.195 299.986 150.398 307.593 145.816Z" fill="#DD4040"/>
<path d="M175.885 50.4893C195.847 51.6073 212.264 65.785 230.165 74.3666C238.645 78.2817 247.444 81.4645 256.467 83.8803C268.448 87.7706 280.851 90.2129 293.413 91.155C306.056 92.004 318.678 89.221 329.792 83.134C335.949 79.4022 341.731 73.6202 342.852 66.5314C343.97 58.3245 338.374 50.1146 330.724 46.5717C322.893 43.4311 314.165 43.3637 306.287 46.3829C311.415 41.9084 315.765 36.6128 319.157 30.7125C320.568 28.5884 321.463 26.1639 321.771 23.6325C322.143 18.0275 317.854 13.1865 313.001 10.2011C299.758 1.79659 282.967 2.91759 267.671 5.34249C252.372 7.96504 236.516 11.685 221.406 8.32789C211.89 6.08884 202.936 1.05024 193.048 0.118036C184.217 -0.609773 175.45 2.13435 168.61 7.76739C161.793 13.489 157.504 21.6656 156.671 30.5266C149.046 31.6445 141.83 34.6781 135.696 39.3435C129.562 44.0089 124.712 50.1538 121.599 57.2035C119.487 62.915 118.108 68.8714 117.495 74.93C116.749 85.2415 116.749 95.5935 117.495 105.905C118.613 129.785 119.734 153.851 126.077 176.796C127.756 182.764 129.995 189.11 135.591 191.906C141.196 194.892 148.462 192.653 153.126 188.175C157.376 183.379 160.387 177.615 161.896 171.386C172.156 136.499 168.05 99.002 172.156 62.8114C172.477 58.4796 173.75 54.2721 175.885 50.4893Z" fill="black"/>
<path d="M206.293 230.51C205.547 245.995 202.753 269.129 220.471 282.56C190.998 340.38 140.255 321.736 140.255 276.778C156.48 268.754 158.91 224.542 157.604 209.432C174.206 224.728 187.638 235.92 206.293 230.51Z" fill="#F7846C"/>
<path d="M157.789 223.796C164.507 235.174 171.595 247.116 183.348 253.644C186.12 255.257 189.217 256.228 192.414 256.486C195.61 256.745 198.824 256.284 201.818 255.137C203.158 254.59 204.466 253.967 205.736 253.272C205.287 245.686 205.411 238.077 206.107 230.51C187.452 235.92 174.02 224.905 157.604 209.618C157.966 214.335 158.028 219.071 157.789 223.796Z" fill="black"/>
<path d="M213.943 266.704C222.524 274.539 236.141 271.925 246.776 267.636C272.707 257.001 296.212 238.534 324.01 235.186C328.315 266.754 338.3 297.281 353.484 325.291C343.97 341.896 327.553 353.088 319.532 370.426C314.122 381.807 313.561 394.863 313.561 407.551C313.747 462.023 321.771 515.005 326.435 570.598C292.669 561.642 249.201 564.813 214.689 571.155C180.177 577.498 146.225 586.64 111.339 589.445C98.4679 590.378 85.2224 590.563 72.7233 586.646C75.1482 554.559 75.7057 510.347 71.4164 478.632C51.6514 483.296 44.1791 481.992 23.8447 482.363C24.7769 474.342 29.0692 451.583 29.6297 444.866C30.9336 431.063 32.0546 417.431 34.1048 403.826C36.1698 390.394 39.7098 377.334 42.6864 364.089C45.1113 352.897 48.0967 341.516 54.2533 331.816C58.6504 325.337 63.8536 319.444 69.7379 314.278C83.5409 302.154 99.9577 293.386 116.189 284.805C125.516 279.766 134.844 274.916 143.986 269.881C150.701 279.026 157.232 289.28 166.932 295.065C176.631 300.67 189.505 302.34 199.204 296.558C209.839 290.209 212.636 279.014 213.943 266.704Z" fill="#9778FF"/>
<path d="M101.825 465.755C114.871 459.86 126.653 451.498 136.523 441.128C137.509 436.709 138.134 432.217 138.39 427.697C138.576 420.617 137.455 413.148 131.113 409.041C121.785 402.887 109.283 411.106 101.45 416.319C92.4972 422.287 84.662 430.122 75.1482 435.16C59.6637 443.367 41.5684 446.727 29.2551 459.97C28.5122 460.731 27.8223 461.542 27.1901 462.398C25.8832 470.044 24.5764 477.879 24.0159 481.986C40.4326 481.611 48.4566 482.358 61.3275 480.304C74.7736 475.455 88.7654 471.912 101.825 465.755ZM141.187 294.499C153.872 307.744 173.46 322.854 193.048 316.511C204.054 312.971 212.078 303.08 217.3 293.192C220.786 286.329 223.597 279.145 225.696 271.739C221.338 271.518 217.189 269.806 213.943 266.89C212.636 279.203 210.025 290.395 199.39 296.552C189.691 302.334 177.006 300.655 167.117 295.059C157.418 289.454 150.892 279.014 144.172 269.875C138.762 272.672 133.352 275.657 127.947 278.456C131.996 284.094 136.419 289.454 141.187 294.499Z" fill="#643CFF"/>
<path d="M295.652 92.6478C297.24 115.894 296.113 139.247 292.295 162.232C288.755 182.753 283.713 209.244 268.975 224.728C259.024 234.555 245.817 240.396 231.852 241.145C210.161 242.991 188.423 238.175 169.542 227.339C146.025 213.536 139.694 193.573 135.962 167.643C133.202 150.619 131.832 133.399 131.865 116.153C132.239 92.6478 136.157 61.3069 152.199 42.8399C159.582 34.4441 168.684 27.7334 178.887 23.1628C189.091 18.5922 200.158 16.2684 211.338 16.3489C239.507 16.7206 263.571 31.4588 280.176 52.9289C289.177 64.3372 294.567 78.1722 295.658 92.6625" fill="#F7846C"/>
<path d="M281.474 52.1678C264.872 30.7125 240.806 15.2309 212.636 14.8562C201.044 15.009 189.61 17.5574 179.05 22.3411C168.491 27.1249 159.035 34.0407 151.276 42.6541C135.231 61.1211 130.009 93.5829 129.635 117.088C129.449 128.841 132.434 139.659 133.741 151.412C134.859 151.972 135.977 152.719 137.098 153.279C138.03 153.651 140.27 154.958 141.388 154.211C142.323 153.651 142.509 151.412 142.509 150.671C142.818 148.572 142.942 146.45 142.88 144.329C142.912 140.085 143.223 135.847 143.812 131.644C146.143 113.764 151.165 96.3395 158.71 79.9627C167.48 61.4957 182.962 49.7429 202.925 60.1977C221.02 69.7115 236.13 86.3141 251.8 99.3737C265.42 110.752 282.395 110.566 279.412 99.5596C277.268 92.8549 275.645 85.9944 274.559 79.0394C282.557 84.776 291.981 88.1974 301.797 88.9278C314.671 89.2995 331.459 84.075 338.734 72.7028C340.351 70.3337 341.277 67.5615 341.409 64.6962C341.541 61.8308 340.873 58.9852 339.48 56.4778" fill="black"/>
<path d="M127.195 122.499C122.345 119.325 116.189 116.894 111.153 119.513C108.81 120.883 106.976 122.978 105.928 125.481C102.388 133.131 103.863 142.273 107.235 150.108C113.129 164.012 123.961 175.243 137.644 181.634C141.184 183.313 145.479 184.434 148.65 182.381C150.469 181.002 151.727 179.011 152.19 176.776C153.841 170.3 153.516 163.478 151.258 157.188C146.597 142.458 140.44 131.077 127.195 122.499Z" fill="#F7846C"/>
<path d="M142.308 169.33C140.243 145.267 128.502 136.88 117.121 128.104C123.652 136.871 129.806 145.078 133.166 155.539C129.809 153.86 122.906 151.621 118.802 152.739C127.756 157.403 130.366 160.014 142.308 169.342M236.885 120.065C236.466 129.264 237.861 138.456 240.991 147.117C243.788 154.02 249.57 160.548 257.405 161.294C249.712 166.077 241.158 169.308 232.224 170.805C227.935 155.329 231.106 134.995 236.885 120.065Z" fill="#DD4040"/>
<path d="M244.351 135.741C250.694 128.467 262.072 119.325 271.589 120.446C281.105 121.567 289.879 126.788 293.227 141.152C293.227 141.152 286.147 146.562 269.907 145.258C260.653 144.6 251.782 141.297 244.351 135.741ZM171.221 129.21C177.566 121.935 188.944 112.793 198.458 113.914C207.972 115.035 216.748 120.257 220.099 134.62C220.099 134.62 213.019 140.031 196.78 138.724C187.536 138.014 178.679 134.717 171.221 129.21Z" fill="white"/>
<path d="M280.917 142.087C281.15 136.453 282.547 130.929 285.02 125.862C281.213 122.678 276.53 120.723 271.589 120.257C262.072 119.136 250.694 128.464 244.351 135.553C251.733 141.197 260.631 144.51 269.907 145.066C273.51 145.393 277.138 145.331 280.728 144.88C280.884 143.958 280.948 143.022 280.917 142.087ZM210.772 118.392C207.213 115.822 203.019 114.274 198.644 113.917C189.13 112.796 177.752 122.124 171.41 129.213C178.791 134.858 187.69 138.17 196.966 138.727C200.631 139.05 204.32 138.987 207.972 138.541C207.273 131.697 208.234 124.786 210.772 118.392Z" fill="black"/>
<path d="M187.08 181.82C187.08 196.373 208.161 209.058 237.263 200.851" stroke="black" stroke-width="12.6024" stroke-linejoin="round"/>
<path d="M229.985 87.2374C228.681 94.1404 228.12 99.179 222.15 100.858C213.382 103.282 197.901 96.7541 188.944 95.6331C180.54 94.695 172.156 98.235 164.315 101.79C169.165 95.4473 172.522 87.0398 180.357 85.1872C183.11 84.5692 185.934 84.3183 188.753 84.4408C201.258 84.4408 217.675 86.3052 229.985 87.2374ZM298.266 112.05C297.278 110.04 295.879 108.26 294.159 106.825C290.802 104.029 285.952 104.029 281.849 104.029C276.81 104.029 271.775 104.029 266.736 104.215C265.491 104.393 264.222 104.284 263.026 103.895C261.83 103.507 260.739 102.851 259.836 101.976C259.351 101.026 258.975 100.024 258.715 98.9902C258.154 96.1936 257.597 93.5829 257.036 90.7833C267.507 90.1581 278.014 90.6585 288.377 92.276C290.373 92.4256 292.269 93.2103 293.787 94.5151C295.236 95.9542 296.267 97.7585 296.773 99.7366C297.431 102.043 297.807 104.42 297.891 106.817C298.224 108.54 298.35 110.297 298.266 112.05Z" fill="black"/>
<path d="M384.825 232.003C379.414 229.02 375.497 223.61 371.393 218.946C366.543 213.536 361.694 205.515 361.694 198.051C361.694 195.441 363.186 193.573 365.797 194.694C371.207 197.119 381.653 207.005 387.438 207.565C393.043 208.126 396.206 199.169 397.884 193.762C399.047 189.4 400.608 185.153 402.548 181.077C403.643 180.084 404.958 179.364 406.384 178.975C407.81 178.586 409.307 178.539 410.755 178.838C413.926 180.519 416.36 184.809 420.458 182.198C426.986 178.28 432.957 189.278 441.538 186.301C444.149 185.369 443.031 190.033 445.456 191.337C447.881 192.641 449.931 187.608 450.677 190.405C451.61 194.508 456.282 195.815 459.822 196.01C461.315 196.01 459.637 204.034 460.008 205.527C460.921 210.151 460.896 214.912 459.933 219.527C458.97 224.142 457.09 228.516 454.403 232.389C451.663 236.228 448.193 239.489 444.192 241.986C440.19 244.482 435.736 246.165 431.084 246.939C422.845 247.983 414.477 246.825 406.832 243.582C399.124 240.475 391.749 236.6 384.819 232.015" fill="#DD4040"/>
<path d="M512.612 430.11C537.425 370.6 552.91 309.411 566.155 246.169C489.482 222.864 395.273 200.093 315.8 188.526C301.069 250.355 277.774 309.825 246.59 365.21C264.5 364.464 280.917 370.063 298.077 375.473C362.997 395.796 445.267 419.304 512.612 430.11Z" fill="#14D29B"/>
<path d="M508.323 421.555C532.761 362.791 548.246 302.534 561.305 240.425C486.496 217.852 394.713 195.839 317.293 184.646C302.559 245.559 279.588 304.179 249.015 358.885C266.55 358.139 282.406 363.549 299.198 368.774C362.626 388.335 442.656 411.094 508.323 421.555Z" fill="#FDB849"/>
<path d="M504.406 412.773C527.645 356.089 545.387 297.304 557.388 237.227C476.851 212.895 394.769 194.011 311.697 180.702C297.857 239.578 275.682 296.177 245.844 348.784C263.193 348.227 279.235 353.637 295.841 358.859C359.08 378.821 438.924 401.766 504.406 412.773Z" fill="#FFD340"/>
<path d="M426.054 231.445C425.868 232.563 425.493 233.87 424.186 234.056C415.608 234.988 412.248 188.723 419.151 183.127C425.307 178.277 430.343 185.927 430.717 192.272C431.836 205.515 428.293 219.132 426.054 231.445Z" fill="#F7846C"/>
<path d="M431.836 232.003C431.278 232.938 430.343 234.068 429.039 233.87C419.711 232.563 432.396 189.844 441.724 186.484C449.931 183.499 452.545 191.709 450.677 197.694C446.76 209.804 438.37 221.371 431.836 232.003ZM447.32 228.274C446.76 228.832 446.202 229.578 445.255 229.206C439.65 226.967 453.465 197.119 459.622 195.998C465.032 195.066 465.59 201.408 463.725 205.515C459.633 214.093 452.916 221.371 447.32 228.274Z" fill="#F7846C"/>
<path d="M536.493 298.977L537.053 296.552C527.351 294.684 516.905 292.259 505.898 289.472C509.663 277.867 513.146 266.173 516.344 254.399L513.919 253.653C510.562 265.406 507.202 277.158 503.473 288.725C492.467 285.926 481.086 282.755 469.333 279.58C472.725 267.967 475.836 256.272 478.661 244.508L476.236 243.95C473.437 255.703 470.265 267.255 466.908 278.834C463.176 277.716 459.448 276.769 455.716 275.663C448.438 273.598 441.164 271.559 434.075 269.692C437.432 257.196 440.231 245.629 442.656 235.555L440.231 234.994C437.806 245.068 435.007 256.635 431.65 268.949C421.576 266.149 411.69 263.538 401.802 260.925C405.159 250.48 408.143 240.033 410.755 229.584L408.33 229.026C405.719 239.646 402.548 250.104 399.377 260.367C388.37 257.567 377.547 254.957 367.104 252.718C371.021 241.337 374.939 229.958 378.668 218.763L376.243 218.017C372.511 229.398 368.594 240.779 364.676 252.343C354.416 250.293 344.345 248.425 334.642 247.121C338.374 236.115 341.917 225.109 344.902 213.913L342.477 213.167C339.492 224.548 335.949 235.74 332.031 246.747C323.678 245.626 315.272 244.937 306.847 244.682V247.293C314.493 247.478 322.703 248.225 331.099 249.157C327.559 259.045 323.821 268.745 319.889 278.448C311.859 277.097 303.764 276.163 295.637 275.648L295.451 278.259C303.328 278.709 311.174 279.582 318.957 280.872C315.039 290.2 310.75 299.339 306.272 308.307C298.622 306.815 290.973 305.508 283.513 304.576L283.138 307.186C290.218 307.933 297.504 309.251 304.968 310.726C300.118 320.426 294.895 329.94 289.298 339.268L291.537 340.575C297.142 330.875 302.543 321.172 307.582 311.287C317.842 313.523 328.474 316.137 339.108 319.122C335.005 328.822 330.527 338.335 325.863 347.663L328.102 348.781C332.766 339.268 337.247 329.568 341.533 319.871C351.793 322.854 362.053 326.025 372.313 329.196C367.799 338.817 362.946 348.276 357.764 357.555L360.003 358.859C365.225 349.345 370.074 339.831 374.753 329.949C379.231 331.441 383.524 332.748 387.813 334.241L408.519 340.955C404.979 350.1 401.058 359.245 396.955 368.39L399.194 369.511C403.297 360.366 407.215 351.041 410.758 341.902C421.378 345.259 431.839 348.43 442.473 351.23C438.933 359.997 435.393 368.765 431.653 377.532L434.078 378.464C437.86 369.619 441.529 360.726 445.084 351.787C456.276 354.773 467.283 357.392 478.103 359.437C474 369.511 469.711 379.399 465.418 389.285L467.843 390.406C472.309 380.318 476.662 370.181 480.903 359.997C491.021 361.789 501.238 362.971 511.497 363.537L511.683 360.927C501.667 360.514 491.693 359.392 481.835 357.569C485.771 347.651 489.627 337.702 493.402 327.721C503.934 330.081 514.582 331.886 525.303 333.129L525.489 330.518C514.956 329.257 504.495 327.451 494.148 325.108C498.066 314.101 501.984 303.095 505.527 292.088C515.973 294.498 526.604 297.109 536.493 298.977ZM454.595 278.082C458.327 279.203 462.058 280.147 465.805 281.253C462.456 292.569 458.911 303.826 455.17 315.019C444.55 312.036 433.718 308.676 423.083 305.505C426.815 293.938 429.986 282.746 432.971 272.114C440.231 273.978 447.515 276.031 454.595 278.082ZM430.532 271.368C427.546 281.988 424.375 293.198 420.643 304.759C419.525 304.387 418.578 304.201 417.472 303.826C407.958 301.027 398.63 298.044 389.117 295.245C393.22 284.799 397.138 274.164 400.495 263.344C410.383 265.957 420.457 268.568 430.532 271.368ZM398.082 262.786C394.569 273.517 390.775 284.153 386.704 294.684C375.883 291.513 365.248 288.531 354.616 285.917C358.534 275.657 362.077 265.397 365.623 255.322C376.243 257.376 387.063 259.986 398.07 262.786H398.082ZM333.161 249.352C342.864 250.659 352.749 252.337 363.198 254.576C359.658 264.836 355.92 274.91 352.192 285.171C341.929 282.56 331.668 280.507 321.969 278.828C325.885 269.076 329.613 259.248 333.149 249.352H333.161ZM307.977 308.676C312.455 299.723 316.744 290.386 320.662 281.241C330.55 282.92 340.625 285.159 351.071 287.584C347.339 297.286 343.61 306.986 339.504 316.494C329.075 313.577 318.563 310.97 307.98 308.676H307.977ZM341.928 317.258C346.035 307.558 349.953 297.856 353.495 288.156C363.944 290.767 374.762 293.761 385.583 296.923C381.643 307.02 377.35 316.976 372.712 326.771C362.626 323.414 352.18 320.243 341.905 317.258H341.928ZM388.007 331.624C383.718 330.317 379.426 328.825 375.137 327.518C379.801 317.632 384.09 307.753 388.007 297.67C397.521 300.469 407.038 303.275 416.552 306.251C417.67 306.626 418.617 306.812 419.723 307.183C416.363 317.444 412.82 327.892 408.717 338.338C401.988 336.099 394.899 333.86 387.996 331.624H388.007ZM411.327 339.085C415.216 328.779 418.885 318.391 422.334 307.93C432.954 311.101 443.786 314.461 454.421 317.444C450.881 327.892 447.146 338.153 443.043 348.599C432.424 345.574 421.847 342.402 411.315 339.085H411.327ZM478.673 356.62C467.852 354.555 456.66 351.959 445.653 348.973C449.571 338.713 453.489 328.45 457.032 317.998C468.413 321.169 479.605 324.155 490.426 326.58C486.496 336.66 482.579 346.734 478.661 356.62H478.673ZM490.986 324.17C480.165 321.745 468.973 318.759 457.592 315.588C461.332 304.395 464.878 293.138 468.227 281.822C479.561 285.036 490.941 288.085 502.364 290.967C498.809 302.148 495.078 313.34 490.974 324.161L490.986 324.17Z" fill="white"/>
<path d="M364.118 221.557L355.537 227.713L352.923 219.318L348.448 220.625L351.433 230.51L340.799 237.974L343.409 241.891L352.923 235.363L355.723 244.316L360.201 243.009L357.029 232.377L366.915 225.474L364.118 221.557ZM399.377 234.428L391.17 238.534C390.238 235.174 389.305 232.003 388.373 228.646L383.895 229.764C384.802 233.457 385.798 237.128 386.881 240.773L375.874 246.378L377.939 250.482L388.388 245.257C389.506 248.428 390.627 251.788 391.745 254.96L396.223 253.278C394.916 249.921 393.798 246.564 392.683 243.207L401.451 238.729L399.377 234.428ZM437.246 240.959C432.735 243.065 428.257 245.241 423.815 247.487L419.525 236.481L415.233 238.159L419.711 249.54C416.54 251.219 413.369 252.712 410.383 254.576L412.622 258.68C415.506 257.053 418.429 255.498 421.39 254.016L425.307 263.718L429.597 262.04L425.493 251.78C429.971 249.54 434.638 247.301 439.113 245.062L437.246 240.959ZM471.572 247.487C466.171 249.925 460.821 252.475 455.527 255.137C453.88 250.71 452.201 246.294 450.491 241.891L446.202 243.57C447.881 248.048 449.742 252.715 451.424 257.376C448.627 258.868 445.642 260.361 442.842 261.851L445.081 265.957C447.692 264.465 450.306 263.158 452.916 261.851C454.037 264.836 454.981 267.822 456.088 270.807L460.566 269.314C459.445 266.143 458.327 262.786 457.208 259.615C462.607 256.851 468.081 254.238 473.625 251.78L471.572 247.487ZM508.137 262.597L506.645 258.122C502.167 259.615 497.688 261.293 493.213 262.786C492.278 259.054 491.346 255.322 490.042 251.576L485.564 253.069C486.707 256.838 487.764 260.633 488.735 264.45C484.818 265.942 480.714 267.435 476.797 268.928L478.475 273.217C482.207 271.724 485.936 270.418 489.667 268.928C490.788 273.589 491.532 278.253 492.278 283.106L496.942 282.359C496.195 277.321 495.263 272.283 494.145 267.246C498.809 265.768 503.473 264.09 508.137 262.597ZM541.528 270.247L539.103 266.143L529.029 272.3C527.725 268.382 526.418 264.65 525.3 260.733L520.822 262.225C522.129 266.329 523.619 270.621 524.926 274.725L507.016 285.56L509.441 289.663L526.418 279.403C527.537 282.575 528.483 285.56 529.59 288.731L534.068 287.239C532.947 283.881 531.643 280.521 530.528 276.978L541.528 270.247ZM320.278 251.591C316.928 253.094 313.629 254.713 310.39 256.444C309.258 254.265 308.012 252.147 306.658 250.098L302.555 252.526C303.806 254.535 304.987 256.588 306.095 258.68C302.363 260.745 298.631 262.972 294.885 265.211L297.498 269.129C301.038 266.889 304.773 264.65 308.319 262.786C309.623 265.211 310.744 267.636 312.048 270.061L316.34 267.996C315.219 265.385 313.915 262.96 312.608 260.535C315.78 258.857 318.951 257.364 322.122 255.871L320.278 251.591ZM357.215 257.001L345.463 263.344L341.359 253.644L337.067 255.508L341.359 265.583L328.674 272.3L330.913 276.403L343.041 269.875C344.134 272.774 345.574 275.529 347.33 278.082L351.05 275.285C349.513 272.955 348.26 270.449 347.318 267.822L347.132 267.45L359.26 260.919L357.215 257.001ZM443.217 316.886C439.599 316.872 436.033 316.023 432.797 314.405C429.561 312.787 426.743 310.444 424.561 307.558C422.255 304.459 420.83 300.794 420.435 296.951C420.041 293.109 420.693 289.231 422.322 285.728C424.397 281.852 427.453 278.588 431.185 276.264C434.917 273.939 439.194 272.635 443.588 272.483C447.984 272.2 452.37 273.173 456.235 275.286C460.099 277.4 463.284 280.568 465.418 284.421C467.231 287.856 468.019 291.74 467.689 295.61C467.358 299.48 465.923 303.173 463.554 306.251C461.315 309.298 458.433 311.813 455.111 313.619C451.79 315.424 448.112 316.475 444.338 316.697C443.985 316.852 443.6 316.916 443.217 316.886ZM443.774 277.335C440.216 277.383 436.734 278.376 433.686 280.212C430.637 282.048 428.131 284.661 426.425 287.784C425.205 290.525 424.734 293.542 425.062 296.524C425.391 299.507 426.505 302.348 428.293 304.759C430.16 307.152 432.575 309.063 435.334 310.329C438.093 311.595 441.116 312.181 444.149 312.036C447.222 311.808 450.211 310.924 452.914 309.444C455.617 307.964 457.972 305.922 459.819 303.455C461.694 301.119 462.851 298.289 463.149 295.308C463.447 292.327 462.873 289.324 461.498 286.663C459.658 283.656 457.039 281.202 453.92 279.56C450.8 277.918 447.295 277.15 443.774 277.335Z" fill="black"/>
<path d="M330.724 200.851C327.719 200.699 324.871 199.461 322.71 197.368C320.548 195.275 319.22 192.468 318.972 189.47C318.827 186.591 319.34 183.718 320.471 181.067C321.602 178.417 323.322 176.058 325.5 174.171C327.157 172.417 329.152 171.016 331.364 170.053C333.576 169.089 335.961 168.584 338.374 168.566C341.023 168.559 343.6 169.437 345.695 171.059C347.79 172.681 349.284 174.955 349.941 177.522L344.902 178.454C344.469 177.022 343.577 175.772 342.364 174.895C341.151 174.019 339.684 173.566 338.188 173.605C334.728 173.755 331.456 175.223 329.043 177.708C327.454 179.056 326.192 180.747 325.352 182.653C324.512 184.56 324.116 186.632 324.193 188.714C324.361 190.501 325.171 192.167 326.473 193.402C327.774 194.637 329.48 195.358 331.273 195.432L331.834 200.467C331.516 200.713 331.126 200.847 330.724 200.851ZM365.611 205.32C362.606 205.169 359.758 203.933 357.596 201.84C355.434 199.747 354.106 196.94 353.858 193.942C353.714 191.064 354.227 188.19 355.358 185.539C356.489 182.889 358.209 180.53 360.387 178.643C362.043 176.889 364.037 175.488 366.249 174.524C368.461 173.561 370.845 173.056 373.258 173.038C375.908 173.03 378.484 173.907 380.58 175.529C382.675 177.151 384.169 179.427 384.824 181.994L379.789 182.927C379.355 181.494 378.463 180.243 377.25 179.366C376.036 178.489 374.568 178.035 373.072 178.074C369.611 178.225 366.339 179.694 363.927 182.18C362.338 183.528 361.076 185.219 360.235 187.126C359.394 189.032 358.997 191.104 359.074 193.187C359.242 194.973 360.052 196.637 361.354 197.872C362.656 199.107 364.361 199.827 366.154 199.901L366.714 204.939C366.397 205.182 366.01 205.316 365.611 205.32ZM398.445 212.229C395.44 212.078 392.591 210.842 390.43 208.749C388.268 206.656 386.94 203.849 386.692 200.851C386.547 197.972 387.06 195.099 388.191 192.448C389.322 189.798 391.042 187.439 393.22 185.552C394.876 183.798 396.87 182.397 399.082 181.433C401.294 180.47 403.678 179.964 406.091 179.947L405.905 184.983C402.402 185.18 399.089 186.639 396.577 189.089C394.989 190.438 393.728 192.129 392.888 194.035C392.048 195.942 391.651 198.014 391.727 200.096C391.895 201.882 392.705 203.547 394.007 204.782C395.309 206.016 397.015 206.737 398.807 206.81L399.368 211.848C399.191 212.229 398.816 212.229 398.445 212.229ZM467.094 232.003C464.089 231.852 461.241 230.615 459.08 228.522C456.918 226.429 455.59 223.623 455.341 220.625C455.198 217.746 455.712 214.873 456.843 212.222C457.975 209.572 459.695 207.213 461.873 205.326C463.529 203.572 465.523 202.171 467.735 201.208C469.947 200.244 472.331 199.739 474.743 199.721C477.393 199.713 479.97 200.59 482.065 202.212C484.16 203.835 485.654 206.11 486.31 208.677L481.272 209.609C480.839 208.177 479.947 206.927 478.734 206.05C477.521 205.174 476.053 204.721 474.558 204.76C471.097 204.91 467.826 206.378 465.413 208.863C463.824 210.211 462.562 211.902 461.722 213.809C460.882 215.715 460.486 217.787 460.563 219.869C460.73 221.656 461.54 223.321 462.842 224.556C464.144 225.791 465.85 226.511 467.643 226.584L468.203 231.622C467.896 231.886 467.499 232.022 467.094 232.003ZM497.317 240.027C494.312 239.875 491.464 238.637 489.302 236.544C487.141 234.451 485.812 231.644 485.564 228.646C485.419 225.768 485.932 222.895 487.063 220.244C488.194 217.594 489.914 215.236 492.092 213.35C495.49 209.877 500.109 207.866 504.966 207.745C507.616 207.738 510.191 208.615 512.286 210.237C514.381 211.86 515.874 214.134 516.53 216.701L511.495 217.633C511.061 216.201 510.168 214.95 508.955 214.074C507.741 213.198 506.274 212.744 504.777 212.784C501.317 212.934 498.045 214.402 495.632 216.887C494.044 218.235 492.782 219.926 491.941 221.832C491.101 223.739 490.705 225.811 490.783 227.893C490.95 229.68 491.76 231.345 493.062 232.581C494.364 233.816 496.069 234.537 497.863 234.611L498.42 239.646C498.276 239.787 498.102 239.894 497.911 239.96C497.72 240.026 497.517 240.049 497.317 240.027ZM531.643 250.098C528.638 249.947 525.79 248.711 523.628 246.618C521.466 244.525 520.138 241.719 519.89 238.72C519.746 235.842 520.258 232.968 521.39 230.317C522.521 227.667 524.241 225.308 526.419 223.421C529.816 219.949 534.433 217.939 539.289 217.816C541.939 217.808 544.516 218.685 546.612 220.307C548.707 221.929 550.201 224.205 550.856 226.772L545.821 227.705C545.387 226.272 544.495 225.022 543.281 224.145C542.068 223.269 540.6 222.816 539.104 222.855H538.918C535.522 223.042 532.323 224.508 529.964 226.958C528.372 228.306 527.107 229.998 526.264 231.906C525.422 233.814 525.023 235.889 525.1 237.974C525.268 239.76 526.078 241.425 527.38 242.66C528.682 243.895 530.387 244.617 532.18 244.691L532.74 249.726C532.424 249.965 532.039 250.095 531.643 250.098Z" fill="white"/>
<path d="M406.837 227.899C406.466 229.02 406.091 230.324 404.787 230.324C396.206 230.51 396.952 184.059 404.413 179.21C410.944 174.917 415.233 182.941 415.233 189.284C414.673 202.529 410.009 215.775 406.837 227.899Z" fill="#F7846C"/>
<path d="M143.426 446.925C142.865 435.172 142.308 423.234 142.119 411.481C141.779 405.495 142.091 399.49 143.051 393.571C145.479 381.63 152.568 371.37 159.468 361.295C152.745 366.027 146.663 371.609 141.373 377.901C140.255 368.013 138.762 357.006 136.709 339.846C133.042 373.74 132.542 407.902 135.216 441.889" fill="#643CFF"/>
<path d="M52.7605 458.106C42.6863 462.769 31.6798 467.433 25.8978 476.761C25.1398 477.797 24.6002 478.976 24.3116 480.226C24.0231 481.477 23.9916 482.773 24.2193 484.036C25.5232 488.328 31.2993 489.26 35.7833 489.075C61.3887 488.273 86.3664 480.953 108.353 467.805C121.038 460.159 133.723 448.964 134.658 434.039C134.957 431.621 134.568 429.167 133.537 426.959C132.138 424.774 130.093 423.078 127.686 422.109C125.279 421.139 122.629 420.944 120.106 421.549C109.285 423.788 98.2761 434.423 88.7653 439.839C76.8266 446.353 64.8998 452.509 52.7605 458.106Z" fill="black"/>
<path d="M372.886 346.92L393.034 366.883L320.65 453.627L290.241 430.682L372.886 346.92Z" fill="#D70A32"/>
<path d="M313.375 448.217L320.455 453.627L392.837 366.897L389.665 363.726C365.422 392.813 339.306 420.422 313.375 448.217Z" fill="#FF465A"/>
<path d="M393.034 366.883L406.837 331.624L372.88 346.92C373.062 349.475 373.788 351.962 375.009 354.215C376.23 356.467 377.918 358.432 379.96 359.98C383.792 363.163 388.244 365.514 393.034 366.883Z" fill="white"/>
<path d="M325.128 448.217C325.128 448.217 307.033 450.831 296.026 424.912C296.026 424.912 275.692 442.822 276.81 448.604C278.489 458.864 290.802 471.923 302.741 472.67C310.018 473.03 325.128 448.217 325.128 448.217Z" fill="#008C6E"/>
<path d="M315.8 461.651C320.836 455.12 325.128 448.217 325.128 448.217C325.128 448.217 307.033 450.831 296.026 424.912C296.026 424.912 290.421 429.948 285.206 435.532C287.07 450.831 300.69 458.48 315.8 461.651Z" fill="white"/>
<path d="M404.598 337.032C403.809 336.97 403.064 336.641 402.488 336.098C401.911 335.556 401.537 334.833 401.427 334.049C401.427 334.049 410.009 326.586 411.13 326.969C412.248 327.518 404.598 337.032 404.598 337.032Z" fill="black"/>
<path d="M344.156 439.255C343.598 438.137 342.852 437.19 342.477 436.455C339.12 431.048 336.135 425.263 332.592 420.039C341.737 420.974 346.77 429.184 356.097 429.927C359.08 430.302 363.558 428.62 362.44 425.824C362.21 425.379 361.894 424.985 361.509 424.664C361.125 424.343 360.68 424.103 360.201 423.956C357.776 422.838 355.162 421.531 352.737 420.416C355.79 421.167 358.922 421.542 362.065 421.534C363.744 421.534 366.169 420.788 365.983 419.109C365.983 418.177 365.237 417.617 364.49 417.044C354.416 408.649 346.023 392.978 335.949 384.594C341.731 381.237 352.552 384.969 357.779 391.497C361.882 396.722 359.457 406.607 363.384 412.018C363.87 412.739 364.544 413.313 365.334 413.677C366.123 414.041 366.998 414.182 367.862 414.083C370.287 413.897 370.844 413.15 371.219 410.911C372.686 402.639 372.174 394.136 369.726 386.099C367.487 378.638 363.009 371.349 355.92 368.19C349.392 365.393 341.743 366.697 334.84 368.378C315.252 373.228 248.281 394.866 274.211 425.089C276.243 427.895 278.906 430.184 281.984 431.772C285.063 433.36 288.471 434.204 291.935 434.234C302.139 434.579 312.212 431.85 320.845 426.399C321.78 425.838 327.748 431.806 328.308 432.367C330.547 434.432 332.787 437.031 334.837 439.27C336.329 440.762 342.486 446.173 344.911 443.562C345.649 442.795 344.716 440.382 344.156 439.255Z" fill="#F7846C"/>
<path d="M279.424 394.306C213.197 442.981 168.424 445.235 128.502 462.209C130.851 453.009 131.358 443.436 129.995 434.039C129.248 430.499 126.263 425.272 121.785 426.765C102.757 433.668 90.8099 451.949 71.9771 459.215C73.2821 473.368 75.3372 487.441 78.1337 501.376C80.3698 511.996 82.423 525.442 92.1226 533.092C96.229 536.263 106.873 532.345 114.51 530.667C123.092 528.602 133.352 527.496 141.562 524.51C158.319 518.243 174.488 510.502 189.877 501.376C226.628 479.738 254.983 444.48 292.855 424.892C284.834 416.505 278.117 405.684 279.424 394.306Z" fill="#F7846C"/>
<path d="M100.147 519.294C98.7446 518.321 97.1161 517.724 95.4171 517.561C93.7181 517.397 92.0057 517.673 90.444 518.362C88.0282 519.149 85.7118 520.213 83.541 521.534C85.3819 526.05 88.3337 530.029 92.1226 533.1C94.3616 534.779 98.6539 534.407 103.333 533.472C103.69 528.437 103.875 522.466 100.147 519.294Z" fill="#DD4040"/>
</g>
<defs>
<clipPath id="clip0_583_520">
<rect width="590" height="590" fill="white"/>
</clipPath>
</defs>
</svg>
