<svg width="689" height="782" viewBox="0 0 689 782" fill="none" xmlns="http://www.w3.org/2000/svg">
<path d="M65.2803 73.6225V77.4395C65.3925 83.2209 66.9295 88.8877 69.7578 93.9479C72.5861 99.008 76.6202 103.309 81.5096 106.476C109.546 81.7684 147.134 71.837 183.427 62.1595C184.423 53.1645 183.078 44.0669 179.519 35.7312C175.96 27.3955 170.307 20.0985 163.095 14.5337C155.817 9.03396 147.207 5.52167 138.127 4.34833C132.316 1.92187 126.14 0.459317 119.848 0.0194249C114.034 -0.152391 108.243 0.817008 102.809 2.87166C97.3757 4.92631 92.4073 8.0255 88.1909 11.9903C81.7513 17.8485 76.8852 25.1993 74.0307 33.3809C71.0409 28.1044 66.18 24.112 60.3878 22.1757C57.1773 21.1028 53.7321 20.9153 50.4221 21.6332C47.112 22.3511 44.0621 23.9474 41.5996 26.2507C39.7682 27.8754 38.5068 30.0344 37.9978 32.4155C37.4888 34.7965 37.7587 37.276 38.7684 39.4952C38.744 41.8851 39.4085 44.2323 40.6842 46.2619C41.9598 48.2914 43.7937 49.9191 45.9709 50.9543C48.6789 52.0351 51.6267 52.3922 54.5183 51.9897C57.4099 51.5871 60.1436 50.4391 62.4451 48.6609C64.1344 47.1623 65.9421 45.7997 67.8509 44.586C66.5826 48.2383 64.0234 51.3144 60.6444 53.2477C57.1865 55.2235 53.3035 56.3577 49.3155 56.5569C50.8922 57.4902 52.6673 58.0468 54.4996 58.1825C56.3319 58.3181 58.1709 58.0291 59.8705 57.3383C61.6724 56.6266 63.3092 55.5595 64.6811 54.2021C66.0531 52.8447 67.1316 51.2252 67.8509 49.4423C67.5277 53.16 66.0972 56.6992 63.7403 59.6121C61.5091 62.6285 58.9155 65.3652 56.0165 67.762C60.8894 66.1112 65.1194 62.9955 68.1155 58.8503C68.1133 58.8161 68.1182 58.7819 68.13 58.7498C68.1417 58.7176 68.16 58.6882 68.1837 58.6633C68.2074 58.6384 68.2359 58.6185 68.2677 58.605C68.2994 58.5915 68.3336 58.5845 68.3682 58.5846C68.0775 59.228 67.9038 59.917 67.8549 60.6201C65.2642 66.52 63.2798 72.6626 61.9317 78.9554C60.1272 85.5973 58.5832 92.9658 61.4144 99.3302C62.9997 102.583 65.3904 105.386 68.3642 107.48C72.8321 110.885 78.0262 113.237 83.5511 114.356C79.9499 111.301 75.8313 109.277 72.2261 106.464C68.3184 104.001 65.3369 100.336 63.7403 96.0327C62.7967 92.0001 62.8849 87.7982 63.9969 83.8079C63.9764 80.372 64.4079 76.9482 65.2803 73.6225ZM100.819 6.89566C107.58 4.15239 114.897 3.01759 122.182 3.58256C115.814 4.11537 109.56 5.57538 103.623 7.91537C95.5589 10.9975 88.2685 15.7766 82.256 21.9218C86.9919 15.3833 93.3904 10.1995 100.803 6.89566H100.819ZM48.0361 27.5244C45.3151 28.5952 42.9207 30.345 41.0863 32.6034C41.1075 31.6985 41.3807 30.817 41.876 30.0561C43.0343 27.9156 44.7914 26.1507 46.9372 24.9727C49.083 23.7948 51.5264 23.2537 53.975 23.4142C57.5799 23.5003 61.0761 24.6529 64.0127 26.7234C63.4994 26.4695 63.223 26.4695 62.7254 26.2155C57.8119 25.1094 52.6708 25.5674 48.0361 27.5244Z" fill="black"/>
<path d="M534.269 703.184C519.852 722.793 454.473 747.243 454.473 747.243C430.78 735.522 407.368 723.559 383.17 713.37C408.142 705.986 433.11 696.308 452.668 679.243C481.242 690.452 503.631 699.875 534.269 703.184Z" fill="#9778FF"/>
<path d="M432.85 711.588C425.386 713.116 418.693 714.39 411.23 715.917C415.672 712.63 419.655 708.777 423.076 704.458C426.583 706.481 429.86 708.871 432.85 711.588ZM471.46 717.957C458.637 718.592 445.976 721.08 433.88 725.341C440.83 718.972 448.297 712.608 452.672 704.204C453.462 706.751 453.96 709.041 454.73 711.588C453.96 712.608 452.155 714.136 451.385 715.409C453.442 714.628 455.504 714.136 457.561 713.37C462.378 714.288 467.051 715.83 471.46 717.957ZM503.122 699.875C490.766 704.712 478.154 708.787 465.541 712.608C468.527 704.16 472.052 695.909 476.096 687.904C476.775 688.476 477.562 688.909 478.41 689.178C476.096 695.288 473.277 701.403 470.69 707.259C478.886 703.972 486.807 700.053 494.383 695.539" fill="white"/>
<path d="M649.585 663.962C631.815 538.917 612.261 423.04 587.807 299.776L603.25 296.717C627.705 420.235 647.524 536.369 665.285 661.673L649.585 663.962ZM502.352 627.046C494.371 585.28 487.165 541.222 480.215 498.691C468.116 424.849 455.247 348.429 438.256 274.572L453.699 271.009C470.947 345.374 483.56 422.032 495.915 496.143C503.378 540.456 510.072 582.487 518.052 624.244L502.352 627.046Z" fill="#008C6E"/>
<path d="M360.52 568.461C329.495 582.858 300.646 601.457 274.805 623.725C268.908 628.358 263.859 633.957 259.875 640.279C257.95 643.475 256.787 647.063 256.475 650.77C256.163 654.478 256.71 658.206 258.074 661.673C261.936 669.823 271.204 674.152 279.954 676.442C311.872 685.357 345.59 679.755 378.795 679.755C401.565 679.778 424.265 682.254 446.493 687.139C474.035 693.507 500.547 703.439 528.09 709.295C555.632 715.152 585.492 716.429 611.487 705.732C623.265 700.497 634.334 693.823 644.435 685.865C658.335 675.68 671.721 664.474 680.472 649.702C689.222 634.93 692.318 616.083 684.59 600.803C677.64 587.051 662.971 578.393 647.784 574.826C632.597 571.259 616.893 572.024 601.449 573.044C578.025 574.318 554.345 574.572 530.921 575.591C501.064 576.865 470.69 578.139 441.604 571.77C426.674 568.461 412.517 563.113 397.331 561.073C382.404 559.038 374.163 562.093 360.52 568.461Z" fill="#FF465A"/>
<path d="M563.869 592.665C575.742 589.907 588.118 590.083 599.905 593.177C611.655 596.26 623.11 600.35 634.141 605.401C643.922 609.476 653.96 613.805 663.757 617.88C647.793 617.387 632.206 622.737 619.981 632.906C633.547 630.896 647.403 632.117 660.396 636.469C646.739 637.846 633.644 642.573 622.299 650.222C611.05 657.836 599.266 664.645 587.036 670.597C569.788 677.985 550.483 677.985 531.951 675.18C513.42 672.374 493.854 668.815 476.353 675.437C485.988 668.704 497.105 664.338 508.784 662.701C503.122 654.809 492.053 653.023 482.529 654.551C473.004 656.078 463.741 659.899 454.216 660.919C432.336 662.959 412.518 648.948 390.894 644.119C377.508 641.064 363.352 641.318 349.969 638.259C345.92 636.876 341.621 636.354 337.353 636.727C334.522 637.239 331.951 638.259 329.377 638.767C323.453 639.786 317.53 637.747 311.607 636.985C301.995 635.426 292.131 636.755 283.291 640.802C295.646 624.502 323.173 629.863 338.632 616.357C343.341 611.349 347.645 605.984 351.505 600.311C362.313 587.578 379.305 581.21 395.779 578.154C418.682 573.821 442.374 574.587 465.79 575.607C489.988 576.881 514.695 578.916 537.349 587.328C545.338 590.617 554.601 595.2 563.869 592.665Z" fill="#D70A32"/>
<path d="M370.819 532.806C359.953 534.798 349.667 539.146 340.702 545.539C336.258 548.83 332.547 552.991 329.801 557.764C327.055 562.536 325.332 567.818 324.741 573.278C323.971 582.956 327.833 592.633 327.833 602.311C327.372 609.986 325.722 617.546 322.94 624.725C320.022 631.888 318.2 639.441 317.534 647.135C317.226 650.978 317.731 654.843 319.017 658.482C320.302 662.121 322.341 665.456 325.001 668.272C330.744 665.943 335.893 662.382 340.077 657.845C344.261 653.309 347.375 647.911 349.195 642.041C355.632 621.924 346.877 600.275 348.406 579.393C349.452 561.839 356.402 544.011 370.819 532.806Z" fill="#FDB849"/>
<path d="M600.679 630.601C596.817 621.178 598.618 610.738 599.392 600.803C600.166 590.868 599.649 579.412 592.182 572.536C586.78 567.457 579.313 565.914 572.106 563.874C548.414 557.764 526.032 547.321 502.865 539.171C489.466 534.597 475.899 530.519 462.193 526.946C452.188 523.948 441.937 521.818 431.558 520.582C408.561 518.121 385.374 523.03 365.409 534.588C354.898 540.37 346.041 548.694 339.667 558.784C336.545 563.902 334.624 569.648 334.045 575.598C333.466 581.549 334.244 587.552 336.322 593.165C338.45 599.49 341.119 605.624 344.299 611.5C340.913 612.723 337.776 614.534 335.035 616.849C333.67 617.918 332.634 619.342 332.042 620.962C331.451 622.582 331.328 624.333 331.687 626.018C332.381 628.236 333.62 630.25 335.292 631.879C342.376 639.781 347.879 648.942 351.509 658.876C355.11 668.925 355.11 679.894 351.509 689.944C348.678 697.078 355.111 704.462 361.034 709.557C361.863 710.439 362.937 711.059 364.122 711.338C367.21 711.846 369.255 708.283 370.297 705.478C373.682 693.878 374.124 681.632 371.585 669.823C368.988 658.079 364.923 646.701 359.486 635.95C367.66 634.716 375.947 634.374 384.197 634.93C391.282 634.978 398.347 635.66 405.307 636.97C413.284 639.005 420.233 643.611 427.7 646.393C438.251 650.21 460.645 649.702 464.763 651.23C471.457 653.777 472.23 660.654 476.349 662.169C486.434 665.475 496.896 667.529 507.493 668.284C516.504 669.3 526.028 670.573 532.717 676.688C537.097 680.763 539.411 686.365 543.774 690.694C547.892 695.023 555.36 697.316 559.735 692.987C560.857 691.61 561.668 690.01 562.112 688.296C562.556 686.582 562.623 684.794 562.309 683.052C561.823 674.873 558.453 667.123 552.785 661.15C550.21 658.602 547.379 656.313 545.061 653.512C543.86 652.18 542.999 650.583 542.551 648.854C542.104 647.125 542.083 645.315 542.491 643.576C544.291 637.974 551.498 636.446 557.417 635.684C571.332 633.91 586.78 631.875 600.679 630.601Z" fill="#FFD340"/>
<path d="M611.487 602.842C614.275 607.909 615.611 613.633 615.349 619.396C615.096 625.819 616.146 632.228 618.437 638.243C619.125 639.476 619.55 640.835 619.686 642.237C619.822 643.639 619.666 645.053 619.227 646.393C618.472 647.385 617.502 648.197 616.388 648.77C615.274 649.342 614.045 649.661 612.79 649.702C607.591 649.849 602.53 648.033 598.634 644.623C594.869 641.455 591.803 637.554 589.627 633.164C586.278 627.304 578.298 598.271 578.815 591.907C579.313 580.686 598.618 581.194 611.487 602.842ZM383.688 633.656C406.587 631.568 429.674 632.942 452.155 637.731C454.898 638.125 457.528 639.079 459.879 640.532C461.082 641.236 462.074 642.244 462.753 643.452C463.431 644.661 463.772 646.026 463.741 647.409C463.504 649.15 462.688 650.763 461.423 651.995C456.53 657.344 448.297 657.856 441.347 657.075C434.682 656.095 428.129 654.475 421.781 652.238C414.575 649.944 407.368 647.909 400.419 645.615C396.813 644.596 393.212 643.322 389.607 642.306C386.267 641.556 382.995 640.532 379.826 639.247C378.539 638.739 378.539 637.72 379.036 636.446C379.484 635.608 380.154 634.907 380.973 634.415C381.792 633.924 382.73 633.662 383.688 633.656Z" fill="#FDB849"/>
<path d="M438.773 646.647C438.491 647.387 438.368 648.176 438.412 648.965C438.457 649.754 438.667 650.526 439.029 651.23C439.603 651.952 440.353 652.517 441.208 652.874C442.063 653.231 442.995 653.367 443.918 653.269C444.585 653.168 445.226 652.935 445.801 652.585C446.376 652.235 446.874 651.774 447.266 651.23C448.035 650.261 448.563 649.128 448.81 647.921C449.324 645.881 449.58 641.298 445.462 641.044C443.989 641.411 442.62 642.106 441.46 643.078C440.301 644.049 439.381 645.27 438.773 646.647ZM456.274 640.787C456.463 641.094 456.564 641.446 456.564 641.806C456.564 642.166 456.463 642.519 456.274 642.826C456.017 643.08 456.017 643.334 455.76 643.607C454.913 644.134 453.929 644.405 452.929 644.389C452.401 644.429 451.871 644.342 451.385 644.135C450.868 643.881 450.354 643.623 450.354 643.115C450.098 642.334 450.868 641.334 451.642 640.822C452.642 640.213 453.817 639.945 454.986 640.06C455.484 640.158 455.936 640.413 456.274 640.787ZM453.186 646.647C452.155 646.901 450.868 647.663 451.128 648.937C451.128 649.718 451.898 650.21 452.412 650.464C453.916 651.235 455.631 651.509 457.304 651.246C458.848 650.992 460.649 650.464 460.909 648.952C461.166 647.936 460.12 646.917 459.362 646.663C458.347 646.452 457.31 646.367 456.274 646.409C455.769 646.245 455.236 646.181 454.706 646.222C454.175 646.263 453.659 646.407 453.186 646.647ZM453.96 655.305C453.706 655.661 453.346 655.928 452.929 656.069C452.513 656.209 452.062 656.215 451.642 656.086C450.818 655.759 450.04 655.331 449.324 654.813C448.929 654.611 448.623 654.272 448.465 653.861C448.307 653.45 448.308 652.996 448.467 652.586C448.627 652.175 448.934 651.837 449.329 651.637C449.725 651.437 450.181 651.388 450.611 651.5C451.656 651.657 452.636 652.098 453.442 652.773C453.65 652.901 453.829 653.069 453.969 653.268C454.108 653.467 454.205 653.691 454.254 653.928C454.302 654.166 454.301 654.41 454.25 654.647C454.2 654.883 454.101 655.107 453.96 655.305ZM350.739 690.96C350.319 693.136 350.684 695.39 351.77 697.328C352.246 698.109 352.881 698.783 353.634 699.309C354.387 699.835 355.242 700.201 356.145 700.383C357.035 700.539 357.951 700.428 358.776 700.065C359.602 699.701 360.299 699.102 360.777 698.344C361.467 697.1 361.652 695.643 361.294 694.269C360.891 692.955 360.374 691.678 359.75 690.452C358.72 688.666 356.658 684.849 354.345 685.103C351.77 685.103 350.996 689.166 350.739 690.96ZM361.038 709.807C361.292 710.088 361.64 710.268 362.018 710.315C362.396 710.361 362.779 710.271 363.095 710.061C363.352 709.807 363.352 709.553 363.608 709.279C363.777 708.327 363.673 707.347 363.31 706.45C362.947 705.553 362.337 704.774 361.551 704.2C360.52 703.419 356.658 702.415 356.418 704.708C356.145 706.494 360.007 709.041 361.038 709.807ZM361.808 699.875V700.383C362.357 701.836 363.238 703.144 364.382 704.204C365.413 704.966 367.727 705.986 368.244 704.204V703.185C367.705 701.955 366.852 700.886 365.768 700.083C364.685 699.279 363.408 698.769 362.064 698.602C361.808 698.602 361.551 699.11 361.808 699.875Z" fill="black"/>
<path d="M388.063 593.927C381.568 592.322 374.728 592.767 368.501 595.2C363.059 596.897 357.867 599.294 353.057 602.33C350.595 603.588 348.408 605.314 346.621 607.409C345.077 610.719 347.908 609.449 349.969 608.683C362.321 603.35 375.194 598.525 388.063 593.927Z" fill="#FDB849"/>
<path d="M412.257 632.637C426.363 632.131 440.285 629.29 453.442 624.233C456.798 623.295 459.771 621.335 461.936 618.63C464.254 614.809 462.967 609.972 461.423 605.644C454.388 585.794 443.843 567.339 430.279 551.142C439.545 558.991 447.762 567.978 454.73 577.885C461.841 587.944 466.67 599.406 468.886 611.484C469.676 616.563 469.403 621.67 464.767 624.729C457.549 629.232 449.336 631.94 440.83 632.621C431.049 633.91 421.781 632.383 412.257 632.637ZM504.665 667.022C500.034 666.24 496.172 665.49 491.796 664.728C487.956 664.372 484.211 663.337 480.74 661.673C479.344 660.699 478.167 659.45 477.284 658.003C476.4 656.557 475.829 654.945 475.607 653.269C475.227 649.854 475.495 646.398 476.396 643.08C478.527 633.447 482.455 624.291 487.978 616.083C478.919 625.243 472.595 636.702 469.703 649.194C469.059 650.994 468.841 652.916 469.064 654.812C469.287 656.708 469.946 658.529 470.991 660.134C472.945 662.055 475.471 663.304 478.197 663.697C486.88 665.708 495.75 666.822 504.665 667.022ZM589.094 593.673C590.381 595.454 593.73 596.728 595.53 598.002L602.48 602.588C605.6 604.529 608.239 607.139 610.2 610.226C611.214 612.017 611.747 614.034 611.747 616.087C611.747 618.139 611.214 620.157 610.2 621.947C608.339 626.425 607.127 631.14 606.599 635.954C604.651 620.575 598.61 605.984 589.094 593.673Z" fill="black"/>
<path d="M579.842 585.015C586.693 586.922 592.855 590.716 597.611 595.954C603.274 602.065 605.592 611.996 606.879 619.892C607.867 625.706 607.953 631.634 607.136 637.473C606.366 643.334 603.791 648.413 602.504 654.273C601.473 659.622 604.561 664.209 606.622 668.791C608.537 672.135 609.597 675.89 609.71 679.731C609.761 681.988 609.355 684.233 608.516 686.333C607.676 688.432 606.42 690.344 604.822 691.956C601.057 694.541 596.522 695.796 591.949 695.519C586.815 695.777 581.398 697.558 576.248 696.793C569.299 695.519 565.95 690.17 562.349 684.826C560.288 681.766 557.456 678.965 555.656 675.91C550.522 667.76 541.499 663.177 533.519 658.083C523.995 651.972 520.133 645.35 518.589 633.633C517.95 627.901 518.475 622.1 520.133 616.571C523.738 602.819 531.462 595.685 544.331 589.574C555.128 583.572 567.854 581.938 579.842 585.015Z" fill="#FFD340"/>
<path d="M601.193 687.392C602.506 686.163 603.514 684.65 604.14 682.971C604.765 681.292 604.99 679.494 604.798 677.715C603.767 674.152 599.392 674.406 596.561 674.406C593.986 674.406 584.462 673.386 582.918 675.187C576.481 681.552 585.493 691.229 592.442 692.249C594.157 692.066 595.816 691.541 597.32 690.707C598.824 689.872 600.141 688.745 601.193 687.392Z" fill="black"/>
<path d="M556.663 603.096C555.312 602.324 553.829 601.806 552.288 601.569C543.02 599.783 533.752 598.002 524.228 596.49C521.354 595.678 518.298 595.767 515.477 596.744C512.849 598.555 511.014 601.287 510.344 604.386C505.861 616.992 502.418 629.938 500.05 643.096C499.587 644.372 499.462 645.745 499.687 647.083C499.912 648.42 500.48 649.679 501.337 650.738C503.911 652.773 507.769 650.992 510.601 649.21C523.987 639.529 534.293 626.288 544.56 613.555C545.946 611.288 548.018 609.511 550.483 608.476C553.058 607.456 556.145 610.258 557.95 609.238C560.525 607.679 558.463 604.116 556.663 603.096Z" fill="#FDB849"/>
<path d="M571.85 653.011C571.845 652.123 571.633 651.247 571.231 650.452C570.829 649.657 570.248 648.965 569.532 648.429C568.201 647.245 566.618 646.374 564.9 645.881C559.899 644.548 555.064 642.669 550.483 640.279C551.273 641.552 551 643.08 551.77 644.354C552.433 646.09 553.598 647.595 555.119 648.682C556.105 649.138 557.141 649.48 558.207 649.702C560.781 650.464 570.045 651.23 571.85 653.011ZM593.469 652.25C593.986 650.464 593.986 648.936 595.53 647.663C597.074 646.389 599.132 645.373 600.664 644.1C602.259 643.028 603.509 641.526 604.265 639.771C604.436 641.133 604.349 642.515 604.008 643.846C603.856 645.194 603.417 646.494 602.721 647.663C601.813 648.629 600.657 649.334 599.376 649.702C597.243 650.113 595.226 650.983 593.469 652.25Z" fill="black"/>
<path d="M601.449 678.735C598.362 678.735 595.013 678.989 591.925 679.243C591.011 679.265 590.12 679.535 589.35 680.024C588.714 680.47 588.243 681.11 588.01 681.846C587.778 682.583 587.796 683.374 588.063 684.099C588.517 685.598 589.414 686.929 590.638 687.92C590.195 687.103 590.033 686.166 590.175 685.25C590.317 684.334 590.757 683.488 591.427 682.841C592.771 681.731 594.356 680.946 596.059 680.548C597.844 680.009 599.649 679.243 601.449 678.735Z" fill="white"/>
<path d="M562.072 683.829C559.171 677.656 554.634 672.376 548.943 668.549C544.054 664.982 538.131 662.947 532.986 659.888C527.537 657.099 523.254 652.501 520.887 646.901C520.944 651.659 522.276 656.318 524.749 660.399C526.703 662.668 529.058 664.566 531.699 666.002C541.989 672.112 555.119 674.66 562.072 683.829Z" fill="#FDB849"/>
<path d="M6.0885 703.95H5.57517C4.28787 703.95 2.22663 703.169 1.19995 699.364C-0.308175 693.093 -0.395827 686.57 0.943282 680.262C9.25529 622.832 22.6928 566.242 41.0981 511.158L44.9561 512.432C26.4634 567.318 13.0237 623.747 4.80121 681.028C3.51228 686.819 3.51228 692.818 4.80121 698.609C5.05788 699.883 5.59096 700.391 5.83183 700.391C6.07271 700.391 6.08851 700.391 6.86246 699.883C12.2524 695.371 16.2633 689.461 18.4441 682.818C41.8681 629.081 60.6602 572.544 78.935 517.788L82.7969 519.062C64.5182 573.818 45.9867 630.355 22.306 684.326C18.9614 691.714 15.5931 698.844 9.17643 703.173C8.39457 703.185 7.36395 703.95 6.0885 703.95ZM102.091 687.65H101.573C99.5159 687.139 98.9986 684.849 98.4853 682.81C97.7121 676.551 97.7121 670.222 98.4853 663.963C102.604 606.663 109.81 549.88 119.335 494.858L123.197 495.64C113.672 550.392 106.722 607.187 102.604 664.236C101.958 670.161 101.958 676.138 102.604 682.064C105.151 677.013 106.883 671.599 107.737 666.018C119.832 612.282 129.613 555.74 138.881 500.984L142.743 501.766C133.475 556.522 123.694 613.059 111.595 667.053C110.638 673.708 108.365 680.111 104.906 685.896C104.412 686.377 103.374 687.65 102.091 687.65ZM227.957 710.827C227.364 710.791 226.785 710.637 226.255 710.374C225.724 710.11 225.252 709.743 224.869 709.295C219.98 704.966 217.406 697.836 215.088 690.452C197.319 636.712 183.17 579.92 169.527 525.164L173.389 524.145C187.032 578.901 201.188 635.442 218.693 689.178C221.007 696.054 223.325 702.677 227.444 706.24L227.7 706.494C227.957 706.24 227.957 705.712 228.218 705.22C229.25 699.404 229.25 693.455 228.218 687.639C222.132 630.818 212.069 574.484 198.1 519.042L201.962 518.022C215.932 573.636 225.993 630.139 232.075 687.127C233.108 693.368 233.108 699.733 232.075 705.974C231.286 709.541 229.505 710.303 228.474 710.557C228.474 710.827 228.218 710.827 227.957 710.827Z" fill="black"/>
<path d="M265.798 512.182C263.223 524.149 213.544 549.618 206.081 554.455C198.851 558.622 190.739 561.064 182.388 561.589C143.517 566.668 92.5543 562.097 53.9434 556.24C24.8569 551.911 16.3632 541.976 14.061 526.442C10.4558 503.52 21.5242 480.09 35.4238 470.412C49.3234 460.735 65.2842 461.501 80.4711 462.516C118.565 465.064 156.919 467.357 195.016 469.904C201.449 470.412 243.148 454.113 249.071 457.68C262.449 466.333 269.916 492.819 265.798 512.182Z" fill="#008C6E"/>
<path d="M264.254 481.36C253.955 488.744 243.661 496.386 232.849 503.516C227.444 507.083 221.793 510.392 216.375 513.705C210.99 516.547 206.863 521.265 204.794 526.946C204.276 528.731 202.219 528.474 201.188 527.458C192.238 531.257 182.925 534.157 173.389 536.116C173.389 537.643 172.102 538.917 170.558 537.897C158.976 529.747 146.865 520.835 132.204 519.562C125.733 519.429 119.265 519.941 112.898 521.089C109.572 521.597 106.187 521.597 102.861 521.089C99.52 520.342 96.2483 519.32 93.0795 518.034C81.3785 513.152 68.9392 510.226 56.2692 509.376C43.4003 508.865 26.9261 510.392 14.3138 505.044C12.9824 512.016 12.809 519.156 13.8004 526.184C16.375 541.718 24.8569 551.65 53.6828 555.982C92.2897 561.843 143.256 566.422 182.124 561.327C190.474 560.807 198.587 558.365 205.816 554.197C213.283 549.36 262.963 523.891 265.537 511.92C267.669 501.785 267.228 491.285 264.254 481.36Z" fill="#14D29B"/>
<path d="M352.789 269.212C341.203 275.073 324.99 273.033 312.117 270.998C287.149 266.665 269.648 255.971 246.994 256.733C239.531 256.987 230.776 257.515 225.374 252.15C222.968 249.577 220.97 246.656 219.451 243.489C215.838 237.28 211.13 231.761 205.552 227.193C191.652 235.343 175.936 245.02 168.228 259.027C179.04 274.307 188.051 281.949 201.95 294.428C204.509 296.978 207.577 298.974 210.958 300.288C214.151 301.099 217.477 301.272 220.739 300.796C241.845 299.014 262.955 297.233 284.314 295.717C295.639 294.935 306.707 294.443 318.032 293.931C330.131 293.423 341.456 292.658 353.298 295.971C355.562 296.64 357.892 297.067 360.248 297.244C361.999 297.149 363.728 296.805 365.381 296.225L387.001 290.114C388.288 289.856 389.832 288.841 389.319 287.567C389.062 287.055 388.529 286.786 388.288 286.547C381.595 283.492 373.101 287.055 366.408 284.254C370.527 281.964 375.162 280.179 379.538 277.889C382.826 275.87 386.512 274.568 390.349 274.068C397.042 273.815 403.475 278.905 409.655 276.616C407.593 274.83 406.05 272.287 403.992 270.755C403.034 269.796 401.851 269.085 400.548 268.685C399.246 268.286 397.864 268.211 396.525 268.466C399.366 268.076 402.257 268.612 404.762 269.994C406.025 270.637 407.409 271.015 408.827 271.102C410.245 271.19 411.666 270.985 412.999 270.501C410.362 266.396 406.355 263.333 401.674 261.844C399.547 261.506 397.386 261.42 395.238 261.59C391.637 261.844 388.031 262.098 384.687 262.352C386.438 261.4 388.243 260.55 390.093 259.804C391.088 259.431 392.125 259.175 393.181 259.042C395.171 259.247 397.098 259.854 398.843 260.824C400.557 261.954 402.482 262.734 404.506 263.117C405.522 263.262 406.558 263.096 407.476 262.64C408.394 262.185 409.149 261.462 409.639 260.57C407.321 259.042 405.26 257.003 402.926 255.491C403.716 255.491 404.213 254.71 404.47 253.963C400.351 253.709 396.746 250.654 392.624 250.654C389.801 250.877 387.069 251.749 384.647 253.201C373.65 259.011 363.352 263.864 352.789 269.212Z" fill="#DD4040"/>
<path d="M153.053 192.812C146.103 187.205 138.64 179.821 136.322 171.163C134.004 162.506 136.322 149.261 136.579 140.345C126.798 141.873 113.416 143.401 105.948 137.036C100.803 161.728 78.4059 179.309 67.0809 201.97C76.6053 202.481 86.1297 207.318 94.6235 211.393C103.117 215.722 112.898 219.289 122.166 217.254C128.879 215.726 138.127 212.925 142.502 207.576C146.617 203.101 150.161 198.142 153.053 192.812Z" fill="#F7846C"/>
<path d="M111.611 158.938C114.994 162.383 119.016 165.15 123.457 167.088C125.572 167.848 127.873 167.938 130.042 167.344C132.21 166.75 134.137 165.503 135.556 163.775C135.3 156.137 136.583 146.975 136.844 140.334C127.062 141.861 113.676 143.389 106.213 137.024C105.316 141.047 104.022 144.972 102.351 148.745C104.938 152.557 108.055 155.989 111.611 158.938Z" fill="black"/>
<path d="M260.905 417.434C267.085 417.692 282.529 426.096 287.934 428.897C295.398 432.972 302.865 438.321 306.209 446.213C311.615 458.695 304.922 472.448 301.577 485.673C296.685 505.794 300.29 526.676 297.198 547.051C293.854 568.445 287.678 589.328 284.073 610.465C282.529 619.634 280.728 629.82 285.36 638.228C290.023 646.148 295.932 653.283 302.865 659.364C311.098 667.006 318.822 669.55 329.633 672.863C333.967 673.775 337.863 676.108 340.69 679.485C342.747 682.794 339.402 686.615 335.284 687.889C322.928 692.472 309.285 690.178 296.673 686.361C284.061 682.544 271.962 677.191 259.093 675.664C255.989 675.528 252.936 674.837 250.082 673.624C243.132 670.061 242.105 660.384 244.419 653.25C246.994 645.358 251.63 638.481 253.43 630.332C254.882 623.039 255.316 615.584 254.718 608.175C253.156 593.381 250.836 578.674 247.768 564.113C245.706 551.634 243.393 537.881 248.538 526.422C251.511 519.429 253.837 512.183 255.488 504.774C256.749 501.281 256.564 497.436 254.974 494.077C251.112 488.216 242.105 490.514 235.925 487.2C235.681 468.881 251.381 417.18 260.905 417.434Z" fill="#DD4040"/>
<path d="M344.82 681.028C342.041 677.272 338.043 674.575 333.495 673.386C322.166 669.823 313.416 668.037 304.922 660.145C297.644 653.83 291.394 646.442 286.39 638.243C281.498 629.581 283.299 619.142 284.846 609.464C286.129 602.075 287.672 594.688 289.478 587.304C284.715 590.13 279.613 592.355 274.291 593.926C268.515 595.626 262.389 595.802 256.522 594.438C255.004 593.998 253.537 593.4 252.147 592.653C252.915 597.377 253.43 602.139 253.691 606.917C254.296 614.579 253.863 622.287 252.404 629.835C250.603 638.243 245.454 645.373 242.879 653.523C240.305 661.161 241.592 671.104 248.802 674.66C251.805 675.965 255.043 676.659 258.323 676.699C271.966 678.481 285.095 683.829 298.205 687.904C311.315 691.979 326.004 694.269 339.134 689.432C343.276 688.412 346.866 684.591 344.82 681.028Z" fill="#643CFF"/>
<path d="M253.699 613.028C258.591 618.376 266.311 617.356 272.748 614.555C277.001 612.666 281.054 610.363 284.846 607.679C286.13 600.803 287.678 594.18 289.222 587.304C284.459 590.13 279.357 592.355 274.035 593.926C268.258 595.626 262.133 595.802 256.265 594.438C254.747 593.998 253.281 593.4 251.89 592.653C252.658 597.377 253.174 602.139 253.434 606.917C253.65 608.947 253.739 610.987 253.699 613.028ZM344.82 681.028C342.598 677.878 339.453 675.478 335.809 674.152C335.007 676.232 333.679 678.074 331.951 679.5C328.161 682.287 323.884 684.359 319.335 685.611C315.666 686.785 312.196 688.497 309.041 690.69C318.903 693.036 329.225 692.684 338.901 689.67C343.276 688.412 346.866 684.591 344.82 681.028ZM260.388 663.709C257.377 656.746 251.879 651.125 244.944 647.921C244.155 649.702 243.4 651.738 242.626 653.523C240.052 661.161 241.339 671.104 248.55 674.66C251.554 675.965 254.793 676.659 258.074 676.699C259.875 676.953 261.423 677.207 263.207 677.461C263.115 672.746 262.16 668.086 260.388 663.709Z" fill="black"/>
<path d="M157.432 395.79C195.814 400.53 233.825 407.848 271.204 417.692C257.891 443.688 249.68 471.946 247.006 500.969C209.425 498.933 171.585 494.092 134.265 492.057C124.741 491.549 114.186 490.529 107.236 483.907C102.983 479.448 100.356 473.711 99.7726 467.607C97.4547 451.053 105.178 434.5 116.503 422.021C127.572 409.542 143.015 404.701 157.432 395.79Z" fill="#FDB849"/>
<path d="M227.7 237.132C203.25 230.49 185.757 210.381 167.47 193.066C163.28 188.795 158.517 185.114 153.314 182.126C151.252 181.107 140.697 178.813 139.671 177.286C147.391 192.058 151.517 196.641 139.671 199.442C137.902 199.865 136.082 200.037 134.265 199.954C124.289 199.694 114.582 196.695 106.229 191.292C98.7617 186.455 90.7813 176.266 81.0003 176.266C59.6375 193.331 39.8188 211.667 26.6892 235.609C21.1655 245.75 16.9293 256.527 14.0769 267.696C-1.11004 322.452 5.58309 383.342 13.5635 440.114C14.0769 443.169 24.3712 452.847 29.2637 448.518C73.7741 408.776 123.453 369.3 184.967 374.141C187.028 337.213 191.403 322.44 189.859 285.512C206.594 272.525 212.513 251.385 227.7 237.132Z" fill="#643CFF"/>
<path d="M182.4 258.007C180.354 249.868 178.036 241.799 175.45 233.811C173.514 227.648 171.193 221.609 168.501 215.73C166.953 215.73 165.409 215.476 163.865 215.476C166.907 222.893 169.57 230.455 171.845 238.136C178.795 263.094 184.971 288.052 190.12 313.263C190.377 306.899 190.637 300.276 190.377 292.38C187.802 280.929 185.231 269.466 182.4 258.007Z" fill="black"/>
<path d="M181.113 51.2083C185.302 65.7278 187.722 80.6909 188.319 95.7788C188.833 109.277 189.109 126.593 181.883 138.564C176.886 146.067 169.288 151.501 160.52 153.844C148.65 156.903 136.221 157.171 124.227 154.625C115.603 153.328 107.6 149.411 101.325 143.416C95.1487 137.052 92.3174 128.39 89.2256 120.244C85.158 109.826 81.9723 99.0922 79.7012 88.1524C76.8699 73.1263 75.0693 52.7516 82.793 38.9991C86.4303 32.7375 91.3561 27.3016 97.2517 23.0433C103.147 18.7851 109.881 15.7995 117.017 14.2798C125.709 12.7363 134.644 13.197 143.126 15.6263C151.609 18.0555 159.411 22.3878 165.926 28.2862C173.334 34.125 178.656 42.1583 181.113 51.2083Z" fill="#F7846C"/>
<path d="M145.333 40.0032C140.578 40.2124 135.816 39.784 131.177 38.7295C123.768 36.779 116.178 35.5837 108.523 35.1625C87.417 35.6743 89.4743 70.0555 89.2176 73.6225C88.191 83.8079 90.2482 93.9933 91.0222 104.183C87.4847 101.818 83.7909 99.6902 79.9657 97.8143C76.6172 86.0935 73.7859 52.4937 81.5097 38.4756C86.0534 30.7112 92.4717 24.1826 100.19 19.4737C107.909 14.7649 116.687 12.0229 125.739 11.4929C134.791 10.963 143.835 12.6618 152.061 16.4372C160.287 20.2126 167.438 25.9469 172.876 33.127C167.182 36.1362 160.993 38.1206 154.597 38.9874C151.543 39.5782 148.444 39.918 145.333 40.0032Z" fill="black"/>
<path d="M77.3792 92.4656C75.7407 91.6246 73.914 91.2069 72.0688 91.2513C70.2235 91.2956 68.4194 91.8007 66.8242 92.7195C65.5264 93.9629 64.6305 95.5591 64.2496 97.3063C63.8404 100.037 63.9943 102.821 64.7021 105.49C65.41 108.16 66.6571 110.66 68.3682 112.84C74.0178 120.824 82.4598 126.451 92.0607 128.632C93.2574 129.045 94.5367 129.168 95.7913 128.99C97.0459 128.813 98.2392 128.34 99.2711 127.612C100.301 126.504 100.855 125.043 100.815 123.538C101.023 119.216 99.8515 114.939 97.4665 111.313C93.4675 102.71 86.2741 95.9604 77.3792 92.4656Z" fill="#F7846C"/>
<path d="M93.3559 119.971C88.724 104.944 80.2302 101.381 71.7365 97.3103C77.1505 101.553 81.8431 106.626 85.6361 112.336C82.5166 111.403 79.1757 111.492 76.1117 112.59C82.1311 114.378 87.9185 116.856 93.3559 119.975" fill="#DD4040"/>
<path d="M145.59 132.196C140.41 132.307 135.256 131.443 130.403 129.648L131.434 126.847C141.69 130.392 152.925 129.936 162.854 125.573L164.141 128.378C158.325 131.011 151.985 132.316 145.59 132.196Z" fill="black"/>
<path d="M148.678 112.078C148.201 101.41 147.084 90.7785 145.333 80.2407C152.046 91.1802 154.34 100.615 162.834 106.476C157.996 108.033 153.267 109.905 148.678 112.078Z" fill="#DD4040"/>
<path d="M108.01 88.9026C112.128 80.2409 118.047 75.1501 124.484 74.6383C127.924 74.4729 131.324 75.4301 134.16 77.3628C136.997 79.2955 139.113 82.0967 140.184 85.3355C136.165 89.2374 130.871 91.5926 125.254 91.9773C119.319 92.9988 113.211 91.9096 108.01 88.9026ZM154.084 85.8434C158.202 77.1856 164.121 72.091 170.558 71.5831C176.734 70.8017 182.913 74.6383 186.258 82.2803C182.24 86.1816 176.948 88.5367 171.332 88.9221C165.397 89.794 159.337 88.7123 154.084 85.8434Z" fill="white"/>
<path d="M126.525 75.4041C126.789 81.0159 126.005 86.6276 124.211 91.9579H125.238C130.832 91.4847 136.098 89.1424 140.168 85.316C139.087 82.5483 137.228 80.1445 134.81 78.3882C132.393 76.632 129.518 75.5965 126.525 75.4041ZM172.876 72.3489C173.049 77.9762 172.176 83.5872 170.301 88.9026H171.332C176.925 88.4289 182.189 86.0867 186.258 82.2608C185.306 79.4614 183.516 77.0146 181.126 75.2444C178.736 73.4743 175.859 72.4645 172.876 72.3489Z" fill="black"/>
<path d="M124.997 79.2251C126.632 78.7896 128.338 78.6779 130.016 78.8965C131.695 79.1151 133.313 79.6596 134.778 80.4988C136.346 81.4561 137.814 82.5645 139.161 83.808C138.042 80.8658 135.972 78.3718 133.273 76.7136C130.574 75.0554 127.397 74.3258 124.235 74.6383C118.055 75.4197 111.879 80.2409 107.761 88.9026C112.663 84.3882 118.566 81.0737 124.997 79.2251ZM169.784 77.4396C172.954 76.846 176.222 77.0217 179.308 77.9514C181.625 78.6934 183.8 79.8117 185.745 81.2606C184.584 78.1697 182.466 75.5211 179.692 73.6938C176.918 71.8664 173.631 70.954 170.301 71.0869C166.574 72.0084 163.128 73.8103 160.259 76.3382C157.39 78.8661 155.183 82.0446 153.827 85.6013C158.242 81.4192 163.782 78.5855 169.784 77.4396Z" fill="#DD4040"/>
<path d="M144.295 65.7266C137.288 63.9411 129.939 63.9411 122.932 65.7266C116.224 67.5108 110.16 71.1288 105.435 76.166C113.31 75.231 121.275 75.3177 129.128 76.4239C131.711 76.7625 134.337 76.5885 136.851 75.9121C139.149 75.4323 141.184 74.1236 142.56 72.2408C143.936 70.3579 144.554 68.0358 144.295 65.7266ZM183.427 65.7266C181.951 63.0222 179.452 61.0073 176.477 60.1241C173.572 59.1853 170.524 58.7543 167.47 58.8504C164.112 58.6509 160.755 59.2623 157.689 60.632C157.689 61.9056 156.658 63.6872 156.658 64.7069C156.557 65.919 156.733 67.138 157.172 68.274C157.767 68.9876 158.514 69.5627 159.36 69.9584C160.205 70.3541 161.129 70.5607 162.064 70.5634C166.251 69.9674 170.328 68.7669 174.163 67.0003C177.122 65.9208 180.282 65.4863 183.427 65.7266Z" fill="black"/>
<path d="M248.542 559.037C248.037 557.899 247.118 556.989 245.967 556.49L237.485 550.376C229.001 543.47 221.548 535.411 215.349 526.438C210.46 519.054 202.48 507.845 201.966 498.933C201.177 486.708 205.311 472.956 207.889 461.239C210.721 448.76 214.065 436.281 216.383 423.802C218.308 412.276 219.084 400.59 218.701 388.913C218.096 375.943 219.047 362.948 221.532 350.199C224.877 337.213 231.313 323.206 226.164 310.739C222.82 302.843 215.353 297.748 207.889 293.42C202.623 290.046 196.625 287.951 190.385 287.305C180.86 287.051 172.366 292.654 164.903 298.514C147.532 311.531 131.181 325.829 115.99 341.288C115.645 345.779 115.558 350.285 115.73 354.786C117.438 385.267 129.391 414.309 149.689 437.301C156.639 422.275 162.814 406.483 168.481 390.949C163.348 402.408 165.646 416.164 167.691 428.643C170.009 442.138 173.097 455.636 174.404 469.389C175.219 476.333 175.133 483.352 174.147 490.275C173.117 497.913 167.711 505.301 164.366 512.431C162.759 515.288 161.628 518.384 161.018 521.597C160.38 525.125 160.976 528.763 162.708 531.911C164.439 535.059 167.202 537.53 170.542 538.917C174.917 540.956 180.067 540.698 184.698 542.484C190.26 545.049 195.248 548.685 199.372 553.181C208.636 561.585 221.765 571.262 234.891 571.516H235.152C237.773 571.572 240.355 570.881 242.591 569.526C244.827 568.171 246.622 566.21 247.764 563.874C248.61 562.409 248.886 560.69 248.542 559.037Z" fill="#F7846C"/>
<path d="M250.611 560.311C249.941 559.141 248.963 558.173 247.78 557.51C244.757 555.531 241.835 553.406 239.025 551.142C230.285 543.982 222.579 535.67 216.123 526.438C210.989 518.796 202.736 507.337 202.223 498.167C201.433 485.688 205.568 471.428 208.399 459.457L209.189 456.402C207.448 457.678 205.644 458.867 203.783 459.965C200.65 462.268 197.005 463.795 193.153 464.415C189.301 465.036 185.355 464.733 181.646 463.532C178.338 462.307 175.284 460.494 172.635 458.183C173.152 461.497 173.425 464.552 173.922 467.861C174.739 474.975 174.653 482.162 173.666 489.255C172.378 497.151 166.953 504.789 163.371 511.916C161.686 514.854 160.47 518.033 159.766 521.339C159.173 524.963 159.812 528.678 161.582 531.904C163.352 535.13 166.153 537.685 169.547 539.167C174.183 541.206 179.585 540.952 184.221 542.734C189.985 545.315 195.154 549.038 199.408 553.673C209.189 562.331 222.575 572.262 236.214 572.774H236.474C239.197 572.84 241.881 572.131 244.208 570.731C246.535 569.332 248.406 567.3 249.6 564.878C250.118 564.248 250.478 563.507 250.654 562.714C250.83 561.92 250.815 561.098 250.611 560.311Z" fill="#9778FF"/>
<path d="M174.163 474.991C182.657 482.125 194.239 480.598 204.537 475.503C205.819 469.9 207.105 464.552 208.395 459.457L209.185 456.402C207.444 457.678 205.64 458.867 203.779 459.965C200.646 462.268 197.001 463.795 193.149 464.415C189.297 465.036 185.351 464.733 181.642 463.532C178.334 462.307 175.28 460.494 172.631 458.183C173.148 461.497 173.421 464.552 173.918 467.861C173.91 470.154 174.163 472.721 174.163 474.991ZM176.994 523.383C173.887 517.975 169.461 513.422 164.121 510.138L163.332 511.666C161.646 514.604 160.429 517.783 159.726 521.089C159.134 524.713 159.772 528.428 161.542 531.654C163.312 534.88 166.113 537.434 169.508 538.917C173.007 540.152 176.632 541.006 180.319 541.464C181.102 538.39 181.21 535.186 180.636 532.067C180.063 528.948 178.821 525.987 176.994 523.383ZM247.78 557.502C246.99 556.99 246.492 556.482 245.718 555.974C241.528 558.45 237.138 560.578 232.593 562.339C229.626 563.395 226.91 565.043 224.612 567.18C223.94 567.792 223.336 568.474 222.812 569.215C227.142 571.06 231.753 572.18 236.455 572.528H236.695C239.418 572.594 242.102 571.885 244.429 570.485C246.756 569.086 248.628 567.054 249.821 564.632C250.266 563.963 250.566 563.21 250.702 562.421C250.838 561.631 250.807 560.822 250.611 560.045C249.857 559.012 248.892 558.145 247.78 557.502Z" fill="#643CFF"/>
<path d="M169.784 384.838C171.243 380.315 171.596 375.513 170.815 370.828C170.558 366.753 169.527 362.936 169.527 358.861C169.271 344.089 184.201 334.411 194.752 326.769C201.694 322.486 209.739 320.276 217.919 320.405C221.298 320.237 224.683 320.579 227.957 321.421C228.046 317.673 227.345 313.947 225.9 310.481C222.555 302.589 215.088 297.495 207.625 293.166C202.359 289.79 196.361 287.695 190.12 287.051C180.596 286.797 172.102 292.4 164.639 298.256C147.268 311.274 130.919 325.574 115.729 341.034C115.386 345.525 115.299 350.031 115.469 354.532C117.181 385.016 129.141 414.059 149.448 437.047C155.88 423.294 161.543 409.03 166.692 395.024C167.727 392.238 169.014 387.64 169.784 384.838Z" fill="#DD4040"/>
<path d="M165.926 421.001C144.303 396.805 134.522 358.099 139.671 326.262C140.397 319.273 142.971 312.597 147.134 306.906C99.0304 345.932 57.198 391.962 23.0681 443.419C19.4629 449.022 30.0179 466.595 33.1058 470.924C39.1903 479.374 47.2194 486.271 56.5298 491.045C69.5336 497.072 83.9345 499.535 98.2286 498.175C110.075 497.394 127.054 496.901 136.579 489.263C140.544 485.46 143.772 480.972 146.103 476.019C155.628 457.676 162.854 441.376 165.926 421.001Z" fill="#FFD340"/>
<path d="M145.333 177.02C142.58 175.07 140.289 172.551 138.62 169.636C137.333 177.02 142.482 183.896 143.754 191.538C144.012 192.28 144.012 193.086 143.754 193.828C143.251 195.214 142.294 196.394 141.034 197.179C139.774 197.963 138.285 198.308 136.804 198.157C132.512 197.902 128.353 196.59 124.705 194.339C117.008 190.321 109.533 185.9 102.312 181.095C95.6989 175.769 88.0892 171.786 79.9183 169.374C78.8877 172.687 77.857 175.742 77.087 179.052C85.1789 181.404 92.6478 185.491 98.9631 191.022C105.131 196.434 111.964 201.054 119.299 204.775C122.957 206.636 127.002 207.629 131.115 207.673C135.228 207.717 139.294 206.812 142.992 205.029C145.863 203.601 148.074 201.141 149.171 198.153C150.243 194.569 150.151 190.743 148.911 187.213C147.908 183.642 146.364 180.587 145.333 177.02ZM91.7764 342.049C95.9776 340.7 99.8682 338.542 103.225 335.702C106.582 332.861 109.339 329.393 111.338 325.496C118.545 311.997 129.613 275.073 133.475 267.673C137.337 260.543 118.806 278.116 104.132 296.975C88.9609 316.072 85.6163 331.61 91.7764 342.049Z" fill="black"/>
<path d="M120.109 296.975C122.94 291.896 125.511 286.786 128.346 281.949C131.358 276.349 133.525 270.343 134.778 264.122C131.254 258.218 126.725 252.961 121.392 248.584C107.492 256.734 91.7764 266.411 84.0724 280.417C92.8228 292.642 100.803 305.887 110.584 314.799C111.539 312.433 112.656 310.136 113.929 307.922C115.203 305.407 116.577 302.942 118.047 300.534C118.578 299.265 119.27 298.069 120.109 296.975ZM163.865 33.381C162.064 33.6349 144.046 33.8928 144.046 33.8928C134.265 32.8731 124.484 30.3257 114.96 29.306C109.283 28.1041 103.361 28.9159 98.2287 31.5994C95.6847 33.5507 93.6378 36.0643 92.252 38.9388C90.8662 41.8134 90.18 44.969 90.2482 48.1532C89.4585 61.6517 95.3816 74.3844 99.2593 87.6133L98.4695 92.1962C96.6701 97.2363 95.3766 102.439 94.6076 107.73C94.4097 111.383 95.0244 115.035 96.4083 118.427C96.1516 118.681 96.1516 119.209 95.8949 119.447C92.2897 128.617 92.807 140.076 100.013 146.698C96.1516 140.33 97.4389 132.692 100.27 125.816C102.845 129.379 105.676 132.692 108.507 136.001C105.698 132.342 103.12 128.515 100.787 124.542C103.358 118.174 106.963 111.805 107.477 104.929C107.721 97.946 106.405 90.9958 103.623 84.5737C105.167 74.1305 101.048 63.1793 102.335 52.736C102.453 50.8636 102.98 49.0387 103.879 47.3874C105.775 44.4714 108.719 42.3766 112.116 41.527C120.105 39.5668 128.359 38.8796 136.567 39.4914C140.624 39.5413 144.676 39.1998 148.666 38.4717C154.19 38.6653 159.595 36.8548 163.865 33.381ZM100.803 106.476C99.8706 109.71 98.6646 112.861 97.198 115.896C96.6681 113.469 96.4033 110.994 96.4083 108.512C97.0277 103.657 98.4177 98.9305 100.527 94.5052C101.387 98.4418 101.481 102.505 100.803 106.476ZM99.7726 46.8639C96.6847 53.7401 97.7114 61.636 98.742 69.0202C97.723 65.1649 96.9488 61.2503 96.4241 57.2993C95.4792 52.5808 95.568 47.7167 96.6847 43.035C97.222 40.7045 98.3221 38.5375 99.8907 36.7194C101.459 34.9014 103.45 33.4864 105.692 32.5957C109.596 31.6589 113.679 31.7465 117.538 32.8496C119.339 33.1036 121.396 33.631 123.201 33.8693C113.672 34.1467 103.623 38.4756 99.7726 46.8639Z" fill="black"/>
<path d="M79.9538 750.298L64.2496 748.263C81.7544 623.979 103.117 498.933 127.315 376.435L142.759 379.49C118.445 502.509 97.502 626.157 79.9538 750.298ZM249.331 781.37L233.888 778.569C242.895 730.943 249.588 681.79 256.791 629.581C266.315 559.545 276.096 486.978 292.057 418.708L307.5 422.275C291.8 490.017 282.015 562.093 272.495 631.875C265.024 683.829 258.331 733.491 249.331 781.37Z" fill="#008C6E"/>
<path d="M658.592 320.147L321.653 434.753L83.2985 370.828V346.636L658.592 295.955V320.147Z" fill="#14D29B"/>
<path d="M436.968 260.554L83.2985 346.636L321.653 410.558L658.592 295.955L436.968 260.554Z" fill="#008C6E"/>
<path d="M241.6 322.186L305.953 335.431L401.449 310.215V301.304H341.472L241.6 318.365V322.186Z" fill="#FFD340"/>
<path d="M241.6 318.365L305.435 329.063L305.953 335.431L241.6 322.186V318.365Z" fill="black"/>
<path d="M351.253 366.753C351.561 363.664 351.033 360.55 349.721 357.73C348.409 354.911 346.362 352.488 343.79 350.711C338.652 347.12 332.57 345.084 326.285 344.851C321.024 344.339 315.718 345.127 310.841 347.144C308.448 348.233 306.369 349.9 304.798 351.992C303.227 354.084 302.213 356.533 301.85 359.115C301.06 366.245 312.144 370.32 317.55 371.848C328.603 375.161 342.246 375.161 351.253 366.753Z" fill="#FDB849"/>
<path d="M348.165 361.408C348.946 359.587 349.168 357.578 348.802 355.632C348.436 353.686 347.499 351.891 346.107 350.469C344.927 349.551 343.488 349.016 341.989 348.938C338.607 349.37 335.497 350.999 333.234 353.524C338.64 355.294 345.077 357.334 348.165 361.408Z" fill="black"/>
<path d="M326.028 290.607C323.89 289.432 321.518 288.736 319.078 288.567C318.936 288.587 318.791 288.575 318.654 288.531C318.517 288.487 318.392 288.412 318.289 288.313C316.191 286.018 313.761 284.043 311.078 282.453C310.021 281.61 308.793 281.002 307.477 280.671C306.029 280.457 304.565 280.371 303.102 280.413C298.789 280.588 294.491 281.014 290.229 281.687C288.868 281.433 287.471 281.433 286.11 281.687C279.421 282.468 274.264 287.29 268.609 290.349C257.024 296.209 240.81 294.166 227.937 292.13C202.989 287.805 185.488 277.108 162.854 277.874C155.391 278.128 146.64 278.636 141.235 273.287C138.826 270.716 136.829 267.797 135.311 264.629C131.693 258.417 126.978 252.897 121.392 248.33C107.492 256.479 91.7764 266.157 84.0724 280.163C94.8801 295.443 110.584 306.395 124.484 318.877C127.043 321.428 130.11 323.424 133.491 324.738C136.685 325.547 140.01 325.719 143.272 325.246C183.684 321.937 205.307 314.806 254.986 313.275C262.967 313.021 272.756 315.06 279.18 309.2C281.7 306.347 284.762 304.01 288.191 302.324C291.781 301.226 295.61 301.138 299.248 302.07C303.722 303.129 308.364 303.302 312.906 302.578C314.707 302.066 316.251 301.796 317.025 300.284C317.217 299.901 317.478 299.555 317.795 299.264C317.899 299.166 318.024 299.092 318.16 299.048C318.297 299.004 318.442 298.991 318.585 299.011H318.83C321.404 297.737 323.205 295.701 321.917 294.428C323.714 294.174 328.089 292.134 326.028 290.607Z" fill="#F7846C"/>
<path d="M49.0627 217.258C50.6282 213.016 53.026 209.122 56.1183 205.8C59.2106 202.478 62.9362 199.794 67.0809 197.903C81.2411 192.042 94.1101 197.903 103.634 209.108C110.584 217.258 116.247 226.689 122.94 235.085C124.484 236.871 142.502 255.714 143.015 254.952C134.208 271.462 123.776 287.073 111.872 301.558C102.091 312.763 89.2176 326.262 92.0488 342.581C87.1603 336.466 82.5244 330.86 79.6932 327.301C75.0613 321.44 70.6861 315.58 66.8242 309.72C55.4992 292.92 46.2315 273.299 44.6875 252.924C43.0461 240.861 44.5523 228.582 49.0627 217.258Z" fill="#9778FF"/>
<path d="M522.94 313.783C535.039 306.652 551.257 296.717 562.582 289.079C536.724 277.131 510.263 266.506 483.303 257.245C468.317 265.362 453.794 274.288 439.799 283.984C470.173 292.9 493.854 303.851 522.94 313.783Z" fill="white"/>
<path d="M503.896 299.776C509.819 302.32 515.742 304.855 521.396 307.668C525.772 304.359 530.151 301.304 534.526 298.245C538.388 295.701 542.246 293.166 546.372 290.861C541.74 288.567 536.848 286.278 531.959 283.984C531.203 283.803 530.498 283.455 529.898 282.965C521.191 288.508 512.523 294.112 503.896 299.776Z" fill="#008C6E"/>
<path d="M501.834 277.108C497.972 279.655 493.854 281.949 490.253 284.492C487.145 286.557 484.137 288.767 481.242 291.114C483.816 292.134 486.647 293.154 489.222 294.17C492.31 295.443 495.402 296.463 498.233 297.737C506.76 291.671 515.61 286.063 524.745 280.937C519.082 278.39 513.159 276.096 507.24 273.807C505.381 274.813 503.577 275.915 501.834 277.108Z" fill="#14D29B"/>
<path d="M502.091 271.513L489.735 266.931C487.803 266.136 485.825 265.455 483.812 264.891C483.098 265.412 482.319 265.84 481.494 266.165C472.987 271.183 464.74 276.624 456.787 282.465C463.019 284.517 469.199 286.725 475.318 289.087C484.073 282.965 493.084 277.374 502.091 271.513Z" fill="#FFD340"/>
<path d="M531.438 317.858C539.158 309.708 548.682 298.503 555.375 290.118C519.528 285.974 483.56 282.916 447.523 280.949C437.763 290.131 428.887 300.192 421.011 311.001C459.879 311.997 493.084 315.818 531.438 317.858Z" fill="white"/>
<path d="M500.804 310.728C509.041 311.489 517.021 312.255 525.002 313.271C527.32 309.962 529.377 306.395 531.951 303.086C534.128 300.099 536.542 297.289 539.17 294.682C532.477 293.9 525.783 292.9 518.834 292.134C517.807 292.134 516.776 291.88 515.746 291.88C510.845 298.245 505.696 304.359 500.804 310.728Z" fill="#643CFF"/>
<path d="M482.016 292.9C479.698 295.701 477.123 298.245 475.066 301.05C473.34 303.306 471.791 305.69 470.434 308.18L481.242 308.942C485.36 309.196 489.479 309.723 493.597 309.962C498.285 303.252 503.538 296.947 509.301 291.114L485.36 288.825C484.154 290.108 483.037 291.469 482.016 292.9Z" fill="#9778FF"/>
<path d="M477.897 288.313C472.491 287.805 466.841 287.551 461.423 287.04C458.848 286.786 456.289 286.786 453.699 286.532L452.155 288.059C446.822 293.654 441.998 299.705 437.742 306.141C445.979 306.653 454.216 306.922 462.453 307.668C467.599 301.304 472.748 294.955 477.897 288.313Z" fill="#FF465A"/>
<path d="M538.457 303.842C540.394 303.385 541.804 302.349 541.606 301.528C541.408 300.708 539.678 300.413 537.741 300.87C535.804 301.326 534.394 302.362 534.592 303.183C534.79 304.003 536.52 304.298 538.457 303.842Z" fill="black"/>
<path d="M549.97 309.708C548.202 309.762 546.445 309.414 544.836 308.688L546.123 305.379C549.345 306.34 552.804 306.159 555.904 304.867C558.564 303.836 560.972 302.258 562.969 300.237C564.967 298.217 566.507 295.8 567.49 293.146C568.038 291.33 568.137 289.41 567.778 287.549C567.419 285.687 566.614 283.938 565.429 282.449C563.771 280.482 561.593 279.012 559.138 278.202C556.682 277.393 554.048 277.276 551.529 277.866C548.473 278.351 545.609 279.654 543.247 281.633C540.885 283.612 539.115 286.192 538.127 289.095C537.584 291.106 537.464 293.206 537.775 295.265C538.085 297.324 538.819 299.298 539.932 301.065L537.101 302.847C535.72 300.67 534.802 298.237 534.404 295.697C534.005 293.157 534.134 290.564 534.783 288.075C536.007 284.584 538.162 281.486 541.02 279.108C543.877 276.729 547.331 275.158 551.016 274.561C554.156 273.81 557.447 273.963 560.502 275.001C563.558 276.039 566.249 277.92 568.26 280.421C569.804 282.325 570.846 284.577 571.296 286.977C571.745 289.377 571.587 291.849 570.835 294.174C569.778 297.377 568.002 300.302 565.639 302.728C563.276 305.155 560.388 307.02 557.192 308.184C554.951 309.28 552.468 309.804 549.97 309.708ZM301.06 322.948L290.509 317.346C296.94 244.51 305.434 172.691 315.99 101.889C363.869 98.8339 419.981 97.5602 478.41 93.9932L487.678 99.0722L301.06 322.948ZM410.713 361.662C402.219 361.408 362.321 344.081 357.432 342.049C352.544 340.018 344.563 334.411 372.106 328.297C399.388 322.186 398.357 315.564 447.266 337.213L410.713 361.662Z" fill="black"/>
<path d="M457.561 281.183C465.285 216.496 474.805 160.72 487.678 98.8262C433.624 103.409 370.045 104.175 326.545 107.484C315.992 178.288 307.497 250.11 301.06 322.948C352.54 311.755 407.368 296.975 457.561 281.183Z" fill="#FDB849"/>
<path d="M418.95 258.515C423.325 257.245 431.562 266.411 435.424 278.89C439.286 290.861 441.347 305.121 435.168 306.906C428.992 308.942 442.117 313.271 445.462 306.653C448.807 300.034 446.493 288.567 443.148 277.616C439.803 266.665 426.93 253.424 420.494 254.44C414.058 255.456 418.95 258.515 418.95 258.515Z" fill="black"/>
<path d="M464.767 319.385C461.166 308.18 457.818 296.725 453.96 285.512C446.749 263.356 438.773 238.652 430.536 216.496C417.406 219.297 402.736 222.86 388.32 221.575C397.074 262.574 405.824 303.578 414.831 344.327C415.862 348.656 417.406 360.627 415.092 362.408C419.211 363.936 466.821 347.894 468.373 344.073C471.461 337.72 467.599 327.773 464.767 319.385ZM442.631 302.066C442.254 303.194 441.616 304.22 440.767 305.06C439.918 305.901 438.882 306.533 437.742 306.906C435.507 306.96 433.295 306.45 431.314 305.425C429.333 304.399 427.648 302.893 426.417 301.046C423.062 296.798 420.371 292.075 418.437 287.036C416.31 281.755 415.091 276.16 414.831 270.482C414.613 268.296 414.971 266.091 415.871 264.083C416.771 262.074 418.181 260.331 419.965 259.023C422.181 258.25 424.585 258.178 426.845 258.816C429.104 259.455 431.107 260.772 432.577 262.586C442.117 272.267 446.493 293.392 442.631 302.066Z" fill="#FFD340"/>
<path d="M388.576 221.59L385.232 234.069C385.232 234.069 404.537 322.44 406.338 336.705C407.606 344.72 407.606 352.881 406.338 360.897C409.127 361.615 411.966 362.125 414.831 362.424C417.149 362.424 418.693 361.15 414.575 342.307C410.456 323.464 388.576 221.59 388.576 221.59Z" fill="black"/>
<path d="M297.198 353.512L218.95 374.903L172.876 343.581V340.014L297.198 350.199V353.512Z" fill="#643CFF"/>
<path d="M172.876 340.014L218.95 371.594L297.198 350.199L246.492 326.515L172.876 340.014Z" fill="#9778FF"/>
<path d="M188.576 342.815L246.236 331.61L280.467 348.926L278.923 349.184L246.236 332.118L189.863 343.581L188.576 342.815Z" fill="#643CFF"/>
<path d="M217.919 457.93C216.842 457.914 215.784 457.646 214.831 457.148C212.868 456.101 211.258 454.508 210.199 452.565C206.427 446.327 203.644 439.553 201.947 432.48C199.417 423.28 197.525 413.921 196.284 404.467C194.951 397.56 195.039 390.457 196.541 383.584C197.314 379.948 198.956 376.547 201.329 373.667C203.703 370.787 206.739 368.511 210.184 367.031L211.471 370.594C208.587 371.861 206.054 373.794 204.082 376.232C202.111 378.669 200.76 381.539 200.142 384.6C198.899 391.073 198.812 397.711 199.885 404.213C201.166 413.474 202.97 422.657 205.291 431.718C206.874 438.435 209.478 444.875 213.015 450.819C213.695 452.133 214.775 453.202 216.103 453.874C218.934 455.148 222.539 452.347 225.11 449.291C234.378 437.571 239.27 422.802 242.879 410.07L243.136 409.562C244.16 404.352 246.264 399.408 249.316 395.043C254.722 388.421 264.759 385.112 276.341 386.64C281.054 387.264 285.704 388.286 290.241 389.695C294.56 390.872 298.944 391.807 303.37 392.496C317.783 394.536 332.196 390.461 345.582 386.132C353.841 383.87 361.549 379.97 368.236 374.669C372.098 371.106 375.186 365.757 373.125 361.428C371.673 358.932 369.53 356.899 366.949 355.568C364.786 354.407 362.865 352.852 361.286 350.985C357.425 346.911 355.879 340.544 356.651 331.884C356.697 330.596 356.87 329.317 357.168 328.063C357.938 323.425 357.938 318.694 357.168 314.056C356.506 311.241 355.075 308.659 353.032 306.592C350.989 304.526 348.413 303.053 345.582 302.335L346.372 298.518C349.955 299.317 353.235 301.104 355.833 303.674C358.43 306.243 360.238 309.488 361.046 313.033C362.029 318.159 362.115 323.415 361.302 328.571C361.089 329.746 361.003 330.94 361.046 332.134C360.256 339.522 361.559 344.866 364.647 348.18C366.109 349.651 367.753 350.935 369.539 352.001C372.629 353.784 375.2 356.328 377.003 359.385C380.09 366.026 375.715 373.137 371.079 377.212C363.945 382.941 355.714 387.186 346.881 389.691C332.982 394.278 318.056 398.349 302.869 396.313C298.236 395.684 293.667 394.657 289.214 393.242C284.838 391.944 280.36 391.007 275.828 390.441C265.79 389.167 256.779 391.715 252.404 397.317C249.777 401.263 247.941 405.672 246.998 410.304L246.741 410.816C243.136 424.056 238.247 439.336 228.21 451.561C227.108 453.337 225.606 454.837 223.821 455.942C222.035 457.047 220.015 457.727 217.919 457.93Z" fill="#643CFF"/>
<path d="M341.989 304.359C342.246 301.304 342.779 298.245 343.276 295.189C344.118 295.023 344.986 295.028 345.826 295.203C346.667 295.378 347.462 295.72 348.165 296.209C348.869 296.741 349.426 297.44 349.786 298.24C350.146 299.041 350.298 299.918 350.226 300.792C350.054 301.663 349.654 302.474 349.067 303.144C348.479 303.815 347.724 304.321 346.877 304.613C346.098 304.947 345.251 305.098 344.403 305.054C343.555 305.01 342.729 304.772 341.989 304.359Z" fill="#643CFF"/>
<path d="M333.298 309.043L334.482 299.436L338.313 299.9L337.128 309.504L333.298 309.043ZM324.223 311.957L325.874 300.615L329.696 301.162L328.046 312.5L324.223 311.957ZM308.748 309.691L316.816 308.05L317.593 311.789L309.526 313.43L308.748 309.691ZM356.919 305.558L355.888 301.737L360.52 300.955L360.777 304.772L356.919 305.558Z" fill="black"/>
<path d="M227.957 717.39C210.219 712.241 194.5 701.842 182.913 687.591C171.31 673.542 164.387 656.283 163.095 638.184C137.927 643.949 112.38 647.949 86.643 650.155C83.8229 673.409 87.3801 696.985 96.9413 718.409C107.236 739.292 125.51 757.119 148.164 763.488C178.118 754.686 205.488 738.874 227.957 717.39Z" fill="#9778FF"/>
<path d="M190.12 710.315C167.983 700.891 141.985 683.829 131.434 662.181C127.678 686.553 129.526 711.45 136.84 735.018C156.931 727.122 173.91 717.687 190.12 710.315Z" fill="white"/>
<path d="M171.845 730.189C150.996 718.726 136.306 703.446 116.247 699.883C129.418 698.816 142.642 701.187 154.597 706.759C156.817 696.402 162.211 686.975 170.044 679.762C160.52 695.542 159.746 718.972 171.845 730.189Z" fill="black"/>
<path d="M482.785 704.204C479.366 702.143 476.097 699.845 473.004 697.328C472.748 698.09 472.491 698.344 472.215 699.109C475.07 701.089 477.82 703.215 480.452 705.478C481.171 704.955 481.955 704.527 482.785 704.204ZM463.48 698.344L450.354 695.288V694.527L463.741 697.328L463.48 698.344ZM478.928 724.329L478.41 723.567C481.103 722.319 483.413 720.386 485.103 717.964C485.938 716.843 486.471 715.53 486.652 714.148C486.832 712.767 486.654 711.363 486.134 710.068L486.904 709.561C487.491 711.014 487.705 712.589 487.526 714.144C487.346 715.7 486.78 717.187 485.877 718.472C483.965 720.851 481.605 722.84 478.928 724.329Z" fill="white"/>
<path d="M475.066 726.36L479.184 719.484L479.954 719.992L476.866 725.087L481.498 724.579L481.759 725.341L475.066 726.36ZM462.71 739.347C459.647 735.852 456.381 732.536 452.929 729.416L453.719 728.654C457.319 731.704 460.676 735.025 463.76 738.585L462.71 739.347ZM461.936 733.998C459.901 732.661 458.079 731.031 456.53 729.162L457.32 728.38C458.838 730.108 460.562 731.648 462.453 732.967L461.936 733.998ZM457.853 726.978L458.599 726.274L463.034 730.888L462.288 731.592L457.853 726.978ZM470.69 733.237C468.116 729.923 465.557 726.868 462.71 723.813L463.48 723.032C466.278 726.056 468.94 729.2 471.46 732.455L470.69 733.237ZM436.968 710.061L435.941 709.807C436.764 705.867 437.195 701.858 437.229 697.836H438.255C438.21 701.941 437.779 706.034 436.968 710.061ZM439.799 708.279L438.773 708.021C439.283 705.678 439.541 703.288 439.543 700.891H440.573C440.317 703.438 440.056 705.732 439.799 708.279ZM440.214 711.377L440.964 705.825L441.991 705.962L441.241 711.51L440.214 711.377ZM461.423 702.676L460.633 702.165C461.901 700.691 463.376 699.404 465.012 698.344L460.894 694.78L461.664 693.999L466.556 698.328L466.039 698.586C464.328 699.746 462.776 701.121 461.423 702.676ZM505.953 711.08C502.833 711.12 499.72 710.777 496.685 710.061L496.946 709.041C500.633 710.022 504.465 710.366 508.271 710.061V711.08C507.503 710.953 506.72 710.953 505.953 711.08ZM504.665 712.862C503.003 712.873 501.351 712.609 499.777 712.08L500.034 711.065C501.79 711.573 503.609 711.836 505.439 711.846V712.866L504.665 712.862ZM418.18 719.992C417.228 720.029 416.278 719.867 415.394 719.517C414.509 719.166 413.709 718.634 413.047 717.956C412.07 716.731 411.518 715.227 411.472 713.668C411.425 712.108 411.888 710.575 412.79 709.295C414.207 706.798 416.495 704.898 419.226 703.95L419.483 704.966C416.975 705.931 414.882 707.726 413.56 710.045C412.804 711.179 412.402 712.508 412.402 713.866C412.402 715.224 412.804 716.553 413.56 717.687C414.726 718.828 416.299 719.468 417.939 719.468C419.835 719.332 421.681 718.81 423.364 717.936C425.047 717.062 426.53 715.855 427.72 714.389C428.395 713.584 428.882 712.641 429.149 711.629C429.416 710.616 429.455 709.558 429.264 708.529C428.866 706.91 427.994 705.442 426.758 704.309C425.522 703.177 423.977 702.43 422.314 702.161L422.571 701.141C424.472 701.433 426.235 702.299 427.618 703.622C429.001 704.945 429.936 706.659 430.295 708.529C430.588 710.885 429.941 713.261 428.49 715.151C427.098 716.981 425.226 718.399 423.076 719.25C421.497 719.764 419.842 720.015 418.18 719.992ZM397.331 711.588H406.081V712.608H397.331V711.588Z" fill="white"/>
<path d="M405.568 714.644L404.794 714.136L406.855 711.588L404.28 710.569L404.794 709.807L408.399 711.334L405.568 714.644ZM163.865 673.64C160.777 669.311 157.689 664.728 154.597 660.399L155.387 659.888C158.475 664.221 161.563 668.803 164.655 673.132L163.865 673.64Z" fill="white"/>
<path d="M166.183 676.441L165.393 676.187C162.802 675.435 160.3 674.411 157.93 673.132L158.443 672.351C160.507 673.65 162.776 674.598 165.156 675.156L164.899 668.788H165.93L166.183 676.441ZM96.9413 676.699L96.1516 676.187C102.293 667.778 109.092 659.859 116.488 652.503L117.277 653.285C109.751 660.422 102.94 668.263 96.9413 676.699ZM103.374 673.386L102.584 672.878C103.814 671.077 105.192 669.378 106.703 667.799L107.492 668.58C105.948 670.077 104.661 671.858 103.374 673.386ZM99.1803 681.997L111.192 667.045L111.998 667.678L99.9898 682.634L99.1803 681.997ZM109.546 677.445L108.756 676.937C111.79 673.173 114.967 669.524 118.28 665.998L119.07 666.76C115.558 670.013 112.369 673.591 109.546 677.445ZM179.308 722.031V721.012C186.607 720.275 193.644 717.925 199.901 714.136L200.418 714.897C193.992 718.771 186.787 721.206 179.308 722.031ZM187.545 723.047L187.289 722.031C190.527 721.265 193.645 720.065 196.556 718.464L197.07 719.246C194.187 721.136 190.947 722.429 187.545 723.047Z" fill="white"/>
</svg>
