<svg width="64" height="64" viewBox="0 0 64 64" fill="none" xmlns="http://www.w3.org/2000/svg">
<path fill-rule="evenodd" clip-rule="evenodd" d="M19.1509 1.02031C22.4744 0.867313 23.534 0.833313 32 0.833313C40.466 0.833313 41.5257 0.870146 44.8464 1.02031C48.167 1.17048 50.4337 1.70031 52.417 2.46815C54.4939 3.25298 56.378 4.47981 57.9364 6.06648C59.523 7.62198 60.747 9.50331 61.529 11.583C62.2997 13.5663 62.8267 15.833 62.9797 19.148C63.1327 22.4771 63.1667 23.5368 63.1667 32C63.1667 40.466 63.1299 41.5257 62.9797 44.8491C62.8295 48.1642 62.2997 50.4308 61.529 52.4142C60.747 54.4941 59.521 56.3785 57.9364 57.9363C56.378 59.523 54.4939 60.747 52.417 61.529C50.4337 62.2997 48.167 62.8266 44.852 62.9796C41.5257 63.1326 40.466 63.1666 32 63.1666C23.534 63.1666 22.4744 63.1298 19.1509 62.9796C15.8359 62.8295 13.5692 62.2997 11.5859 61.529C9.50598 60.7469 7.62153 59.5209 6.06371 57.9363C4.47812 56.3799 3.2511 54.4963 2.46821 52.417C1.70037 50.4336 1.17337 48.167 1.02037 44.852C0.867374 41.5228 0.833374 40.4632 0.833374 32C0.833374 23.534 0.870207 22.4743 1.02037 19.1536C1.17054 15.833 1.70037 13.5663 2.46821 11.583C3.25226 9.50354 4.48021 7.62003 6.06654 6.06365C7.62216 4.4784 9.50471 3.2514 11.583 2.46815C13.5664 1.70031 15.833 1.17331 19.148 1.02031H19.1509ZM44.5942 6.63031C41.3075 6.48015 40.3215 6.44898 32 6.44898C23.6785 6.44898 22.6925 6.48015 19.4059 6.63031C16.3657 6.76915 14.7167 7.27631 13.6174 7.70415C12.1639 8.27081 11.124 8.94231 10.0332 10.0331C8.99917 11.0391 8.20339 12.2638 7.70421 13.6173C7.27637 14.7166 6.76921 16.3656 6.63037 19.4058C6.48021 22.6925 6.44904 23.6785 6.44904 32C6.44904 40.3215 6.48021 41.3075 6.63037 44.5941C6.76921 47.6343 7.27637 49.2833 7.70421 50.3827C8.20287 51.7341 8.99904 52.961 10.0332 53.9668C11.039 55.001 12.2659 55.7972 13.6174 56.2958C14.7167 56.7237 16.3657 57.2308 19.4059 57.3697C22.6925 57.5198 23.6757 57.551 32 57.551C40.3244 57.551 41.3075 57.5198 44.5942 57.3697C47.6344 57.2308 49.2834 56.7237 50.3827 56.2958C51.8362 55.7292 52.876 55.0577 53.9669 53.9668C55.001 52.961 55.7972 51.7341 56.2959 50.3827C56.7237 49.2833 57.2309 47.6343 57.3697 44.5941C57.5199 41.3075 57.551 40.3215 57.551 32C57.551 23.6785 57.5199 22.6925 57.3697 19.4058C57.2309 16.3656 56.7237 14.7166 56.2959 13.6173C55.7292 12.1638 55.0577 11.124 53.9669 10.0331C52.9608 8.99918 51.7362 8.20341 50.3827 7.70415C49.2834 7.27631 47.6344 6.76915 44.5942 6.63031ZM28.0192 41.6078C30.2424 42.5333 32.7179 42.6582 35.023 41.9612C37.3281 41.2642 39.3197 39.7886 40.6576 37.7863C41.9956 35.7841 42.5969 33.3794 42.3588 30.9831C42.1208 28.5868 41.0582 26.3474 39.3525 24.6475C38.2652 23.5608 36.9505 22.7288 35.503 22.2112C34.0555 21.6937 32.5113 21.5035 30.9814 21.6544C29.4516 21.8053 27.9743 22.2935 26.6558 23.0839C25.3373 23.8742 24.2105 24.9471 23.3564 26.2252C22.5023 27.5034 21.9422 28.955 21.7165 30.4755C21.4908 31.9961 21.605 33.5478 22.0509 35.0189C22.4968 36.4901 23.2634 37.844 24.2954 38.9834C25.3274 40.1227 26.5992 41.019 28.0192 41.6078ZM20.6724 20.6723C22.1599 19.1847 23.9259 18.0047 25.8696 17.1997C27.8132 16.3946 29.8963 15.9802 32 15.9802C34.1038 15.9802 36.1869 16.3946 38.1305 17.1997C40.0741 18.0047 41.8401 19.1847 43.3277 20.6723C44.8153 22.1599 45.9953 23.9259 46.8004 25.8695C47.6054 27.8131 48.0198 29.8962 48.0198 32C48.0198 34.1037 47.6054 36.1869 46.8004 38.1305C45.9953 40.0741 44.8153 41.8401 43.3277 43.3276C40.3234 46.3319 36.2487 48.0197 32 48.0197C27.7513 48.0197 23.6767 46.3319 20.6724 43.3276C17.6681 40.3234 15.9803 36.2487 15.9803 32C15.9803 27.7513 17.6681 23.6766 20.6724 20.6723ZM51.5727 18.366C51.9413 18.0182 52.2365 17.6001 52.4406 17.1362C52.6447 16.6724 52.7537 16.1723 52.7611 15.6656C52.7684 15.1589 52.6741 14.6559 52.4836 14.1863C52.2931 13.7167 52.0103 13.2901 51.6519 12.9318C51.2936 12.5734 50.867 12.2906 50.3974 12.1001C49.9278 11.9096 49.4248 11.8152 48.9181 11.8226C48.4114 11.83 47.9113 11.939 47.4475 12.1431C46.9836 12.3472 46.5654 12.6424 46.2177 13.011C45.5414 13.7279 45.1712 14.6802 45.1855 15.6656C45.1999 16.6511 45.5978 17.5921 46.2947 18.289C46.9916 18.9859 47.9326 19.3838 48.9181 19.3982C49.9035 19.4125 50.8558 19.0423 51.5727 18.366Z" fill="#F047FF"/>
</svg>
