<svg width="64" height="64" viewBox="0 0 64 64" fill="none" xmlns="http://www.w3.org/2000/svg">
<path fill-rule="evenodd" clip-rule="evenodd" d="M0.833375 6.04099C0.833375 4.65983 1.38204 3.33524 2.35867 2.35861C3.33529 1.38198 4.65988 0.83332 6.04104 0.83332H57.9534C58.6378 0.832202 59.3158 0.966098 59.9484 1.22734C60.5811 1.48859 61.156 1.87205 61.6402 2.35577C62.1245 2.8395 62.5086 3.41399 62.7705 4.04635C63.0325 4.67871 63.1671 5.35652 63.1667 6.04099V57.9533C63.1675 58.6379 63.0332 59.3159 62.7717 59.9486C62.5101 60.5813 62.1264 61.1562 61.6424 61.6404C61.1585 62.1246 60.5838 62.5086 59.9513 62.7705C59.3188 63.0324 58.6408 63.167 57.9562 63.1667H6.04104C5.35692 63.1667 4.67951 63.0319 4.0475 62.77C3.41549 62.5081 2.84128 62.1242 2.35766 61.6404C1.87405 61.1565 1.49051 60.5821 1.22897 59.9499C0.967428 59.3178 0.833003 58.6403 0.833375 57.9562V6.04099ZM25.506 24.5993H33.9465V28.838C35.1649 26.4013 38.2815 24.2083 42.965 24.2083C51.9439 24.2083 54.0717 29.0618 54.0717 37.967V54.4627H44.9852V39.9957C44.9852 34.924 43.7669 32.0623 40.6729 32.0623C36.3804 32.0623 34.5954 35.1478 34.5954 39.9957V54.4627H25.506V24.5993ZM9.92271 54.0745H19.012V24.2083H9.92271V54.0717V54.0745ZM20.3125 14.4673C20.3297 15.2456 20.1912 16.0194 19.9052 16.7434C19.6192 17.4674 19.1915 18.127 18.6472 18.6834C18.1029 19.2399 17.4529 19.682 16.7353 19.9838C16.0178 20.2857 15.2472 20.4412 14.4688 20.4412C13.6904 20.4412 12.9198 20.2857 12.2023 19.9838C11.4847 19.682 10.8347 19.2399 10.2904 18.6834C9.74605 18.127 9.31834 17.4674 9.03236 16.7434C8.74639 16.0194 8.6079 15.2456 8.62504 14.4673C8.65868 12.9397 9.28913 11.4861 10.3814 10.4176C11.4736 9.34913 12.9408 8.75084 14.4688 8.75084C15.9967 8.75084 17.4639 9.34913 18.5562 10.4176C19.6485 11.4861 20.2789 12.9397 20.3125 14.4673Z" fill="#4759FF"/>
</svg>
