<svg width="446" height="446" viewBox="0 0 446 446" fill="none" xmlns="http://www.w3.org/2000/svg">
<g clip-path="url(#clip0_583_670)">
<path d="M380.24 164.094L376.736 163.029C375.841 162.753 374.924 162.549 373.996 162.42C370.651 161.974 367.294 163.789 364.554 165.16L363.64 163.332C364.4 162.886 365.163 162.571 366.075 162.114C364.597 160.505 363.412 158.649 362.574 156.631C362.012 155.331 361.296 154.104 360.442 152.976C359.814 152.064 359.001 151.295 358.056 150.719C357.112 150.142 356.056 149.772 354.958 149.631C354.473 149.595 353.987 149.673 353.538 149.858C353.089 150.043 352.688 150.33 352.369 150.697L352.217 150.848C352.369 153.283 352.369 155.724 352.217 158.158C352.217 158.158 350.237 158.312 350.237 158.007C350.389 155.064 350.389 152.116 350.237 149.174C349.48 147.742 348.368 146.529 347.008 145.649C345.649 144.769 344.086 144.252 342.47 144.147H340.793C339.725 144.248 338.649 144.197 337.595 143.995C332.569 143.081 330.437 137.446 329.219 133.334C328.002 129.07 326.173 124.652 322.529 123.745C321.573 123.567 320.603 123.465 319.63 123.439C317.347 123.439 314.91 123.288 313.54 121.156C312.95 119.972 312.638 118.67 312.626 117.347C312.721 116.275 312.452 115.202 311.863 114.301C311.406 113.692 310.34 113.54 309.428 113.235C308.122 113.029 306.905 112.447 305.925 111.56C305.053 110.55 304.614 109.237 304.705 107.905C304.237 104.498 303.73 101.096 303.182 97.7007C302.573 94.3557 302.116 90.8479 301.813 88.5577C299.527 92.061 299.07 96.9358 298.468 101.046C297.859 105.613 296.488 110.635 292.375 112.925C291.795 113.242 291.183 113.497 290.549 113.685C291.158 116.426 291.92 119.321 292.681 122.061C292.833 122.367 292.833 122.67 292.986 122.824C293.253 123.014 293.571 123.12 293.898 123.127L302.428 124.956L302.58 125.402C303.63 128.416 305.064 131.282 306.846 133.929C307.016 134.254 307.282 134.52 307.606 134.692C307.912 134.844 308.367 134.54 308.978 134.386C309.281 134.235 309.587 134.235 309.89 134.083C313.235 133.169 316.288 135.91 317.962 139.107C318.28 139.688 318.536 140.301 318.725 140.936C319.394 142.994 320.603 144.834 322.226 146.266L321.16 147.943C319.066 146.411 317.561 144.207 316.896 141.699C316.591 141.09 316.45 140.481 316.136 140.024C314.916 137.586 312.791 135.303 310.501 135.912C310.271 135.95 310.058 136.057 309.89 136.217C309.481 136.46 309.025 136.612 308.552 136.664C308.08 136.717 307.601 136.668 307.149 136.521C306.457 136.183 305.876 135.654 305.474 134.997C303.694 132.403 302.261 129.587 301.211 126.622L293.747 124.947C293.099 124.799 292.481 124.541 291.92 124.184C291.49 123.786 291.219 123.244 291.158 122.661C290.397 119.92 289.635 117.18 289.026 114.439C287.783 114.837 286.71 115.641 285.98 116.723C285.247 118.291 285.034 120.051 285.371 121.749C285.674 125.556 285.98 129.211 286.285 133.019C286.411 133.844 286.305 134.687 285.98 135.455C285.452 136.079 284.769 136.552 283.999 136.826C280.902 138.386 278.155 140.562 275.929 143.222C276.147 144.07 276.564 144.854 277.147 145.507C278.004 146.421 279.041 147.147 280.193 147.639C280.614 147.811 281.021 148.015 281.41 148.248C283.913 149.842 286.17 151.791 288.112 154.035C288.558 153.589 289.026 152.969 289.483 152.512C291.261 150.877 293.327 149.587 295.575 148.705C297.744 147.599 300.145 147.025 302.58 147.031C302.428 147.182 302.277 147.477 302.123 147.639H302.277C303.492 152.091 305.331 156.349 307.74 160.286C307.823 160.368 307.877 160.475 307.894 160.591H308.197C309.809 160.337 311.441 160.235 313.072 160.286C313.697 160.237 314.324 160.342 314.898 160.591C315.608 161.029 316.228 161.598 316.727 162.266C320.086 166.872 323.749 171.248 327.692 175.365L326.32 176.734C322.328 172.567 318.614 168.141 315.204 163.486C314.972 163.025 314.599 162.651 314.138 162.42C313.801 162.282 313.435 162.229 313.072 162.266C311.543 162.215 310.012 162.318 308.503 162.571C307.991 162.666 307.463 162.613 306.98 162.42C306.603 162.197 306.288 161.882 306.065 161.505C303.769 157.854 301.976 153.909 300.736 149.778C295.106 158.297 291.942 168.206 291.593 178.411C278.565 182.626 264.532 182.572 251.537 178.257C238.744 173.993 228.997 164.855 221.078 153.89C224.276 147.646 227.322 141.554 230.52 135.31C231.127 133.889 232.068 132.635 233.263 131.655C234.03 131.266 234.858 131.011 235.711 130.901C239.951 130.189 244.283 130.242 248.505 131.055C250.636 126.486 252.008 122.677 256.12 119.784C258.374 118.416 260.715 117.195 263.127 116.129C264.866 115.192 266.499 114.071 267.999 112.784C262.364 101.82 264.801 85.8282 274.243 75.9292C278.873 71.2334 284.686 67.8765 291.067 66.214C297.448 64.5515 304.16 64.6452 310.492 66.4852C314.928 67.6256 319.046 69.7609 322.534 72.7292C325.93 75.8267 328.615 79.6236 330.402 83.8583C332.19 88.093 333.039 92.6649 332.89 97.2592C332.677 106.255 329.4 114.909 323.6 121.789C327.864 123.158 329.844 127.882 331.215 132.449C332.281 136.104 334.114 140.978 338.068 141.739C338.975 141.893 339.902 141.893 340.809 141.739H342.789C344.776 141.846 346.701 142.463 348.381 143.53C350.06 144.597 351.437 146.078 352.378 147.831C353.295 147.279 354.356 147.014 355.424 147.071C356.815 147.226 358.157 147.673 359.364 148.381C360.571 149.09 361.615 150.044 362.429 151.183C363.279 152.449 364.043 153.771 364.714 155.141C365.588 157.177 366.826 159.035 368.369 160.625C370.336 159.782 372.488 159.467 374.613 159.71C375.649 159.875 376.668 160.13 377.66 160.473L381.163 161.539C388.704 163.931 396.383 165.864 404.159 167.326C404.133 166.713 404.185 166.099 404.312 165.499C381.009 152.249 338.061 127.728 330.903 123.158L331.969 121.484C338.824 125.901 380.554 149.805 404.159 163.214C403.093 152.4 394.26 143.719 388.473 134.126C386.482 130.804 384.848 127.281 383.598 123.616L336.235 111.585L336.681 109.604L382.372 122.092C380.053 114.666 378.572 107.004 377.956 99.2483L338.51 99.6943V97.7141L377.651 97.2681C377.042 89.8065 376.585 82.3427 375.976 75.0327L337.747 87.3691L337.138 85.5405L375.822 73.0525V72.2519C375.305 65.7218 373.817 59.3054 371.407 53.2144C358.308 60.3727 346.582 67.0739 333.18 75.4498L332.114 73.775C345.668 65.3969 357.396 58.5441 370.492 51.3858C367.017 43.365 360.812 36.8355 352.978 32.9571C343.231 43.9243 333.94 54.8892 324.345 66.4629L322.824 65.2453C332.413 53.8232 341.556 43.0099 351.145 32.045C342.138 28.6752 332.336 28.0391 322.969 30.2164C322.663 30.2164 322.206 30.3681 321.903 30.3681C318.705 40.5726 315.505 50.777 312.459 60.9815L310.632 60.3727C313.531 50.4715 316.571 40.7242 319.775 30.8252C312.312 32.5022 304.696 34.6341 296.929 37.0692C297.386 44.6847 297.692 52.3001 297.692 59.7617H295.711C295.56 52.4518 295.406 44.9902 294.949 37.5264C287.944 39.6583 280.938 41.944 273.933 44.0759C276.563 51.1497 279.101 58.2573 281.547 65.3969L279.72 66.0079C277.283 58.8496 274.694 51.843 272.105 44.6847C264.946 46.8166 257.788 48.6452 250.474 50.1683C257.186 58.2723 263.687 66.5499 269.968 74.9926L268.445 76.2102C262.05 67.531 255.195 59.0013 248.342 50.6254C237.467 52.8215 226.313 53.2836 215.293 51.9946C202.805 50.3199 191.078 45.1418 179.047 41.4869C160.315 35.7 138.992 33.7198 121.78 43.1616C107.776 50.9354 98.7891 65.4036 86.455 75.7597C72.29 87.6389 53.1009 95.1027 45.0283 111.857C35.7381 130.74 47.7712 149.778 57.9801 165.466C70.3142 184.655 87.8286 199.884 106.411 212.829C118.442 221.207 131.082 228.662 142.506 237.805C147.929 242.084 152.973 246.823 157.583 251.968C161.695 256.691 164.587 264.609 169.311 268.57C178.295 276.032 200.379 270.548 211.801 271.311C229.906 272.508 247.801 275.882 265.098 281.361C266.86 282.188 268.861 282.346 270.731 281.807C272.615 280.808 274.035 279.115 274.691 277.086C280.478 265.664 285.656 250.587 294.338 241.449C304.848 230.484 318.868 223.326 332.718 217.539C351.147 209.923 370.488 204.136 386.631 192.563C394.398 186.927 401.862 179.16 403.536 170.022C395.659 168.513 387.88 166.534 380.24 164.094ZM209.97 51.0892L261.599 87.3357L260.533 89.0104L208.75 52.764L209.97 51.0892ZM259.476 97.5401V99.5204L199.012 101.347V99.3665L259.476 97.5401ZM174.636 150.995L173.722 149.169C202.35 134.332 231.907 121.36 262.208 110.334L262.817 112.16C232.68 123.347 203.234 136.315 174.636 150.995Z" fill="#14D29B"/>
<path d="M271.193 150.387C268.705 155.892 266.865 161.668 265.711 167.598C266.94 168.414 268.365 168.886 269.838 168.965C271.311 169.043 272.779 168.725 274.087 168.044C276.655 166.539 278.923 164.574 280.777 162.246C282.603 160.268 284.432 158.288 286.107 156.156C284.369 153.929 282.256 152.022 279.863 150.52C279.417 150.367 279.102 150.074 278.645 149.909C277.269 149.295 276.027 148.415 274.99 147.32C274.548 146.823 274.188 146.257 273.924 145.646C273.021 147.18 272.107 148.712 271.193 150.387ZM305.004 97.8434C305.613 101.804 306.375 105.764 306.527 108.2C306.572 109.11 306.833 109.998 307.287 110.789C307.744 111.4 308.81 111.551 309.725 111.857C310.992 112.036 312.167 112.624 313.07 113.531C313.976 114.76 314.408 116.274 314.287 117.795C314.161 118.802 314.375 119.823 314.896 120.694C315.659 121.912 317.485 122.063 319.465 122.063C320.179 122.043 320.894 122.095 321.597 122.217C327.515 115.579 330.863 107.044 331.039 98.1534C331.158 93.8008 330.35 89.4726 328.67 85.4555C326.99 81.4385 324.476 77.8242 321.294 74.8521C317.967 72.0901 314.063 70.1089 309.87 69.0541C303.834 67.288 297.432 67.191 291.346 68.7734C285.259 70.3559 279.716 73.5587 275.305 78.041C266.777 87.184 264.188 102.257 269.212 112.606C271.193 110.931 273.021 109.103 275.01 107.428C283.365 100.373 292.278 94.0059 301.661 88.3905V87.9333L303.641 87.7817C303.895 91.1597 304.35 94.5196 305.004 97.8434Z" fill="#14D29B"/>
<path d="M400.495 409.905C399.581 394.98 398.363 379.131 389.224 367.413C383.286 359.799 374.756 354.773 365.923 350.966C338.661 339.239 308.202 337.867 278.657 337.716C220.021 337.41 159.711 341.676 106.101 365.738C91.6331 372.287 77.7804 380.206 66.3516 391.173C54.9229 402.14 46.2482 416.301 43.8108 431.982C73.5099 422.692 105.339 426.195 136.255 430.154C167.172 434.112 197.937 440.206 229.006 440.052C243.171 439.901 257.182 438.532 271.347 437.009C316.578 432.14 358.919 428.637 400.495 409.905Z" fill="#FDB849"/>
<path d="M78.5341 420.718C89.9584 405.331 106.855 395.437 121.636 383.701C128.981 378.26 135.408 371.679 140.673 364.206C143.339 360.274 145.394 355.961 146.765 351.412C132.877 355.179 119.286 359.964 106.101 365.729C91.6331 372.278 77.7804 380.197 66.3516 391.164C54.9229 402.131 46.2482 416.292 43.8108 431.973C53.9498 428.858 64.437 427.016 75.0308 426.49C75.9255 424.413 77.1046 422.471 78.5341 420.718ZM389.224 367.261C383.286 359.645 374.756 354.621 365.923 350.812C362.578 349.443 359.233 348.072 355.873 347.006C355.416 350.021 354.65 352.981 353.587 355.839C360.439 358.68 366.77 362.644 372.319 367.566C378.389 372.896 383.356 379.364 386.939 386.604C387.061 386.817 387.111 387.064 387.078 387.307C387.046 387.55 386.935 387.776 386.761 387.95C386.588 388.123 386.362 388.235 386.119 388.267C385.875 388.299 385.628 388.25 385.416 388.127C384.025 387.216 382.545 386.45 380.998 385.841C374.351 383.292 367.245 382.152 360.134 382.496C353.442 382.43 346.842 384.054 340.945 387.217C335.461 390.415 330.589 394.527 324.954 397.725C322.298 399.342 319.426 400.573 316.424 401.38C313.239 402.168 309.945 402.426 306.677 402.143C290.844 401.228 275.01 398.488 259.16 399.554C243.773 400.62 227.48 406.103 216.669 417.22C210.85 423.383 206.296 430.627 203.265 438.543C211.819 439.353 220.411 439.709 229.003 439.609C243.168 439.455 257.179 438.086 271.344 436.563C316.729 431.993 359.068 428.49 400.646 409.604C399.581 394.98 398.363 379.14 389.224 367.261Z" fill="#FFD340"/>
<path d="M221.695 83.3752C221.945 89.6277 220.242 95.8028 216.823 101.043C215.728 102.956 214.083 104.494 212.102 105.459C211.337 105.812 210.467 105.866 209.665 105.611C208.293 105.165 207.533 103.479 207.076 102.109C204.487 94.3423 200.983 80.94 205.704 73.1707C206.589 71.6738 208.012 70.5718 209.683 70.0905C211.354 69.6091 213.146 69.7849 214.691 70.5817C219.715 72.7158 221.544 78.3488 221.695 83.3752Z" fill="#F9BDB4"/>
<path d="M215.603 75.9136C213.842 80.3977 212.765 85.1207 212.405 89.9247C213.761 89.1257 215.263 88.6077 216.823 88.4016C213.035 92.167 209.987 96.6094 207.836 101.498C208.447 99.9753 206.618 95.2544 206.618 93.428C206.664 91.504 207.024 89.6004 207.684 87.7928C209.203 83.1909 211.94 79.086 215.603 75.9136Z" fill="#EF6767"/>
<path d="M191.236 159.982C181.337 166.226 169.605 166.075 159.102 162.266C162.842 154.559 164.37 145.966 163.517 137.442C167.629 133.178 174.33 131.644 183.775 133.938C187.294 141.475 192.57 148.056 199.162 153.13C196.927 155.847 194.247 158.164 191.236 159.982Z" fill="#F9BDB4"/>
<path d="M180.574 147.952C177.392 148.743 174.042 148.529 170.985 147.341C168.496 146.405 166.058 145.337 163.682 144.143C163.682 142.011 163.682 139.879 163.528 137.442C167.64 133.178 174.342 131.644 183.786 133.938C184.93 136.241 186.201 138.478 187.592 140.639C186.985 142.273 186.048 143.765 184.841 145.023C183.634 146.281 182.182 147.277 180.574 147.952Z" fill="black"/>
<path d="M199.46 47.2759C204.558 59.2318 208.189 71.7612 210.274 84.5904C212.102 96.1641 214.386 110.938 209.359 121.903C205.877 128.877 199.977 134.346 192.759 137.29C183.045 141.157 172.568 142.721 162.148 141.859C154.697 141.64 147.504 139.082 141.587 134.549C135.647 129.674 132.297 122.507 128.794 115.967C124.253 107.447 120.383 98.5876 117.218 89.4674C113.108 76.9795 109.605 59.7639 114.622 46.977C117.02 41.1914 120.625 35.984 125.197 31.7027C129.768 27.4215 135.2 24.1649 141.13 22.1504C156.056 17.2779 171.438 20.6274 184.232 29.0055C190.957 33.5137 196.243 39.8615 199.46 47.2915" fill="#F9BDB4"/>
<path d="M158.33 94.4941C155.846 95.4656 153.303 96.2797 150.717 96.9315C148.202 97.366 145.653 97.5698 143.101 97.5402C141.765 97.6061 140.427 97.4517 139.141 97.0831C143.405 100.738 147.671 102.881 152.075 102.11C154.567 101.639 156.898 100.539 158.844 98.9126C160.791 97.2863 162.288 95.1885 163.194 92.8193C161.539 93.5798 160.016 93.7314 158.33 94.4941Z" fill="white"/>
<path d="M158.33 94.494C155.915 95.4642 153.422 96.2296 150.878 96.782C150.563 98.593 150.105 100.376 149.506 102.114C150.413 102.266 151.34 102.266 152.247 102.114C154.739 101.644 157.07 100.544 159.017 98.9174C160.963 97.2911 162.46 95.1932 163.366 92.8237C161.539 93.5797 160.016 93.7313 158.33 94.494Z" fill="black"/>
<path d="M176.007 111.246C176.159 100.586 175.093 95.8586 172.198 83.9839C179.054 98.1488 183.317 100.281 187.585 103.936C183.574 106.123 179.707 108.565 176.007 111.246Z" fill="#EF6767"/>
<path d="M115.849 93.7314C112.802 92.971 108.996 92.8193 106.862 95.1028C105.848 96.2407 105.257 97.6927 105.187 99.215C105.122 101.589 105.548 103.951 106.439 106.153C107.33 108.354 108.667 110.348 110.365 112.008C116.038 118.23 123.777 122.181 132.143 123.125C133.194 123.37 134.29 123.344 135.329 123.051C136.367 122.759 137.315 122.208 138.084 121.45C138.755 120.41 139.075 119.182 138.998 117.947C138.611 114.228 137.186 110.692 134.886 107.745C129.708 100.738 124.53 95.8633 115.849 93.7314Z" fill="#F9BDB4"/>
<path d="M132.297 115.663C126.813 103.327 119.046 101.043 111.585 98.4521C116.67 101.592 121.242 105.496 125.139 110.028C122.401 109.618 119.603 109.987 117.066 111.094C122.55 112.008 124.376 112.923 132.297 115.663Z" fill="#EF6767"/>
<path d="M176.616 75.1509C180.772 72.6843 185.381 71.0788 190.17 70.43C194.969 69.8446 199.807 69.641 204.638 69.8212C201.968 67.3204 198.643 65.6298 195.049 64.9464C192.841 64.5674 190.599 64.418 188.359 64.5004C183.558 64.3227 178.763 64.9923 174.194 66.4784C175.369 69.2536 176.183 72.1683 176.616 75.1509ZM161.842 77.8938C157.046 76.9758 152.105 77.1281 147.374 78.3398C142.684 79.4735 138.098 81.002 133.666 82.9091C135.243 79.5975 137.725 76.7996 140.825 74.8387C142.737 73.6809 144.783 72.7599 146.917 72.0958C151.316 70.2286 156.01 69.1492 160.783 68.9069C160.901 71.9255 161.255 74.9303 161.842 77.8938ZM170.524 125.411C166.49 125.454 162.564 124.109 159.405 121.602L161.082 119.47C169.306 125.868 179.814 121.756 186.515 116.272L188.19 118.252C183.255 122.526 177.042 125.043 170.524 125.411Z" fill="black"/>
<path d="M125.748 65.562C132.754 67.3883 140.216 64.496 146.156 60.23C152.097 55.964 156.816 50.3311 162.299 45.7618C167.935 41.1925 174.787 37.3859 182.097 37.9947C190.018 38.6035 196.719 44.5442 200.526 51.5486C203.991 58.6834 206.206 66.3596 207.076 74.2433C213.168 64.6544 218.498 56.1179 224.59 46.5245C227.302 42.9563 229.082 38.7685 229.768 34.3397C229.965 31.8908 229.47 29.4358 228.339 27.2547C227.208 25.0736 225.487 23.254 223.372 22.0034C217.128 18.5 209.056 21.3946 202.964 25.2012C202.049 20.0231 201.592 13.6275 199.003 9.05822C196.414 4.48895 192.15 0.524012 186.821 0.0690916C179.515 -0.693568 173.418 5.09328 167.326 9.05376C160.265 13.5852 152.105 16.1119 143.719 16.3637C135.952 16.6692 128.185 14.8406 120.569 14.0802C112.802 13.3175 104.578 13.623 97.877 17.5835C91.1758 21.544 86.6066 29.9176 89.2001 37.3815C90.42 40.3896 92.3541 43.0555 94.8353 45.1485C97.7753 47.9547 101.11 50.3153 104.734 52.1552C99.5055 53.2862 94.9306 56.4264 91.9956 60.899C89.0606 65.3716 88.0005 70.8184 89.044 76.0653C89.3318 77.6978 89.9535 79.2534 90.8703 80.6345C93.4594 84.2895 98.3341 85.2038 102.75 86.2697C112.194 88.5533 121.635 93.5797 125.748 102.413C130.165 90.3819 128.945 77.74 125.748 65.562Z" fill="#EF6767"/>
<path d="M138.389 97.5402C141.13 92.8193 147.222 87.6412 151.486 87.1841C153.741 87.0621 155.991 87.4986 158.037 88.4548C160.083 89.411 161.861 90.8573 163.214 92.6654C155.373 96.0163 146.915 97.6773 138.389 97.5402Z" fill="#EF6767"/>
<path d="M134.732 96.782C145.06 97.0118 155.339 95.307 165.04 91.7556C160.865 95.1819 155.885 97.4881 150.572 98.4568C145.237 99.305 139.772 98.7272 134.732 96.782Z" fill="black"/>
<path d="M199.917 86.8786C197.433 87.8508 194.889 88.6649 192.302 89.316C189.787 89.7517 187.238 89.9554 184.687 89.9248C183.351 89.9907 182.014 89.8362 180.728 89.4676C184.992 93.1226 189.256 95.2656 193.673 94.494C196.166 94.0247 198.496 92.9242 200.443 91.2978C202.389 89.6714 203.885 87.5733 204.79 85.2039C203.115 85.9643 201.592 86.1182 199.917 86.8786Z" fill="white"/>
<path d="M199.917 86.8786C197.497 87.8485 194.998 88.6124 192.449 89.1621C192.135 90.9732 191.676 92.7562 191.078 94.494C191.985 94.6457 192.911 94.6457 193.818 94.494C196.311 94.0244 198.642 92.9239 200.588 91.2976C202.535 89.6712 204.032 87.5733 204.937 85.2039C203.115 85.9643 201.592 86.1182 199.917 86.8786Z" fill="black"/>
<path d="M179.961 89.9246C182.704 85.2037 188.794 80.0256 193.06 79.5685C195.315 79.4469 197.564 79.8836 199.61 80.8397C201.655 81.7959 203.433 83.242 204.786 85.0498C196.945 88.4011 188.487 90.0622 179.961 89.9246Z" fill="#EF6767"/>
<path d="M176.311 89.3159C186.638 89.5458 196.917 87.8425 206.618 84.2939C202.441 87.7149 197.462 90.0171 192.15 90.9839C186.814 91.7573 181.369 91.1839 176.311 89.3159Z" fill="black"/>
<path d="M193.977 309.997C178.551 306.387 163.935 299.931 150.877 290.959C146.804 288.432 143.323 285.055 140.673 281.06C137.328 275.273 137.328 268.267 137.475 261.566C137.622 254.864 137.778 248.163 137.921 241.462C138.224 225.776 137.767 210.545 140.053 195.011C140.709 188.882 142.248 182.88 144.622 177.191C147.044 171.432 151.336 166.657 156.805 163.637C158.785 167.292 162.603 168.055 166.706 168.358C170.82 168.278 174.891 167.507 178.748 166.075C188.038 163.176 198.243 159.677 203.267 151.149C223.067 162.571 243.476 176.431 252.461 197.449C258.247 210.851 258.856 225.928 261.445 240.245C262.968 248.365 265.107 256.359 267.843 264.155C269.366 268.572 271.188 272.988 271.041 277.557C270.889 285.476 265.243 292.331 258.999 297.357C240.276 312.28 217.126 315.48 193.977 309.997Z" fill="#9778FF"/>
<path d="M160.928 203.235C160.149 203.788 159.617 204.623 159.446 205.563C159.276 206.502 159.48 207.471 160.016 208.262L197.926 262.783L203.256 265.983L203.702 266.592C203.849 266.801 204.071 266.946 204.322 266.996C204.573 267.046 204.833 266.997 205.049 266.86C205.265 266.723 205.42 266.507 205.481 266.259C205.543 266.011 205.506 265.748 205.379 265.526L204.933 264.917L203.867 258.825L165.955 204.301C165.717 203.877 165.391 203.508 165 203.219C164.608 202.931 164.159 202.729 163.683 202.628C163.207 202.527 162.715 202.529 162.24 202.634C161.765 202.739 161.318 202.944 160.928 203.235Z" fill="white"/>
<path d="M161.258 210.722L167.886 206.112L169.886 208.989L163.258 213.596L161.258 210.722Z" fill="black"/>
<path d="M163.214 255.93L169.152 239.025C170.282 235.291 171.868 231.711 173.873 228.365C177.376 222.567 182.86 218.464 188.344 214.352C190.194 212.681 192.452 211.527 194.891 211.007C196.119 210.816 197.373 211.105 198.394 211.814C199.414 212.523 200.124 213.597 200.374 214.814C201.434 214.792 202.474 215.104 203.348 215.704C204.222 216.304 204.886 217.162 205.247 218.159C205.526 219.201 205.578 220.292 205.401 221.356C205.401 222.879 205.247 224.403 205.247 225.926C206.161 225.774 206.77 226.686 207.076 227.6C207.329 228.506 207.276 229.469 206.924 230.341C206.627 231.565 206.165 232.744 205.553 233.844C205.858 237.956 206.467 242.222 206.77 246.332C205.797 246.303 204.845 246.039 203.996 245.561C203.147 245.083 202.427 244.407 201.898 243.589C200.867 241.941 199.388 240.621 197.634 239.783C197.466 239.707 197.285 239.667 197.101 239.667C196.917 239.667 196.735 239.707 196.568 239.783C196.111 239.934 195.957 240.392 195.654 240.849C192.911 247.539 190.933 255.012 185.449 259.886C182.546 262.434 178.931 264.029 175.093 264.456C172.221 264.856 169.3 264.207 166.869 262.627C164.431 260.957 162.299 258.68 163.214 255.93Z" fill="#F9BDB4"/>
<path d="M125.442 366.043C123.159 371.83 117.372 375.334 111.888 378.38C103.816 382.795 95.4397 386.604 87.9781 392.085C80.3081 397.216 74.3636 404.541 70.9208 413.103C69.5838 416.436 69.2143 420.079 69.8549 423.613C70.1208 425.376 70.7966 427.053 71.828 428.507C72.8593 429.962 74.2175 431.154 75.7934 431.989C80.3626 434.272 85.8462 432.598 90.4133 430.617C108.699 422.699 124.833 410.211 143.71 403.964C146.148 399.852 145.994 395.437 146.908 390.716C148.124 385.839 148.434 380.78 147.822 375.791C147.507 373.292 146.648 370.893 145.306 368.761C143.964 366.63 142.172 364.819 140.055 363.454C135.807 360.865 127.271 361.483 125.442 366.043Z" fill="#643CFF"/>
<path d="M330.591 331.014C337.194 331.776 343.686 333.31 349.932 335.584C356.633 338.019 363.334 341.828 366.229 348.377C369.275 355.533 366.532 364.063 361.202 369.698C355.873 375.334 348.409 378.226 340.947 380.206C327.697 383.709 313.837 384.472 300.283 385.69C291.602 386.45 282.92 387.67 274.239 388.736C246.217 392.392 218.244 396.406 190.322 400.778C187.423 401.224 183.317 400.932 182.709 398.037C182.583 397.262 182.688 396.467 183.012 395.751C188.344 377.019 204.487 363.314 221.544 354.021C252.764 336.812 289.164 330.263 324.956 330.72C326.026 330.709 329.371 330.863 330.591 331.014Z" fill="#FF465A"/>
<path d="M324.65 327.968C306.221 322.639 287.947 322.639 269.061 324.922C259.162 326.14 243.931 323.856 244.085 310.759C244.085 302.99 244.845 295.529 248.043 289.436C228.854 292.335 214.691 301.924 195.348 302.99C186.667 303.436 178.139 300.249 169.926 297.052C165.662 295.377 162.005 294.463 157.741 292.939C144.176 336.953 106.558 371.982 99.8573 417.679C98.8456 425.199 98.5901 432.801 99.0946 440.371C103.986 439.607 108.92 439.149 113.868 439C134.277 438.391 154.381 442.2 174.484 444.941C177.383 445.398 180.271 445.701 183.317 446.007C182.878 435.906 183.593 425.789 185.449 415.85C189.561 394.835 200.526 374.426 218.346 362.395C255.658 337.114 307.745 331.478 345.211 334.219C338.661 330.557 330.894 329.643 324.65 327.968Z" fill="#D70A32"/>
<path d="M100.618 283.192C99.2485 295.834 98.1826 309.388 103.963 320.81C104.43 322.046 105.163 323.164 106.11 324.085C107.058 325.006 108.196 325.707 109.444 326.14C113.405 327.054 116.602 323.241 118.888 319.896C131.888 299.794 139.396 276.638 140.666 252.733C140.8 251.707 140.695 250.665 140.361 249.686C139.449 247.554 136.86 246.946 134.574 246.489C127.721 245.423 110.664 239.799 106.4 247.403C103.963 251.818 103.657 258.825 102.897 263.697C102.134 270.247 101.38 276.796 100.618 283.192Z" fill="#EF6767"/>
<path d="M124.376 276.339C119.405 279.513 114.895 283.356 110.974 287.761C104.816 295.281 101.765 304.87 102.446 314.566C102.5 317.457 103.285 320.286 104.73 322.79C105.439 324.051 106.45 325.115 107.674 325.886C108.897 326.657 110.294 327.11 111.737 327.206C114.934 327.36 117.675 325.379 120.264 323.551C129.407 317.003 180.271 263.089 176.919 247.706C174.484 236.741 168.544 244.361 163.214 249.229C151.486 260.043 137.324 267.506 124.376 276.339Z" fill="#F9BDB4"/>
<path d="M198.089 147.798C214.08 145.514 240.276 148.103 252.309 159.068C266.623 172.002 275.459 191.965 291.907 201.712C285.815 207.042 279.571 212.068 273.175 217.099C266.058 222.953 257.738 227.165 248.808 229.436C241.629 211.144 232.971 193.468 222.918 176.585C217.586 167.752 210.876 157.853 200.528 156.787C198.722 160.151 196.252 163.114 193.268 165.496C190.283 167.878 186.847 169.63 183.166 170.646C174.303 172.596 165.045 171.577 156.818 167.747C147.983 182.675 142.196 197.6 143.719 214.972C144.48 224.262 144.937 233.704 145.091 243.146C145.175 247.816 144.4 252.463 142.805 256.854C125.909 254.343 108.864 252.969 91.7847 252.741C95.288 240.405 98.943 228.211 102.446 215.884C105.035 207.205 107.473 198.37 112.194 190.602C121.337 175.215 138.084 166.541 156.513 158.936C158.125 160.686 160.078 162.088 162.251 163.057C164.425 164.026 166.773 164.541 169.152 164.572C173.845 164.749 178.52 163.913 182.86 162.121C186.286 160.982 189.423 159.111 192.053 156.637C194.683 154.164 196.742 151.147 198.089 147.798Z" fill="#643CFF"/>
<path d="M174.941 343.654L186.821 206.739H305.156L309.116 212.829L178.9 349.746L174.941 343.654Z" fill="#14D29B"/>
<path d="M178.9 349.746L275.002 344.568L309.116 212.829H190.933L178.9 349.746Z" fill="#008C6E"/>
<path d="M246.977 264.924C246.41 265.31 245.734 265.504 245.048 265.476C244.363 265.449 243.704 265.201 243.17 264.77C242.329 263.816 241.258 263.091 240.059 262.665C238.86 262.239 237.573 262.125 236.318 262.335C234.653 262.826 233.119 263.682 231.828 264.842C230.537 266.001 229.521 267.434 228.854 269.036C228.013 271.183 227.62 273.479 227.696 275.783C227.773 278.087 228.319 280.352 229.3 282.438C230.022 284.34 231.294 285.984 232.955 287.159C235.695 288.682 237.218 287.005 240.113 287.005C241.115 287.096 242.095 287.354 243.012 287.768C244.738 288.093 246.517 287.984 248.19 287.453C249.864 286.921 251.379 285.983 252.601 284.722C255.116 282.13 257.268 279.21 258.999 276.041C257.867 275.951 256.8 275.481 255.97 274.706C255.14 273.932 254.597 272.899 254.43 271.777C254.278 270.488 254.482 269.183 255.019 268.002C255.555 266.82 256.405 265.809 257.476 265.076C256.683 264.073 255.587 263.354 254.352 263.024C253.116 262.695 251.808 262.773 250.621 263.247C249.566 263.546 248.348 264.46 246.977 264.924Z" fill="white"/>
<path d="M255.964 253.647C253.244 253.489 250.571 254.405 248.519 256.198C246.468 257.992 245.203 260.519 244.997 263.236C245.151 263.089 254.593 263.394 255.964 253.647Z" fill="white"/>
<path d="M208.696 228.487C209.105 225.232 207.203 222.313 204.449 221.967C201.694 221.621 199.13 223.979 198.721 227.235C198.312 230.49 200.214 233.41 202.968 233.755C205.723 234.101 208.287 231.743 208.696 228.487Z" fill="black"/>
<path d="M221.392 331.775L220.478 337.564L248.349 337.107L249.415 330.709L221.392 331.775Z" fill="white"/>
<path d="M296.628 283.955C295.964 284.819 295.136 285.544 294.191 286.087C291.45 287.913 288.707 289.742 285.815 291.568C285.509 291.722 285.206 291.874 285.052 291.722C284.898 291.57 284.9 291.416 284.749 291.416C284.443 290.502 285.052 289.742 285.509 288.979C286.423 287.61 287.489 286.238 288.408 285.021C289.584 283.512 290.969 282.179 292.52 281.06C293.432 280.451 296.327 278.928 297.544 279.689C298.608 280.146 297.237 283.192 296.628 283.955Z" fill="#F9BDB4"/>
<path d="M295.105 285.476C295.646 285.058 296.156 284.601 296.628 284.106C297.237 283.344 298.608 280.298 297.694 279.689C296.474 278.928 293.582 280.451 292.668 281.06C291.083 282.138 289.692 283.477 288.555 285.021C288.15 285.491 287.792 286.001 287.49 286.544C289.96 285.805 292.527 285.445 295.105 285.476Z" fill="#EF6767"/>
<path d="M301.349 272.227C301.321 274.531 301.066 276.827 300.586 279.08C300.511 279.868 300.192 280.613 299.674 281.212C298.763 282.06 297.574 282.547 296.329 282.583C291.759 283.041 287.19 283.346 282.621 283.498C281.401 283.599 280.174 283.547 278.966 283.344C278.849 283.341 278.733 283.313 278.628 283.26C278.523 283.208 278.43 283.133 278.358 283.041C278.054 282.735 278.206 282.126 278.511 281.669C279.004 280.82 279.68 280.092 280.489 279.537C282.826 278.024 285.488 277.085 288.257 276.797C291.457 276.186 294.806 275.577 298.004 274.968C299.248 274.225 300.375 273.301 301.349 272.227Z" fill="#F9BDB4"/>
<path d="M291.461 278.623C294.507 278.623 297.551 278.623 300.751 278.471C301.187 276.419 301.392 274.325 301.36 272.227C300.446 272.988 299.38 274.511 298.162 274.662C294.962 275.273 291.613 275.882 288.415 276.491C285.895 276.84 283.466 277.667 281.257 278.928C284.595 278.775 288.098 278.623 291.461 278.623Z" fill="#EF6767"/>
<path d="M302.109 259.891C302.779 262.497 303.288 265.141 303.632 267.81C304.13 269.749 303.914 271.803 303.024 273.596C302.184 274.556 301.158 275.335 300.008 275.885C298.858 276.435 297.608 276.745 296.334 276.797C290.241 277.862 284.149 278.775 278.21 279.843C277.961 279.93 277.695 279.962 277.432 279.936C277.168 279.909 276.914 279.825 276.687 279.689C276.474 279.438 276.343 279.128 276.313 278.8C276.283 278.472 276.355 278.143 276.52 277.858C277.931 275.361 280.206 273.465 282.916 272.526C286.716 270.862 290.636 269.488 294.643 268.414L296.015 262.933L302.109 259.891Z" fill="#F9BDB4"/>
<path d="M288.861 271.007C293.763 269.801 298.754 268.987 303.786 268.572C303.81 268.308 303.757 268.044 303.632 267.81C303.186 265.221 302.72 262.48 302.109 259.891L296.019 263.089L294.648 268.572C290.633 269.621 286.711 270.996 282.92 272.684C281.998 273.019 281.127 273.48 280.331 274.054C283.015 272.638 285.887 271.613 288.861 271.007Z" fill="#EF6767"/>
<path d="M298.151 255.17C292.746 258.422 287.602 262.088 282.764 266.135C281.849 266.789 281.072 267.617 280.478 268.572C280.175 269.181 279.566 270.704 280.327 271.313C280.935 271.759 282.001 271.161 282.61 271.007C283.804 270.745 284.975 270.388 286.113 269.941L294.338 267.201C296.775 266.286 299.364 265.526 301.802 264.46C302.798 264.05 303.723 263.484 304.542 262.783C305.097 262.055 305.51 261.229 305.76 260.348C306.817 257.672 307.435 254.843 307.588 251.97C307.437 249.071 303.933 245.574 301.193 244.508" fill="#F9BDB4"/>
<path d="M164.431 112.769C164.128 112.617 163.823 112.617 163.671 112.923C163.517 113.074 163.823 113.532 163.974 113.532C164.071 113.556 164.173 113.549 164.266 113.511C164.358 113.473 164.436 113.406 164.487 113.321C164.539 113.235 164.561 113.135 164.551 113.036C164.541 112.936 164.499 112.843 164.431 112.769ZM156.207 105.156C156.281 105.042 156.321 104.91 156.321 104.774C156.321 104.639 156.281 104.506 156.207 104.393C155.598 103.633 154.684 104.393 154.381 105.002C154.227 105.611 154.99 105.916 155.447 105.764C155.614 105.735 155.772 105.664 155.905 105.557C156.038 105.451 156.142 105.313 156.207 105.156ZM149.203 113.378C149.049 113.226 148.897 113.074 148.757 113.074C149.203 112.769 147.385 112.466 147.843 113.226C147.848 113.305 147.881 113.379 147.937 113.436C147.993 113.492 148.067 113.526 148.146 113.532C148.072 113.616 148.032 113.724 148.032 113.836C148.032 113.948 148.072 114.056 148.146 114.14C148.3 114.446 148.592 114.446 148.908 114.292C149.141 114.098 149.299 113.829 149.354 113.532C149.355 113.511 149.352 113.491 149.344 113.472C149.337 113.454 149.326 113.437 149.312 113.422C149.297 113.408 149.28 113.396 149.262 113.389C149.243 113.381 149.223 113.377 149.203 113.378ZM161.994 104.545C161.994 104.241 161.842 104.099 161.548 104.241C161.394 104.393 161.243 104.393 161.102 104.699C161.094 104.779 161.103 104.861 161.129 104.938C161.155 105.015 161.198 105.085 161.254 105.145C161.405 105.296 161.7 105.145 161.863 104.991C161.915 104.93 161.954 104.859 161.977 104.782C162 104.705 162.005 104.624 161.994 104.545ZM165.346 107.896C165.287 107.84 165.216 107.798 165.139 107.772C165.062 107.745 164.981 107.736 164.9 107.745C164.782 107.747 164.666 107.775 164.561 107.827C164.456 107.88 164.363 107.955 164.291 108.048C164.139 108.2 164.291 108.353 164.443 108.494C164.748 108.494 164.889 108.342 165.051 108.342C165.346 108.353 165.497 108.048 165.346 107.896ZM158.33 109.716C158.271 109.66 158.201 109.617 158.124 109.591C158.047 109.565 157.965 109.556 157.884 109.564C157.769 109.58 157.663 109.634 157.581 109.716C157.429 109.87 157.429 109.87 157.429 110.022V110.327C157.581 110.479 157.875 110.63 158.038 110.479C158.341 110.479 158.484 110.033 158.341 109.716H158.33ZM152.247 106.068C152.095 106.068 152.095 106.068 152.095 106.222C151.943 106.373 152.095 106.668 152.401 106.525C152.444 106.511 152.484 106.487 152.517 106.455C152.55 106.423 152.575 106.384 152.589 106.34C152.604 106.297 152.609 106.251 152.602 106.205C152.596 106.16 152.579 106.116 152.552 106.079L152.247 106.068ZM164.574 104.699C164.728 104.699 164.728 104.393 164.574 104.241C164.423 104.241 164.271 104.393 164.423 104.545C164.422 104.565 164.425 104.585 164.433 104.604C164.44 104.623 164.451 104.64 164.466 104.654C164.48 104.668 164.497 104.68 164.515 104.687C164.534 104.695 164.554 104.699 164.574 104.699ZM149.506 109.716C149.506 109.87 149.506 110.022 149.658 110.022C149.809 110.022 149.812 110.022 149.812 109.87C149.963 109.716 149.658 109.571 149.506 109.716ZM147.223 108.962C147.324 108.968 147.426 108.952 147.521 108.916C147.616 108.88 147.702 108.824 147.774 108.752C147.846 108.68 147.902 108.593 147.938 108.498C147.974 108.403 147.989 108.301 147.983 108.2C147.981 108.072 147.95 107.947 147.891 107.834C147.831 107.721 147.747 107.623 147.643 107.549C147.539 107.475 147.419 107.427 147.293 107.407C147.167 107.388 147.038 107.399 146.917 107.439C146.157 107.745 146.157 108.657 147.069 108.962H147.223ZM142.497 105.764C142.192 105.318 141.277 105.611 141.126 106.222C140.974 106.525 141.277 106.982 141.429 107.134C141.708 107.155 141.986 107.074 142.21 106.907C142.434 106.739 142.59 106.495 142.649 106.222C142.653 106.068 142.497 105.925 142.497 105.764ZM142.196 112.312C141.891 111.703 140.979 112.617 141.75 112.923C142.196 113.074 142.348 112.615 142.196 112.312ZM141.434 111.857C141.428 111.574 141.32 111.303 141.13 111.094C140.684 110.943 140.216 111.246 140.368 111.703C140.379 111.861 140.447 112.01 140.559 112.122C140.671 112.234 140.82 112.301 140.979 112.312C141.097 112.305 141.209 112.255 141.293 112.171C141.376 112.087 141.427 111.975 141.434 111.857ZM138.541 110.334C138.511 110.224 138.46 110.12 138.391 110.03C138.321 109.939 138.234 109.864 138.135 109.807C138.036 109.75 137.927 109.714 137.814 109.699C137.7 109.685 137.585 109.693 137.475 109.723C137.229 109.758 136.998 109.862 136.809 110.024C136.62 110.186 136.481 110.399 136.409 110.637C136.341 110.848 136.333 111.075 136.386 111.29C136.44 111.506 136.553 111.702 136.713 111.857C137.018 112.16 137.475 112.617 137.932 112.617C138.844 112.617 138.844 110.943 138.541 110.334ZM154.381 112.769C154.227 112.769 154.227 112.769 154.075 112.923C153.924 113.226 154.521 113.369 154.521 113.074C154.684 112.923 154.539 112.769 154.381 112.769ZM152.858 112.923C152.704 112.769 152.552 112.617 152.247 112.769C151.941 112.921 151.801 113.074 151.801 113.378C151.762 113.466 151.743 113.562 151.746 113.659C151.748 113.756 151.771 113.851 151.813 113.938C151.855 114.025 151.916 114.101 151.991 114.162C152.066 114.224 152.153 114.268 152.247 114.292C153.161 114.597 153.315 113.378 152.858 112.923ZM210.425 102.109C210.274 101.956 210.122 101.804 209.979 101.804C210.425 101.498 208.608 101.195 209.065 101.956C209.07 102.035 209.103 102.109 209.159 102.166C209.215 102.222 209.289 102.256 209.368 102.261C209.295 102.346 209.254 102.454 209.254 102.566C209.254 102.677 209.295 102.786 209.368 102.87C209.522 103.175 209.814 103.175 210.131 103.022C210.368 102.83 210.53 102.56 210.588 102.261L210.425 102.109ZM210.735 98.6062C210.735 98.7578 210.735 98.9094 210.887 98.9094C211.038 98.9094 211.041 98.9094 211.041 98.7578C211.181 98.4523 210.735 98.3006 210.735 98.6062ZM208.751 92.8193C208.599 92.5138 208.305 92.3733 207.836 92.6654C207.39 93.1114 207.685 93.5797 208.282 93.4281C208.751 93.2742 208.902 92.9709 208.751 92.8193ZM208.293 97.6919C208.395 97.698 208.497 97.6826 208.592 97.6466C208.687 97.6106 208.773 97.5548 208.845 97.483C208.918 97.4111 208.974 97.3248 209.01 97.2297C209.046 97.1347 209.062 97.033 209.056 96.9314C209.055 96.8037 209.023 96.6781 208.964 96.5648C208.905 96.4516 208.821 96.3538 208.717 96.2795C208.613 96.2052 208.493 96.1564 208.367 96.1372C208.24 96.1179 208.111 96.1288 207.99 96.1688C207.227 96.4743 207.227 97.3863 208.142 97.6919H208.293ZM203.724 94.494C203.421 94.0369 202.507 94.3424 202.355 94.94C202.201 95.2433 202.507 95.7005 202.658 95.8521C202.937 95.8734 203.215 95.7927 203.439 95.625C203.664 95.4573 203.819 95.2139 203.878 94.94C203.821 94.8815 203.778 94.8112 203.752 94.7341C203.725 94.6571 203.716 94.5751 203.724 94.494ZM203.421 101.044C203.115 100.433 202.201 101.347 202.975 101.652C203.267 101.804 203.421 101.347 203.421 101.044ZM202.658 100.586C202.653 100.304 202.545 100.033 202.355 99.8237C201.909 99.6721 201.441 99.9754 201.592 100.433C201.605 100.59 201.674 100.737 201.785 100.849C201.896 100.961 202.044 101.03 202.201 101.044C202.263 101.053 202.326 101.047 202.386 101.027C202.446 101.007 202.5 100.974 202.544 100.929C202.588 100.885 202.622 100.831 202.642 100.771C202.661 100.712 202.667 100.649 202.658 100.586ZM199.766 99.0633C199.736 98.9531 199.685 98.8499 199.615 98.7595C199.546 98.6691 199.459 98.5933 199.36 98.5366C199.261 98.4798 199.151 98.4431 199.038 98.4287C198.925 98.4142 198.81 98.4222 198.7 98.4523C198.454 98.4872 198.222 98.5918 198.033 98.7538C197.845 98.9158 197.706 99.1284 197.634 99.3666C197.565 99.5779 197.557 99.8043 197.611 100.02C197.664 100.236 197.778 100.432 197.937 100.586C198.243 100.89 198.7 101.347 199.157 101.347C200.069 101.347 200.069 99.6721 199.766 99.0633ZM207.39 94.3424C207.087 93.8964 206.173 94.1885 206.021 94.7884C205.869 95.0939 206.173 95.5511 206.324 95.7027C206.604 95.7234 206.881 95.6422 207.106 95.4742C207.33 95.3061 207.486 95.0625 207.544 94.7884C207.549 94.626 207.494 94.4674 207.39 94.3424ZM207.076 100.89C206.77 100.281 205.858 101.195 206.63 101.498C207.076 101.498 207.227 101.195 207.076 100.89ZM206.313 100.433C206.307 100.151 206.2 99.8805 206.01 99.6721C205.564 99.5205 205.096 99.8237 205.247 100.281C205.258 100.439 205.326 100.588 205.438 100.7C205.551 100.812 205.7 100.879 205.858 100.89C206.161 100.738 206.313 100.586 206.313 100.433ZM148.295 119.927C147.99 119.776 147.686 119.776 147.533 120.079C147.381 120.233 147.686 120.69 147.838 120.69C147.935 120.715 148.037 120.708 148.13 120.67C148.222 120.632 148.3 120.565 148.351 120.479C148.402 120.393 148.425 120.293 148.415 120.194C148.405 120.094 148.363 120.001 148.295 119.927Z" fill="#EF6767"/>
<path d="M159.253 109.27C159.327 109.157 159.367 109.025 159.367 108.89C159.367 108.755 159.327 108.622 159.253 108.509C158.644 107.749 157.73 108.509 157.427 109.118C157.273 109.727 158.036 110.033 158.493 109.881C158.661 109.851 158.819 109.78 158.951 109.673C159.084 109.566 159.188 109.428 159.253 109.27ZM152.247 117.49C152.095 117.338 151.943 117.186 151.801 117.186C152.247 116.881 150.429 116.578 150.886 117.338C150.891 117.417 150.925 117.491 150.981 117.548C151.036 117.604 151.111 117.638 151.19 117.644C151.116 117.728 151.076 117.836 151.076 117.948C151.076 118.06 151.116 118.168 151.19 118.252C151.343 118.558 151.636 118.558 151.952 118.404C152.185 118.21 152.343 117.941 152.398 117.644C152.399 117.623 152.395 117.604 152.387 117.585C152.38 117.566 152.369 117.549 152.355 117.535C152.34 117.521 152.324 117.509 152.305 117.501C152.287 117.494 152.267 117.49 152.247 117.49ZM165.04 108.657C165.04 108.353 164.888 108.211 164.594 108.353C164.442 108.505 164.291 108.505 164.148 108.799C164.139 108.88 164.148 108.962 164.174 109.039C164.201 109.116 164.243 109.187 164.3 109.245C164.451 109.399 164.746 109.245 164.909 109.094C164.96 109.034 164.998 108.965 165.021 108.889C165.044 108.814 165.05 108.735 165.04 108.657ZM155.293 110.334C155.141 110.334 155.141 110.334 155.141 110.485C154.989 110.637 155.141 110.931 155.447 110.789C155.491 110.775 155.531 110.752 155.564 110.72C155.597 110.687 155.622 110.648 155.637 110.604C155.652 110.561 155.656 110.514 155.649 110.469C155.643 110.423 155.625 110.38 155.598 110.343L155.293 110.334ZM152.552 113.989C152.552 114.14 152.552 114.292 152.704 114.292C152.855 114.292 152.858 114.292 152.858 114.14C153.009 113.835 152.704 113.683 152.552 113.989ZM153.77 109.419C153.618 109.265 153.466 109.571 153.618 109.571C153.618 109.716 153.77 109.571 153.77 109.419ZM150.572 108.2C150.42 107.896 150.126 107.754 149.658 108.048C149.212 108.494 149.506 108.962 150.104 108.811C150.701 108.659 150.726 108.505 150.572 108.2ZM150.269 113.074C150.37 113.08 150.472 113.064 150.567 113.028C150.662 112.992 150.748 112.936 150.82 112.864C150.892 112.792 150.948 112.705 150.984 112.61C151.02 112.515 151.035 112.413 151.029 112.312C151.027 112.184 150.996 112.059 150.937 111.946C150.877 111.833 150.793 111.735 150.689 111.661C150.585 111.587 150.465 111.539 150.339 111.52C150.213 111.5 150.084 111.511 149.963 111.551C149.203 111.857 149.203 112.769 150.115 113.074H150.269ZM145.545 110.028C145.242 109.571 144.328 109.876 144.176 110.474C144.025 110.777 144.328 111.235 144.479 111.388C144.759 111.409 145.037 111.328 145.261 111.16C145.485 110.992 145.641 110.748 145.699 110.474C145.704 110.312 145.649 110.153 145.545 110.028ZM144.479 115.96C144.474 115.678 144.366 115.408 144.176 115.199C143.719 115.048 143.262 115.351 143.414 115.808C143.425 115.966 143.492 116.115 143.605 116.227C143.717 116.339 143.866 116.407 144.025 116.417C144.087 116.426 144.15 116.42 144.209 116.4C144.268 116.38 144.322 116.346 144.366 116.302C144.41 116.258 144.443 116.204 144.463 116.144C144.483 116.085 144.488 116.022 144.479 115.96ZM141.587 114.446C141.557 114.336 141.506 114.232 141.437 114.142C141.367 114.052 141.28 113.976 141.181 113.919C141.082 113.862 140.973 113.826 140.86 113.811C140.746 113.797 140.631 113.805 140.521 113.835C140.275 113.87 140.044 113.974 139.855 114.136C139.666 114.298 139.527 114.511 139.455 114.749C139.386 114.96 139.378 115.186 139.432 115.401C139.486 115.617 139.599 115.813 139.759 115.967C140.064 116.272 140.521 116.729 140.978 116.729C141.89 116.729 141.89 115.055 141.587 114.446Z" fill="#EF6767"/>
</g>
<defs>
<clipPath id="clip0_583_670">
<rect width="446" height="446" fill="white"/>
</clipPath>
</defs>
</svg>
