<svg width="438" height="465" viewBox="0 0 438 465" fill="none" xmlns="http://www.w3.org/2000/svg">
<g clip-path="url(#clip0_583_586)">
<path d="M88.914 270.702C88.914 268.235 77.8764 268.389 63.51 268.389C49.1436 268.389 36.9365 271.937 36.9365 274.404C36.9365 276.87 48.5435 278.874 62.9296 278.874C77.3157 278.874 88.914 273.169 88.914 270.702Z" fill="black"/>
<path d="M55.2143 219.364C55.2143 219.208 55.0675 219.055 55.0675 218.899C54.0514 215.507 56.0859 215.044 58.6985 216.278C61.0221 217.357 63.7815 221.212 66.2497 220.594C69.8807 219.664 67.5637 215.197 65.9606 213.349C63.2012 209.803 60.4418 206.565 57.9737 202.866C56.375 200.399 54.923 197.007 56.8108 194.847C59.0008 192.382 62.9099 194.382 65.089 196.707C67.2658 199.173 70.0252 202.103 73.0759 201.178C75.6886 197.016 73.0759 191.466 69.7361 188.074C66.3964 184.528 62.185 181.599 60.7309 176.972C59.7147 173.736 61.0221 169.265 64.2173 168.802C65.3857 168.832 66.5195 169.228 67.4756 169.942C68.4317 170.655 69.1673 171.653 69.5894 172.81C70.3612 175.166 71.4365 177.396 72.7846 179.439C74.2366 181.299 77.2873 182.368 79.0305 180.673C79.4741 180.13 79.7959 179.487 79.9719 178.793C80.1479 178.099 80.1735 177.371 80.0467 176.665C79.3377 172.908 77.504 169.495 74.8191 166.935C72.1593 164.346 70.1182 161.123 68.8645 157.53C67.8484 153.831 69.3025 149.207 72.6401 148.126C74.3095 147.788 76.0374 148.123 77.4872 149.064C78.937 150.006 80.0048 151.486 80.4825 153.217C81.4986 156.3 81.6432 160.771 84.6938 161.388C87.5978 162.004 89.4856 158.305 89.6301 155.222C89.9214 149.672 87.5978 144.276 87.0174 138.726C86.4371 133.176 88.1781 126.403 93.1166 124.85C97.328 123.455 102.12 126.71 103.863 131.016C105.363 135.524 105.26 140.459 103.572 144.892C102.12 149.363 100.087 153.68 98.7799 158.144C98.5501 158.681 98.4434 159.268 98.4685 159.858C98.4937 160.447 98.6499 161.021 98.9245 161.534C99.9406 162.929 102.264 162.306 103.427 160.918C104.59 159.53 105.179 157.682 106.476 156.603C109.235 154.289 113.738 156.756 114.609 160.455C114.892 162.31 114.689 164.211 114.022 165.951C113.356 167.691 112.252 169.203 110.832 170.323C108.026 172.553 105.012 174.47 101.835 176.042C99.6581 177.274 95.8826 179.432 94.8642 182.054C92.8319 187.295 101.835 181.899 102.851 181.124C105.321 179.12 109.242 177.579 111.274 180.194C111.712 180.895 111.969 181.705 112.02 182.543C112.071 183.382 111.914 184.22 111.565 184.975C108.37 194.07 94.1393 194.07 90.9441 203.165C93.4122 204.4 96.3162 202.7 98.6398 201.161C100.963 199.622 104.305 198.541 106.338 200.545C110.258 204.553 105.321 209.641 102.126 211.954C97.7703 215.037 90.7996 214.279 87.7489 218.738C87.4676 219.031 87.2523 219.387 87.1194 219.78C86.9864 220.173 86.9393 220.593 86.9814 221.009C87.0236 221.424 87.154 221.824 87.3628 222.178C87.5716 222.532 87.8534 222.832 88.1869 223.054C89.219 223.617 90.4182 223.728 91.5266 223.363C95.0131 222.747 99.0778 222.591 98.9332 227.834C98.9332 231.379 96.1738 233.846 93.7057 235.85C88.3314 240.168 76.8602 248.184 69.7449 244.639C62.196 240.173 57.5378 227.534 55.2143 219.364Z" fill="#FF465A"/>
<path d="M70.172 286.273C65.2335 256.048 73.5117 227.843 81.4987 200.555C87.8869 178.509 94.5686 155.682 94.2773 131.948H95.876C96.314 155.998 89.4856 178.816 83.0952 201.017C75.117 228.152 66.9768 256.057 71.913 285.975L70.172 286.273Z" fill="white"/>
<path d="M27.4758 250.814C27.3112 250.622 27.1144 250.464 26.8954 250.349C23.5557 247.113 25.7347 245.108 29.3636 244.646C32.7055 244.181 38.3688 246.65 40.9815 244.181C44.7571 240.479 38.9492 237.087 35.8985 235.855C30.5265 233.697 25.1522 232 19.7801 229.533C16.4404 227.85 12.5181 224.914 13.2452 221.059C14.1212 216.588 19.9247 216.125 24.136 217.204C28.3474 218.283 33.4304 219.826 36.3343 216.434C36.6256 209.806 30.0906 205.179 23.9915 203.484C17.8923 201.789 11.0705 201.48 6.41893 197.162C3.07918 194.079 1.77175 187.913 5.25604 185.137C7.8709 183.133 11.4997 184.207 14.2591 185.907C16.7148 188.073 19.3943 189.935 22.2461 191.459C25.2967 192.538 29.3614 191.613 30.233 188.374C30.3817 187.392 30.3289 186.388 30.0783 185.43C29.8277 184.473 29.3852 183.584 28.781 182.824C25.8771 178.662 21.0854 176.812 16.4382 175.27C11.791 173.729 6.99928 172.341 3.51718 168.795C0.0350786 165.249 -1.41908 158.774 1.76518 154.919C4.81585 151.374 10.7705 151.99 14.2482 155.229C17.4434 158.158 20.4941 163.092 24.4142 161.704C28.1897 160.309 28.0452 154.61 26.1662 150.911C22.8242 144.283 16.8718 139.656 12.5137 133.643C8.1556 127.631 5.97874 118.531 10.6259 112.986C14.6927 108.206 22.2439 108.515 27.0356 112.367C31.6392 116.576 34.72 122.353 35.7496 128.71C37.0636 134.878 37.3483 141.353 38.6535 147.675C38.7105 148.471 38.9526 149.239 39.3581 149.912C39.7636 150.584 40.3199 151.139 40.9771 151.527C43.1562 152.457 45.3352 149.986 45.7689 147.519C45.8514 145.089 46.0944 142.668 46.4959 140.274C48.2479 135.647 55.0632 135.185 58.403 138.733C61.7427 142.281 61.8894 148.135 60.4375 152.915C58.6531 157.598 56.3623 162.046 53.6112 166.168C51.8702 169.251 48.8195 174.494 49.3999 178.346C50.416 186.056 57.3868 173.106 58.1139 171.408C59.7104 167.247 63.3414 162.622 67.2615 164.317C68.2309 164.826 69.061 165.59 69.6722 166.537C70.2835 167.484 70.6554 168.582 70.7524 169.725C72.9314 182.675 56.375 192.849 58.4073 205.8C62.0384 205.493 64.2174 201.329 66.1052 197.939C67.8572 194.547 71.0415 190.692 74.5279 191.617C81.6432 193.477 79.3196 203.026 77.1428 207.96C74.0921 214.588 65.5358 218.752 64.6598 226.306C64.5321 226.858 64.5206 227.433 64.6263 227.99C64.732 228.547 64.9522 229.073 65.2712 229.529C65.5902 229.985 66.0001 230.361 66.4717 230.63C66.9433 230.899 67.465 231.054 67.9995 231.084C69.5336 230.939 70.9719 230.23 72.0664 229.08C75.6952 225.844 80.3424 222.761 83.6734 228.773C85.8634 232.935 84.2559 237.868 82.6572 241.877C79.1729 250.819 71.0502 268.549 60.2951 269.474C49.2597 270.086 35.6094 258.524 27.4758 250.814Z" fill="#FDB849"/>
<path d="M65.2335 294.136C63.8497 285.763 61.8589 277.515 59.2789 269.467C57.5269 263.455 55.6501 257.287 54.3426 251.121C52.7439 243.567 50.8562 235.857 48.9684 228.457C47.0705 221.099 45.3275 213.698 43.7408 206.258L43.3028 204.1C37.3504 175.579 31.2578 145.975 16.5848 120.693L18.3368 119.461C33.15 145.052 39.2491 174.807 45.2016 203.637L45.6396 205.797C47.2383 213.196 49.126 220.752 50.8671 227.843C52.7549 235.243 54.6427 242.956 56.2414 250.661C57.5789 256.814 59.2267 262.886 61.1776 268.851C63.8909 276.973 65.9317 285.331 67.2768 293.829L65.2335 294.136Z" fill="white"/>
<path d="M76.8515 381.551C82.079 343.316 83.8223 309.09 88.8965 270.702C72.6206 278.908 53.9762 280.069 36.9081 273.941C43.0072 308.321 48.5151 348.559 54.623 382.939C60.1505 388.798 71.0414 388.026 76.8515 381.551Z" fill="#643CFF"/>
<path d="M180.537 185.907C198.973 149.008 229.351 120.427 266.072 105.432C288.872 96.1806 314.429 92.6443 337.81 100.035C369.177 110.056 392.704 138.886 405.774 170.646C418.844 202.405 423.056 237.555 426.976 272.09C430.171 299.225 433.219 326.204 436.415 353.337C438.594 372.609 440.335 394.348 428.719 409.456C421.601 418.707 410.855 423.638 400.111 427.186C372.372 436.437 343.039 437.979 314.14 439.211C244.726 441.987 175.311 442.452 105.895 440.606C84.5472 439.99 62.0384 438.911 44.3213 426.268C36.6256 420.718 29.9461 412.855 27.7671 403.143C26.0151 395.28 27.4758 386.954 29.7994 379.091C43.4519 333.612 84.694 305.552 117.658 272.867C147.062 243.628 171.05 208.802 188.38 170.19" fill="#14D29B"/>
<path d="M436.27 353.337C433.075 326.204 430.024 299.225 426.831 272.09C422.909 237.555 418.697 202.559 405.627 170.646C397.06 149.679 383.846 129.944 366.864 116.222C370.616 122.234 373.872 128.578 376.595 135.185C384.728 155.229 388.504 176.967 390.972 198.397C392.594 212.464 393.418 226.621 393.44 240.793C393.44 251.277 395.475 268.228 387.196 275.945C385.618 277.416 383.773 278.529 381.776 279.219C379.779 279.908 377.67 280.158 375.578 279.953C378.389 281.833 380.455 284.739 381.386 288.123C391.263 314.18 376.45 345.167 364.396 367.831C354.086 387.41 339.43 404.062 319.814 413.311C310.956 417.628 246.042 440.446 249.964 412.232C249.667 415.562 248.93 418.831 247.774 421.943C245.451 427.495 241.675 429.037 236.303 429.5C204.889 432.504 173.271 432.192 141.914 428.57C131.604 427.335 121.149 425.949 110.983 424.099C101.833 422.557 91.5223 420.397 84.1157 414.231C80.776 411.455 78.1633 407.603 79.0349 402.976C79.7598 398.505 84.6983 394.497 81.5031 389.872C78.7437 385.864 72.6445 384.939 68.5821 383.244C64.8402 381.706 61.1587 380.009 57.5466 378.154C50.1401 374.455 41.4261 369.831 36.6343 362.43L36.4898 362.275C33.8186 367.665 31.5833 373.287 29.8081 379.08C27.4845 386.789 26.0325 395.122 27.7758 403.132C29.9548 412.843 36.4898 420.706 44.33 426.256C62.0471 438.9 84.5559 440.132 105.904 440.595C175.318 442.445 244.733 441.98 314.149 439.199C343.193 437.967 372.528 436.426 400.12 427.175C410.864 423.629 421.61 418.695 428.728 409.444C440.19 394.348 438.594 372.609 436.27 353.337Z" fill="#008C6E"/>
<path d="M163.838 339.155C158.396 341.78 153.909 346.218 151.057 351.796C149.17 355.651 148.009 359.968 145.105 363.051C139.006 369.373 128.113 367.213 121.869 373.225C131.599 371.068 141.619 374.155 150.777 378.315C159.936 382.474 168.783 387.41 178.658 389.261C190.265 391.418 202.185 388.796 214.092 387.866C225.999 386.936 238.78 388.331 247.639 396.808C246.623 385.552 254.027 375.378 262.885 369.057C271.744 362.735 282.055 358.727 290.188 351.326C302.671 340.073 308.339 322.652 315.021 306.772C321.702 290.892 329.542 275.938 345.225 269.926C337.965 269.154 333.607 266.84 330.114 260.521C326.63 254.353 325.903 246.803 325.611 239.398C325.006 226.911 325.201 214.395 326.194 201.936C327.79 188.83 332.146 174.184 323.143 168.479C307.025 158.305 252.422 185.284 243.563 203.94C231.801 228.452 231.518 257.591 220.618 282.413C209.436 307.395 187.508 327.746 163.838 339.155Z" fill="#008C6E"/>
<path d="M180.537 185.907C181.851 183.133 183.443 180.513 184.895 177.737C186.056 175.27 187.219 172.65 188.38 170.183L180.537 185.907Z" fill="#14D29B"/>
<path d="M220.618 351.642C222.37 358.889 224.249 366.29 228.314 372.302C230.204 374.923 232.672 378.006 231.656 381.244C230.78 384.481 227.009 385.559 223.958 386.794C216.987 389.568 211.615 395.427 205.952 400.512C200.142 405.601 193.031 409.916 185.62 408.528C185.22 408.482 184.833 408.348 184.483 408.136C184.134 407.924 183.829 407.638 183.588 407.296C182.712 405.754 184.464 404.213 185.778 403.288C193.038 397.891 196.088 388.333 201.316 380.779C203.404 378.211 205.162 375.359 206.543 372.3C209.011 365.978 206.835 358.887 204.791 352.412C208.278 351.234 211.887 350.509 215.538 350.252C216.429 350.103 217.34 350.149 218.214 350.388C219.088 350.627 219.906 351.054 220.618 351.642Z" fill="#9778FF"/>
<path d="M185.04 350.101C185.331 357.501 185.62 365.213 188.379 371.993C189.693 375.076 191.43 378.622 189.831 381.551C188.233 384.481 184.313 384.634 181.12 385.097C173.713 386.178 167.323 390.802 160.643 394.348C153.964 397.894 146.121 400.67 139.295 397.584C138.922 397.465 138.576 397.267 138.277 397.002C137.977 396.737 137.732 396.411 137.554 396.043C137.116 394.348 139.006 393.269 140.602 392.497C148.734 388.952 153.672 380.163 160.352 373.997C162.87 371.912 165.16 369.534 167.178 366.906C170.809 361.356 170.227 353.8 169.502 347.171C173.183 346.786 176.896 346.942 180.537 347.636C182.28 347.814 183.892 348.697 185.04 350.101Z" fill="#643CFF"/>
<path d="M238.916 47.3091C237.896 45.6391 237.237 43.75 236.985 41.7775C236.734 39.805 236.898 37.7979 237.464 35.9003C238.915 31.7707 241.762 28.3625 245.451 26.3399C250.547 23.369 256.509 22.544 262.152 24.0289C267.791 25.5531 272.703 29.2309 275.949 34.3589C279.289 39.7529 280.307 47.4626 276.387 52.5497C273.483 56.4045 268.4 57.6368 263.753 57.7925C256.053 57.7925 243.563 54.7073 238.916 47.3091Z" fill="black"/>
<path d="M237.464 50.2363C242.547 45.305 250.243 44.8423 256.777 46.9999C260.611 48.1321 264.045 50.4375 266.652 53.6285C267.943 55.2148 268.855 57.108 269.31 59.1479C269.765 61.1877 269.75 63.314 269.267 65.3465C268.731 67.3569 267.589 69.1248 266.014 70.3783C264.44 71.6318 262.521 72.3015 260.553 72.2843C258.836 72.0784 257.165 71.5568 255.617 70.7428C249.918 67.9213 244.388 64.7284 239.06 61.1824C234.849 58.4087 233.108 54.405 237.464 50.2363Z" fill="#D70A32"/>
<path d="M193.318 100.035C193.883 93.2338 195.822 86.6415 199.005 80.708C202.188 74.7746 206.538 69.6396 211.76 65.6534C217.117 61.6422 223.202 58.8581 229.627 57.4779C236.052 56.0978 242.677 56.1519 249.082 57.6368C252.676 58.3741 256.119 59.784 259.248 61.8008C264.138 65.3597 268.087 70.1897 270.719 75.8299C273.927 82.0947 276.181 88.8588 277.399 95.8714C278.681 103.516 278.731 111.336 277.545 118.998C277.253 121.938 276.164 124.726 274.412 127.024C272.66 129.322 270.318 131.032 267.671 131.948C261.483 134.311 254.722 134.365 248.502 132.102C234.705 127.324 220.032 123.776 206.673 117.764C202.752 115.904 198.25 114.527 195.637 110.826C193.557 107.693 192.724 103.816 193.318 100.035Z" fill="black"/>
<path d="M152.801 134.878C156.287 126.552 163.692 121.625 172.697 116.994C180.51 113.144 189.065 111.296 197.674 111.6C198.108 113.867 198.74 116.086 199.562 118.229C184.168 127.017 166.015 134.724 153.237 147.524C146.993 140.737 141.036 134.106 134.503 127.642C133.943 122.368 133.894 117.047 134.359 111.763C136.883 112.116 139.31 113.025 141.486 114.43C143.661 115.835 145.537 117.706 146.993 119.924C150.402 124.11 152.44 129.357 152.801 134.878Z" fill="#FDB849"/>
<path d="M277.692 176.812C269.393 161.732 264.613 144.764 263.751 127.324C263.313 130.251 260.702 131.795 258.668 133.953C254.015 138.249 249.064 142.166 243.857 145.671C248.014 159.363 250.884 173.46 252.424 187.753C257.043 189.222 261.986 189.059 266.51 187.288C271.299 185.447 274.786 181.129 277.692 176.812Z" fill="black"/>
<path d="M313.413 283.036C315.012 248.81 315.883 228.306 317.48 194.221C317.918 184.817 318.356 175.259 315.728 166.321C313.1 157.384 306.869 149.053 298.302 146.742C288.136 144.12 277.972 150.441 268.956 156.147C259.94 161.853 248.771 167.093 239.332 162.313C234.829 159.988 233.233 153.68 228.73 151.367C224.519 149.042 219.147 150.902 215.66 154.296C212.342 157.969 209.858 162.398 208.4 167.247C192.282 210.568 195.186 233.232 205.496 278.558C212.051 282.42 279.286 285.656 313.413 283.036Z" fill="#643CFF"/>
<path d="M252.857 281.957C252.277 278.103 249.518 272.86 248.21 269.17C248.355 269.479 259.537 269.479 262.152 269.479C278.126 269.944 294.971 270.874 309.057 279.037C311.236 280.269 313.849 281.504 313.413 283.662C312.833 286.128 310.218 286.591 308.33 286.591C299.162 286.613 290 286.098 280.885 285.05C276.238 284.585 271.591 284.278 266.943 283.655C265.491 283.499 253.002 282.72 252.857 281.957Z" fill="black"/>
<path d="M178.505 208.88C174.874 196.558 160.352 190.224 148.734 193.926C137.116 197.627 128.695 209.038 125.209 221.521C121.722 234.004 123.177 249.421 126.372 261.914C136.682 303.233 145.25 326.821 159.191 361.656C167.614 366.436 184.459 363.66 192.302 358.573C190.267 335.139 187.944 325.119 185.62 306.926C183.296 288.732 184.895 275.629 178.796 258.361C183.274 242.194 183.172 224.986 178.505 208.88Z" fill="#D70A32"/>
<path d="M210.459 142.895C212.18 146.837 214.658 150.355 217.734 153.222C220.81 156.089 224.416 158.242 228.321 159.544C236.743 162.011 242.556 160.474 249.96 156.154C256.089 152.282 261.152 146.769 264.643 140.168C268.134 133.566 269.931 126.106 269.854 118.536C269.128 105.307 266.229 92.3154 261.287 80.1474C258.383 73.0539 250.396 70.1244 243.57 68.4294C230.936 65.3465 211.475 65.8092 205.232 80.3009C200.149 91.8631 200.44 107.736 202.908 119.768C204.413 127.808 206.954 135.59 210.459 142.895Z" fill="#F7846C"/>
<path d="M211.471 83.3838C213.806 81.4505 216.587 80.2165 219.523 79.8101C222.46 79.4037 225.445 79.8397 228.169 81.0728C230.152 80.1725 232.322 79.8411 234.463 80.1116C236.604 80.3821 238.64 81.2452 240.368 82.6143C243.482 84.8282 245.947 87.9266 247.483 91.5562C249.235 95.1018 250.389 99.1101 252.422 102.502C253.247 104.106 254.366 105.519 255.713 106.657C257.059 107.795 258.607 108.636 260.264 109.131C263.312 109.903 268.104 109.131 269.994 106.511C269.703 97.7221 266.652 89.859 263.168 81.8424C261.661 77.9136 258.879 74.6873 255.325 72.747C251.547 70.5065 247.556 68.6976 243.418 67.3506C230.784 64.2677 210.163 64.8838 203.779 79.529C201.64 85.7695 200.415 92.3217 200.148 98.9567C202.606 92.823 206.504 87.4612 211.471 83.3838Z" fill="black"/>
<path d="M221.926 115.915C219.458 112.986 214.955 109.131 211.18 109.594C207.404 110.056 204.064 112.367 202.757 118.226C202.757 118.226 205.516 120.54 211.904 119.924C215.542 119.656 219.026 118.263 221.926 115.915ZM250.678 112.83C248.21 109.903 243.708 106.048 239.932 106.511C236.157 106.973 232.817 109.284 231.509 115.143C231.509 115.143 234.269 117.457 240.659 116.838C244.297 116.573 247.78 115.179 250.678 112.83Z" fill="white"/>
<path d="M212.34 109.594H211.18C207.404 110.059 204.064 112.367 202.757 118.226C202.757 118.226 205.516 120.54 211.904 119.924C213.031 119.805 214.148 119.598 215.246 119.305C213.91 116.205 212.934 112.944 212.34 109.594ZM241.24 106.511H239.788C236.012 106.976 232.672 109.284 231.365 115.143C231.365 115.143 234.124 117.457 240.515 116.838C241.642 116.735 242.76 116.529 243.854 116.222C242.565 113.129 241.685 109.86 241.24 106.511Z" fill="black"/>
<path d="M224.974 202.096C208.018 199.437 190.719 200.753 174.293 205.951C171.658 205.324 168.992 204.859 166.306 204.556C164.261 198.782 161.094 193.529 157.012 189.139C156.136 188.209 155.56 187.444 154.689 186.672C148.589 163.701 139.15 141.799 129.567 120.223C130.484 117.668 131.98 115.391 133.923 113.595C138.629 115.064 142.87 117.862 146.195 121.691C149.52 125.52 151.803 130.235 152.801 135.334C158.122 127.573 165.659 121.841 174.293 118.991C182.716 115.908 191.719 115.136 200.725 114.211C205.673 116.593 209.681 120.738 212.051 125.929C222.798 148.907 221.628 176.812 224.974 202.096Z" fill="white"/>
<path d="M242.983 135.803C241.543 138.444 239.617 140.751 237.319 142.585C236.25 143.477 235.011 144.111 233.688 144.445C232.321 144.881 230.87 144.934 229.477 144.599C228.737 144.317 228.049 143.9 227.445 143.366C226.513 142.584 225.767 141.58 225.266 140.437C230.967 138.118 236.919 136.561 242.983 135.803Z" fill="#DD4040"/>
<path d="M227.589 134.878C224.974 135.185 221.926 135.957 220.763 137.652C220.038 138.582 221.054 140.581 222.515 141.044C223.185 141.179 223.866 141.231 224.547 141.2C228.654 140.628 232.692 139.594 236.592 138.114C238.627 137.498 243.272 136.11 243.999 135.031C239.496 136.11 232.672 134.415 227.589 134.878Z" fill="black"/>
<path d="M175.31 222.137C193.462 209.35 210.744 203.791 231.812 209.65C225.421 176.042 221.792 156.154 214.822 125.32C193.618 115.915 164.43 129.019 154.555 140.581C152.365 140.274 149.908 139.651 147.729 139.349C146.654 136.085 145.03 133.056 142.937 130.407C140.812 127.354 138.322 124.607 135.53 122.235C132.71 119.865 129.25 118.515 125.656 118.382C136.209 141.778 144.619 166.198 150.768 191.303C156.723 193.463 160.063 199.476 162.675 205.486C164.736 209.938 166.249 214.653 167.178 219.515C169.84 220.552 172.555 221.427 175.31 222.137Z" fill="#FFD340"/>
<path d="M161.804 173.113C160.779 169.507 159.908 165.855 159.191 162.166C158.611 159.39 157.877 156.617 157.303 153.841C156.14 153.841 155.113 153.687 153.964 153.687C154.689 156.307 155.416 158.928 155.996 161.395C156.872 165.249 157.884 168.948 158.9 172.803C159.776 176.349 160.652 180.05 161.659 183.596C162.61 186.511 163.342 189.501 163.849 192.538C164.91 192.41 165.977 192.359 167.044 192.384C166.306 189.455 162.675 176.505 161.804 173.113ZM202.901 136.573C196.561 134.704 189.897 134.44 183.443 135.803C179.561 136.736 175.871 138.407 172.55 140.737C170.118 142.166 167.872 143.928 165.871 145.977C170.227 158.465 172.986 171.571 176.326 184.366C181.576 179.729 187.8 176.504 194.472 174.961C200.66 173.449 207.004 172.775 213.352 172.957C209.728 160.932 206.097 148.754 202.901 136.573Z" fill="#008C6E"/>
<path d="M164.999 205.797C162.967 194.233 147.865 139.193 147.718 139.193C146.642 135.93 145.018 132.901 142.926 130.251C140.8 127.199 138.311 124.453 135.519 122.081C132.7 119.71 129.24 118.359 125.645 118.226C136.202 141.623 144.615 166.043 150.768 191.15C156.723 193.307 160.063 199.32 162.675 205.332C164.621 209.55 166.084 213.999 167.034 218.585C166.307 214.43 165.726 210.113 164.999 205.797Z" fill="#FDB849"/>
<path d="M273.043 156.617C272.316 152.453 271.446 148.444 270.719 144.294C267.621 148.76 263.661 152.473 259.103 155.184C254.545 157.896 249.495 159.544 244.29 160.018C244.199 162.806 243.956 165.586 243.563 168.344C244.08 169.435 244.866 170.356 245.839 171.008C246.811 171.66 247.932 172.019 249.082 172.045C251.413 171.977 253.698 171.34 255.761 170.185C262.296 167.254 267.524 161.548 273.043 156.617Z" fill="#FF465A"/>
<path d="M248.784 104.044C247.819 103.083 246.673 102.353 245.421 101.901C244.169 101.448 242.84 101.285 241.524 101.421C238.92 101.73 236.302 101.885 233.682 101.886C232.359 101.885 231.062 101.496 229.934 100.761C228.807 100.027 227.892 98.9759 227.291 97.7244C230.197 97.571 233.101 96.4922 236.005 96.3294C238.68 95.9861 241.392 96.1953 243.992 96.9455C245.33 97.544 246.486 98.5239 247.332 99.7768C248.177 101.03 248.68 102.506 248.784 104.044ZM218.731 98.3475C218.36 99.5587 217.717 100.656 216.856 101.543C215.995 102.43 214.944 103.08 213.792 103.437C211.733 103.898 209.647 104.209 207.549 104.367C206.426 104.504 205.347 104.908 204.391 105.549C203.436 106.19 202.629 107.051 202.03 108.068C201.884 106.704 202.091 105.323 202.628 104.073C203.166 102.824 204.013 101.754 205.08 100.977C207.034 99.66 209.301 98.9645 211.615 98.973C213.792 98.8125 216.698 99.7262 218.731 98.3475Z" fill="black"/>
<path d="M226.718 125.783C227.277 121.015 226.467 116.18 224.394 111.909C224.775 114.462 224.489 117.077 223.568 119.469C222.646 121.861 221.124 123.938 219.167 125.476C221.604 126.345 224.225 126.452 226.718 125.783Z" fill="#DD4040"/>
<path d="M272.898 106.355C271.377 106.442 269.891 106.872 268.539 107.616C267.187 108.36 266 109.401 265.056 110.67C264.042 112.387 263.167 114.192 262.441 116.066C261.943 117.002 261.276 117.824 260.479 118.485C259.682 119.147 258.769 119.635 257.794 119.921C254.309 120.386 252.277 116.529 250.825 113.137C246.322 103.116 244.435 91.7073 238.342 82.4468C237.274 80.5121 235.643 78.9978 233.695 78.1316C232.721 77.7305 231.644 77.7121 230.659 78.0796C229.674 78.4471 228.844 79.1763 228.321 80.1358C228.441 79.3948 228.699 78.6865 229.079 78.0519C229.459 77.4173 229.953 76.869 230.534 76.4387C231.115 76.0084 231.771 75.7047 232.463 75.5451C233.155 75.3855 233.87 75.3733 234.567 75.509C235.963 75.8397 237.285 76.4594 238.456 77.3327C239.627 78.206 240.624 79.3157 241.391 80.5985C247.636 89.3846 248.217 101.103 252.864 110.97C253.589 112.665 254.616 115.285 256.495 114.978C259.254 114.513 260.706 111.433 262.447 109.428C265.056 106.511 269.267 106.048 272.898 106.355Z" fill="black"/>
<path d="M269.847 102.347C270.616 101.593 271.552 101.057 272.567 100.787C273.582 100.518 274.645 100.524 275.658 100.805C276.708 101.337 277.602 102.164 278.242 103.197C278.881 104.23 279.243 105.429 279.286 106.664C280.013 112.06 277.834 117.457 275.075 122.081C274.158 123.769 272.98 125.28 271.591 126.552C271.171 126.996 270.672 127.348 270.124 127.588C269.576 127.827 268.988 127.949 268.396 127.947C266.508 127.794 265.492 125.634 264.911 123.783C263.313 116.685 264.333 106.973 269.847 102.347Z" fill="#F7846C"/>
<path d="M275.222 115.915C272.171 117.31 269.848 121.002 267.524 123.469C268.005 119.757 268.783 116.095 269.848 112.523C271.01 108.977 272.027 105.739 275.075 104.506C273.654 106.337 272.838 108.612 272.751 110.982C272.462 112.995 272.171 116.685 275.222 115.915Z" fill="#DD4040"/>
<path d="M195.931 358.58C190.505 362.779 184.14 365.4 177.467 366.184C170.794 366.969 164.043 365.888 157.884 363.051C156.073 359.162 154.521 355.144 153.237 351.026C160.499 354.109 183.007 353.493 192.155 347.018C192.882 350.87 194.77 354.418 195.931 358.58Z" fill="white"/>
<path d="M305.426 282.42C307.008 300.456 303.682 318.595 295.843 334.684C291.485 344.088 285.532 353.184 276.818 357.808C269.992 361.073 262.499 362.452 255.036 361.816C250.305 361.938 245.617 360.827 241.384 358.58C237.319 356.113 232.961 352.258 233.108 347.171C234.031 351.833 234.227 356.624 233.688 361.354C222.902 366.294 210.993 367.794 199.417 365.669C197.818 365.362 194.334 355.495 193.607 353.798C191.575 349.482 189.831 345.011 188.09 340.694C184.459 331.598 181.12 322.347 177.778 312.943C171.098 294.289 163.543 275.633 159.916 256.055C156.147 235.86 155.271 204.716 177.633 196.23C189.831 191.606 202.901 199.006 211.76 209.18C229.768 229.84 239.207 246.799 253.002 274.241C270.283 275.326 291.489 274.866 305.426 282.42Z" fill="#FF465A"/>
<path d="M274.93 346.246C269.331 346.245 263.828 344.705 258.957 341.775C254.817 339.048 251.176 335.548 248.21 331.445C241.24 322.35 236.603 311.557 232.526 300.611C228.605 290.283 223.958 282.727 220.618 272.246C216.407 259.296 211.471 245.576 210.599 227.229C210.517 230.03 209.976 232.795 209.001 235.399C207.549 238.02 206.097 238.175 203.628 235.09C202.901 234.16 198.11 224.3 197.238 222.602C198.114 225.532 198.552 228.615 199.126 231.544C199.732 233.745 199.978 236.04 199.853 238.329C199.27 242.184 194.19 238.794 192.155 238.02C194.625 240.486 197.383 243.879 199.126 246.036C201.32 248.782 203.356 251.666 205.225 254.671C209.676 262.555 213.42 270.865 216.407 279.493C219.872 288.861 222.973 298.376 225.701 308.014C230.493 325.281 234.269 354.574 233.98 351.026C235.691 354.358 238.327 357.05 241.531 358.734C245.769 360.965 250.452 362.076 255.181 361.972C262.643 362.592 270.133 361.214 276.963 357.964C283.233 354.316 288.455 348.933 292.074 342.387C286.676 344.93 280.836 346.244 274.93 346.246Z" fill="#D70A32"/>
<path d="M236.739 361.51C234.324 363.718 231.429 365.254 228.316 365.981C218.442 369.064 208.131 371.377 198.403 367.841C195.817 364.096 193.716 359.999 192.157 355.66C207.695 355.351 221.348 353.502 234.271 347.027C234.987 351.333 235.863 357.501 236.739 361.51Z" fill="white"/>
<path d="M314.429 309.553C301.356 317.018 289.414 326.529 279.006 337.767C268.545 349.064 261.21 363.198 257.802 378.622C272.76 378.622 288.736 375.385 299.483 364.439C306.29 357.311 311.157 348.362 313.569 338.539C316.173 328.671 314.429 319.574 314.429 309.553Z" fill="#14D29B"/>
<path d="M243.272 194.542C238.948 189.268 235.465 183.279 232.961 176.812C230.874 170.454 226.899 164.988 221.635 161.234C219.986 159.976 218.432 158.584 216.987 157.07C212.487 153.218 210.017 142.734 203.628 145.354C206.677 150.595 209.436 156.147 212.487 161.397C209.897 159.008 207.514 156.377 205.37 153.534C203.048 150.913 200.725 147.214 196.802 148.756C197.678 150.297 198.401 152.301 199.27 153.843C199.104 153.553 198.884 153.303 198.624 153.106C198.363 152.909 198.068 152.771 197.756 152.699C197.444 152.626 197.121 152.622 196.807 152.686C196.494 152.75 196.195 152.881 195.931 153.071C197.364 158.26 200.012 162.98 203.628 166.789C201.158 164.322 197.238 161.701 194.334 164.464C199.853 168.165 203.482 173.252 207.549 178.032C210.494 181.701 213.86 184.964 217.57 187.744C219.364 188.955 221.26 189.987 223.233 190.827C225.121 191.908 227.153 192.687 228.897 193.912C230.166 195.03 231.332 196.274 232.381 197.625C234.133 199.783 235.721 202.096 237.319 204.409C240.235 201.87 242.319 198.416 243.272 194.542Z" fill="#F7846C"/>
<path d="M205.661 169.411C205.405 169.02 205.112 168.658 204.785 168.332C204.204 167.716 204.204 167.563 203.624 166.937C202.177 165.282 200.311 164.105 198.25 163.548C199.283 164.336 200.254 165.212 201.154 166.168C202.545 167.929 204.279 169.349 206.237 170.33C206.092 170.176 206.092 170.023 205.948 169.865C205.945 169.826 205.929 169.791 205.902 169.765C205.876 169.739 205.841 169.725 205.805 169.725C205.791 169.606 205.74 169.496 205.661 169.411ZM203.773 161.088C202.021 158.621 199.126 153.687 199.126 153.841C198.757 153.332 198.25 152.956 197.674 152.762C198.361 154.602 199.136 156.403 199.997 158.158C200.6 159.55 201.382 160.847 202.321 162.011C203.435 163.211 204.769 164.156 206.241 164.787L207.117 165.252C206.097 164.015 204.936 162.629 203.773 161.088Z" fill="#DD4040"/>
<path d="M242.547 188.683C252.713 197.778 260.264 205.179 267.524 219.208C266.943 203.631 270.283 188.067 274.206 172.957C276.238 165.249 278.561 157.379 283.209 151.22C287.856 145.061 295.551 140.581 302.814 142.123C309.348 143.518 314.421 149.37 316.9 155.998C319.027 162.744 319.866 169.871 319.368 176.965C318.641 203.935 312.977 230.31 305.571 256.057C303.247 263.918 300.488 272.399 293.953 276.87C287.562 281.186 278.995 280.569 272.169 276.87C265.519 272.84 259.966 267.05 256.05 260.065C243.27 239.559 241.529 221.059 228.018 199.783C232.525 194.849 236.301 190.841 242.547 188.683Z" fill="#9778FF"/>
<path d="M234.124 208.418C236.884 202.405 242.547 198.55 248.21 196.095C248.77 195.819 249.358 195.613 249.962 195.479C247.639 193.154 245.168 191.008 242.556 188.695C236.312 190.852 232.534 194.861 228.321 200.103C230.355 203.342 232.098 206.579 233.695 209.662C233.833 209.187 233.98 208.88 234.124 208.418Z" fill="#FF465A"/>
<path d="M270.575 225.839C271.889 229.075 273.043 232.467 274.206 235.86C275.222 238.636 276.238 241.563 277.254 244.339C277.947 243.579 278.678 242.859 279.444 242.181C276.681 232.958 272.722 224.189 267.682 216.125V219.21C267.379 218.901 269.558 223.372 270.575 225.839Z" fill="black"/>
<path d="M137.118 153.218C138.08 150.125 139.195 147.088 140.458 144.12C141.107 144.568 141.636 145.187 141.992 145.917C142.349 146.647 142.52 147.462 142.49 148.284C142.21 150.728 141.771 153.149 141.176 155.529C142.928 153.218 144.516 150.904 146.115 148.591C146.856 149.146 147.402 149.949 147.665 150.871C147.928 151.793 147.893 152.781 147.567 153.68C147.894 153.982 148.145 154.366 148.298 154.796C148.451 155.227 148.501 155.691 148.443 156.147C148.424 157.074 148.173 157.978 147.716 158.767C146.971 160.455 145.992 162.013 144.812 163.392C146.564 162.159 148.007 161.234 149.75 160C149.968 160.983 149.919 162.012 149.609 162.967C149.299 163.922 148.74 164.764 147.998 165.396C146.835 166.63 145.808 168.016 144.658 169.404C145.534 172.334 146.11 174.647 146.982 178.039C145.966 178.809 144.947 178.193 143.931 177.421C142.967 176.634 142.175 175.636 141.608 174.494C140.151 172.685 139.33 170.397 139.284 168.018C139.284 167.553 139.431 167.088 139.284 166.784C139.14 166.168 138.559 165.705 138.408 165.089C138.393 164.359 138.296 163.634 138.119 162.929C137.828 162.464 137.392 162.159 137.243 161.534C137.094 160.909 137.388 160.139 137.243 159.376C137.062 158.784 136.818 158.215 136.516 157.682C136.275 156.163 136.486 154.603 137.118 153.218Z" fill="#DD4040"/>
</g>
<defs>
<clipPath id="clip0_583_586">
<rect width="438" height="465" fill="white"/>
</clipPath>
</defs>
</svg>
