<svg width="461" height="411" viewBox="0 0 461 411" fill="none" xmlns="http://www.w3.org/2000/svg">
<path d="M159.787 314.234C164.001 316.901 171.294 311.847 175.656 308.616C178.323 306.651 190.82 294.434 188.293 290.361C187.166 288.663 186.091 286.93 185.071 285.166C190.825 282.078 192.373 272.529 189.984 266.49C187.596 260.451 182.544 255.958 177.628 251.744C168.36 243.883 159.232 236.018 149.964 228.154C143.644 222.677 137.046 217.202 129.042 214.672C121.037 212.286 111.207 213.69 106.292 220.426C101.518 226.886 102.501 235.733 105.028 243.316C111.067 261.429 124.266 276.596 128.901 294.991C130.305 300.188 131.147 306.084 135.221 309.456C141.96 315.21 149.824 315.493 157.267 310.298C157.654 311.851 158.539 313.233 159.787 314.234Z" fill="#FDB849"/>
<path d="M169.476 312.83C175.675 309.595 181.128 305.098 185.485 299.629C187.149 297.751 188.309 295.48 188.855 293.031C188.951 292.772 188.977 292.492 188.927 292.22C188.878 291.948 188.756 291.694 188.574 291.486C188.012 290.925 187.029 291.206 186.187 291.486C180.802 294.014 175.793 297.275 171.301 301.176C167.511 304.398 160.629 309.742 161.472 315.357C164.285 315.075 167.01 314.215 169.476 312.83Z" fill="black"/>
<path d="M61.6316 201.754C54.046 211.8 44.7248 220.408 34.1083 227.172C28.0692 231.103 21.4686 234.334 16.555 239.809C9.3928 247.673 7.00617 258.911 8.26968 269.438C9.3928 279.97 13.8876 289.799 18.8012 299.208C30.2112 320.592 45.0623 339.953 62.7593 356.514C98.1467 355.389 130.022 359.182 165.269 355.95C161.839 343.048 160.839 329.62 162.319 316.351C163.865 303.293 172.148 284.897 168.638 272.119C165.55 261.164 157.545 252.598 150.243 243.894C140.334 232.151 131.41 219.61 123.562 206.401C120.529 211.539 116.405 215.949 111.481 219.319C107.031 222.647 101.589 224.378 96.0339 224.233C91.8832 223.63 87.9095 222.146 84.3793 219.881C75.9606 214.97 68.2983 208.864 61.6316 201.754Z" fill="#FFD340"/>
<path d="M13.6067 397.223C58.5406 385.989 105.161 400.311 150.94 406.912C227.026 417.661 304.603 407.113 375.057 376.44C410.304 360.993 444.562 336.839 460.294 301.735C388.116 303.139 313.41 282.632 244.322 303.841C166.532 327.711 88.7842 351.583 11.0774 375.455C11.2864 382.771 12.1327 390.054 13.6067 397.223Z" fill="#008C6E"/>
<path d="M218.343 308.476C213.851 307.212 209.356 305.387 204.723 305.668C202.403 306.065 200.036 306.113 197.701 305.808C195.083 304.968 192.781 303.352 191.101 301.175L184.783 294.856C180.598 297.113 176.687 299.846 173.129 303C169.579 306.072 166.709 309.85 164.703 314.094C169.336 319.157 177.761 327.292 179.446 328.558C183.52 331.78 188.574 330.103 193.349 329.962L247.27 328.699C247.131 323.561 247.843 318.437 249.379 313.532C238.897 312.831 228.505 311.138 218.343 308.476Z" fill="#DD4040"/>
<path d="M224.803 365.207L308.917 338.528L262.016 333.051L180.429 354.816L224.803 365.207Z" fill="#643CFF"/>
<path d="M224.803 360.714L308.918 334.033L262.016 328.558L180.429 350.323L224.803 360.714ZM195.315 356.643C200.415 357.299 205.218 359.409 209.152 362.72C213.086 366.031 215.984 370.404 217.501 375.317C211.605 382.058 201.775 383.181 192.788 383.322C182.961 383.862 173.106 383.202 163.439 381.356C161.082 380.998 158.831 380.135 156.839 378.825C155.857 378.183 155.049 377.309 154.487 376.28C153.925 375.251 153.626 374.099 153.617 372.926C153.936 370.598 155.144 368.485 156.988 367.03C167.23 357.064 180.85 355.106 195.315 356.643Z" fill="#9778FF"/>
<path d="M73.4173 320.554C76.3655 310.303 71.3115 298.92 67.5187 289.518C64.2429 280.834 60.004 272.545 54.8813 264.805C52.3879 264.405 49.906 263.937 47.4383 263.401C46.11 270.634 44.2805 277.766 41.9631 284.745C39.8877 292.909 38.4321 301.218 37.6087 309.601C36.9183 315.076 36.3452 320.418 35.9241 325.889C43.0623 335.573 50.9507 344.682 59.5164 353.131C59.8872 349.942 60.545 346.793 61.4819 343.723C62.8919 339.336 64.9249 335.175 67.5187 331.366C69.9963 328.065 71.9831 324.424 73.4173 320.554Z" fill="black"/>
<path d="M135.074 370.263C140.689 377.004 150.519 379.11 159.085 377.145C161.02 376.589 162.991 376.167 164.984 375.881C169.195 375.6 173.269 377.566 177.34 378.97C181.412 380.374 188.012 381.918 190.82 378.268C194.472 379.11 196.859 378.689 199.105 375.736C200.531 375.956 201.99 375.721 203.276 375.066C204.561 374.41 205.608 373.367 206.267 372.084C198.403 366.187 189.276 360.289 179.587 358.735C181.552 356.065 186.749 356.629 189.978 357.472C192.928 358.174 196.999 360.003 200.088 359.858C201.423 359.782 202.721 359.385 203.87 358.7C205.019 358.015 205.986 357.063 206.689 355.925C202.337 353.96 198.123 351.994 193.77 350.171C189.323 348.009 184.664 346.312 179.867 345.108C164.563 342.02 149.258 349.603 135.355 356.905C133.527 360.574 132.404 367.034 135.074 370.263Z" fill="#F7846C"/>
<path d="M170.459 368.157C174.392 369.842 176.779 370.404 180.148 372.229C183.66 374.194 190.82 378.268 190.82 378.268C191.686 378.534 192.584 378.676 193.49 378.689C187.591 372.65 170.74 367.877 170.459 368.157ZM176.358 363.803C180.603 364.814 184.742 366.225 188.721 368.017C192.502 370.079 195.995 372.629 199.112 375.6C199.884 375.882 200.73 375.882 201.501 375.6C198.301 372.626 194.766 370.034 190.967 367.877C186.394 365.62 181.439 364.238 176.358 363.803Z" fill="#DD4040"/>
<path d="M17.678 245.006C24.8402 241.915 33.5582 245.427 38.6007 251.464C43.5166 257.503 45.0609 265.648 46.7456 273.231C53.4866 303.422 51.5212 322.098 56.2944 347.937C71.3248 349.063 86.2802 351.032 101.09 353.833C117.942 357.205 133.668 356.365 153.334 352.148C151.93 358.749 145.753 367.596 142.24 373.492C115.7 370.123 89.3067 374.756 62.6212 377.145C54.3359 377.847 37.7653 379.25 34.2555 374.756C32.5709 372.65 31.4477 364.365 30.8839 361.697C30.3223 358.749 29.1992 355.799 28.3523 352.85C25.9656 344.565 23.579 336.42 21.3305 328.137C15.9957 308.756 10.799 289.097 9.95662 269.017C9.25237 259.468 9.11198 248.656 17.678 245.006Z" fill="#F7846C"/>
<path d="M41.1301 375.6C42.3936 369.847 39.7239 363.522 32.7044 367.455C32.3932 367.592 32.1082 367.782 31.8621 368.017C32.1503 370.391 32.9142 372.683 34.1083 374.756C35.9221 376.4 38.2617 377.347 40.7089 377.425C40.8493 376.723 40.9897 376.162 41.1301 375.6Z" fill="#DD4040"/>
<path d="M21.8921 346.531C27.1024 347.2 32.3926 346.866 37.4777 345.548C40.6997 344.986 53.0655 341.196 57.9791 335.999C58.8215 333.753 56.4349 330.805 56.2945 328.699C62.7547 328.558 68.5107 320.694 69.0745 314.234C69.6384 307.774 67.1068 301.456 64.5798 295.558C59.8065 284.324 55.1714 273.233 50.3981 261.998C47.176 254.274 43.7975 246.41 37.7584 240.651C31.7194 234.893 22.3133 231.805 14.8703 235.588C7.84852 239.238 4.61956 247.664 3.49644 255.528C0.826739 274.345 5.74268 293.864 1.80947 312.54C0.68635 317.735 -1.13872 323.357 0.967129 328.42C4.47917 336.706 11.3583 340.356 20.3455 339.092C20.0647 341.067 20.6263 346.39 21.8921 346.531Z" fill="#FFD340"/>
<path d="M148.273 87.0282C138.864 84.4966 128.48 89.836 123.277 98.9636C121.177 102.739 119.841 106.891 119.346 111.182C118.924 114.492 118.924 117.842 119.346 121.152C120.034 125.505 121.794 129.618 124.465 133.123C127.136 136.628 130.636 139.414 134.65 141.232C138.569 142.696 142.827 142.997 146.913 142.099C150.999 141.201 154.738 139.142 157.681 136.169C170.88 123.118 166.528 91.9418 148.273 87.0282Z" fill="#643CFF"/>
<path d="M140.549 154.291C138.162 164.542 140.97 175.354 144.482 185.324C147.994 195.294 152.344 205.264 153.186 215.798C154.029 226.332 150.517 237.984 141.541 243.602C144.318 240.611 146.116 236.842 146.691 232.801C147.267 228.76 146.594 224.64 144.763 220.992C145.544 226.756 144.966 232.623 143.076 238.124C141.903 241.246 140.006 244.046 137.541 246.291C135.075 248.537 132.112 250.166 128.894 251.043C130.325 249.481 131.414 247.637 132.091 245.63C132.768 243.623 133.018 241.497 132.825 239.388C132.761 237.214 132.24 235.078 131.297 233.119C130.354 231.159 129.009 229.42 127.35 228.014C128.861 231.5 129.422 235.324 128.978 239.097C128.533 242.87 127.098 246.459 124.818 249.498C128.19 242.055 125.099 233.349 121.309 226.189C117.518 218.886 112.181 212.567 108.39 205.264C101.933 192.853 100.379 178.467 104.036 164.963C106.648 165.525 109.363 165.38 111.9 164.542C121.592 161.322 131.842 159.481 140.549 154.291Z" fill="#C54016"/>
<path d="M70.8995 213.549C76.3861 188.196 75.6636 161.892 68.7937 136.878C70.7592 140.811 75.392 141.794 79.4656 143.619C88.413 147.436 97.6672 150.49 107.129 152.747C107.266 174.122 109.523 195.43 113.868 216.359C107.633 220.755 100.145 223.019 92.5196 222.817C84.5196 222.541 77.2171 218.325 70.8995 213.549Z" fill="black"/>
<path d="M94.4896 185.745C89.7236 183.726 85.3844 180.82 81.7026 177.182C78.9713 174.917 76.4346 172.427 74.1193 169.739C75.0101 184.421 73.9264 199.156 70.8972 213.549C77.0744 218.325 84.5173 222.677 92.3815 222.817C100.008 223.039 107.5 220.772 113.725 216.359C111.505 205.168 109.815 193.879 108.662 182.528C106.799 184.276 104.504 185.496 102.013 186.062C99.5216 186.627 96.9246 186.518 94.4896 185.745ZM153.327 139.829C152.635 145.685 150.73 151.332 147.732 156.41C144.734 161.487 140.71 165.884 135.916 169.317C125.385 176.477 110.779 176.898 98.7036 174.652C87.6978 172.726 77.9027 166.52 71.4611 157.391C68.456 152.341 66.1416 146.91 64.5797 141.244C61.7029 130.856 59.4519 120.305 57.8387 109.647C56.0136 99.1156 52.9251 87.1802 56.5752 76.506C60.6488 64.4302 73.9881 57.1276 85.0812 52.4925C98.2824 47.0173 115.976 43.6456 128.473 52.6328C129.88 53.639 131.195 54.7672 132.404 56.0045C144.342 68.7823 150.8 89.5645 152.625 106.407C153.75 117.5 154.873 129.154 153.327 139.829Z" fill="#F7846C"/>
<path d="M56.2944 130.982C59.2714 134.111 61.4406 137.918 62.6143 142.075C60.8256 140.303 58.596 139.042 56.1563 138.422C53.7697 137.861 51.6639 138.563 48.7134 137.58C51.3831 137.299 53.2081 137.018 54.1909 135.895C55.1736 134.913 53.6293 130.42 49.1276 126.206C51.7231 127.464 54.1343 129.071 56.2944 130.982ZM123.698 130.42C127.541 129.237 131.296 127.782 134.933 126.066C132.853 125.389 130.926 124.309 129.263 122.887C127.601 121.466 126.234 119.73 125.242 117.78C123.15 113.188 121.55 108.388 120.469 103.458C120.469 113.99 119.907 120.586 123.698 130.42Z" fill="#DD4040"/>
<path d="M149.957 91.5207C148.64 90.5034 147.091 89.8296 145.448 89.5601C143.806 89.2905 142.122 89.4335 140.549 89.9764C137.577 90.9882 134.523 91.7405 131.421 92.2249C129.579 92.242 127.767 91.7534 126.184 90.8124C124.6 89.8713 123.305 88.5139 122.439 86.8878C126.751 84.7514 131.268 83.0551 135.921 81.8246C137.363 81.2882 138.941 81.2389 140.413 81.6842C142.064 82.3367 143.549 83.3467 144.763 84.6416C147.15 86.607 147.851 88.8533 149.957 91.5207ZM76.9363 106.407C79.4758 103.249 83.0628 101.107 87.0466 100.368C90.8995 99.7614 94.702 98.8698 98.4228 97.7001C100.388 96.9441 102.148 95.7369 103.561 94.1758C104.975 92.6148 106.001 90.7435 106.558 88.7129C100.711 89.1536 94.896 89.9506 89.1456 91.0995C87.2518 91.4673 85.4424 92.182 83.8085 93.2077C82.2583 94.4933 80.9712 96.0664 80.0179 97.8405C78.2021 100.793 78.3425 103.037 76.9363 106.407Z" fill="black"/>
<path d="M112.885 192.205C110.639 201.333 107.41 209.618 104.6 218.465C92.1178 210.169 81.2658 199.65 72.5843 187.432C68.2733 194.648 64.7876 202.325 62.1931 210.32C67.3875 215.517 71.7419 221.694 76.9363 226.75C85.6428 235.457 94.4896 244.444 99.9671 255.678C102.073 245.567 104.74 236.019 106.849 225.908C111.912 234.474 116.678 242.336 121.732 250.764C115.553 231.805 120.469 210.741 112.885 192.205Z" fill="white"/>
<path d="M110.639 112.446C108.913 109.43 106.385 106.951 103.337 105.283C101.134 104.413 98.7422 104.136 96.3995 104.481C94.0568 104.826 91.8458 105.781 89.9881 107.249C86.4399 109.884 83.9895 113.736 83.1067 118.066C89.9824 118.113 96.8184 117.021 103.337 114.832C105.723 114.142 108.253 113.148 110.639 112.446ZM151.783 104.16C150.125 101.163 147.573 98.757 144.482 97.2789C142.28 96.4088 139.888 96.1324 137.545 96.4773C135.203 96.8223 132.992 97.7765 131.134 99.2444C127.61 101.799 125.121 105.534 124.119 109.769C131.034 109.924 137.924 108.879 144.482 106.68C146.869 106.126 149.396 104.862 151.783 104.16Z" fill="#DD4040"/>
<path d="M82.9753 118.054C84.0893 115.522 85.7949 113.295 87.9487 111.559C90.1026 109.824 92.6416 108.631 95.3525 108.08C98.0633 107.53 100.867 107.639 103.527 108.397C106.187 109.156 108.626 110.542 110.639 112.439C110.639 112.439 107.691 116.65 98.5632 118.756C93.4107 120.055 87.9902 119.811 82.9753 118.054ZM124.259 109.769C125.373 107.237 127.079 105.01 129.232 103.274C131.386 101.538 133.925 100.345 136.636 99.795C139.347 99.2447 142.15 99.3533 144.811 100.112C147.471 100.87 149.91 102.256 151.923 104.153C151.923 104.153 148.975 108.365 139.847 110.471C134.696 111.784 129.271 111.54 124.259 109.769Z" fill="white"/>
<path d="M99.1248 107.81C98.4618 110.362 97.3724 112.784 95.9027 114.973C94.9089 116.526 93.8334 118.026 92.6807 119.465C94.6646 119.427 96.6402 119.196 98.5793 118.775C107.707 116.669 110.655 112.457 110.655 112.457C107.508 109.552 103.407 107.899 99.1248 107.81ZM139.145 99.5252C137.447 103.675 135.229 107.591 132.544 111.182C134.996 111.2 137.444 110.964 139.847 110.478C148.975 108.372 151.923 104.16 151.923 104.16C148.399 101.062 143.836 99.4071 139.145 99.5252Z" fill="black"/>
<path d="M135.495 53.8871C133.131 50.9835 130.28 48.5133 127.069 46.5868C118.363 41.3901 107.41 41.9516 97.5805 43.9171C78.2021 47.8503 47.5879 58.6626 39.1623 77.0583C28.2096 100.648 47.7283 128.312 42.1173 153.037C41.8366 154.441 41.4269 155.704 41.1346 157.108C36.4994 173.398 26.6699 185.754 18.8104 199.658C15.3006 206.118 11.929 213.418 11.929 221.291C11.929 228.173 15.3006 235.475 20.2142 237.3C21.6204 242.074 24.4282 246.428 28.2188 247.27C27.3093 244.1 27.2456 240.747 28.0342 237.544C28.8227 234.341 30.436 231.401 32.7135 229.015C31.7245 233.674 32.0695 238.517 33.7089 242.988C35.3483 247.459 38.2156 251.377 41.9815 254.292C45.3258 256.476 49.2124 257.686 53.2054 257.785C57.1985 257.884 61.1403 256.869 64.5889 254.854C66.9755 258.076 70.3426 259.917 73.4357 258.504C70.7683 257.24 69.7856 253.029 69.6452 249.236C69.549 245.442 70.0222 241.656 71.0491 238.002C70.2068 241.091 71.3299 244.041 72.0318 247.13C72.4168 250.215 73.7399 253.107 75.8224 255.415C78.354 257.521 81.576 256.96 84.5288 256.258C79.194 249.938 77.9282 239.687 78.4921 230.138C78.9132 220.73 81.2999 211.602 82.8441 202.334C86.2135 180.99 77.507 169.616 69.3644 150.091C66.416 142.735 63.8382 135.236 61.6407 127.622C62.0619 128.043 79.0536 105.297 73.2954 75.8063C83.5608 79.9782 94.9217 80.6202 105.592 77.6313C106.679 78.0431 107.811 78.3258 108.964 78.4737C113.859 79.6813 119.03 78.9785 123.426 76.5082C124.387 76.8987 125.373 77.2269 126.376 77.4909C133.115 78.8948 140.137 76.087 146.036 72.4277C143.615 65.6871 140.049 59.4148 135.495 53.8871ZM16.9692 221.975C17.0529 220.411 17.4575 218.88 18.1579 217.479C18.8583 216.078 19.8395 214.836 21.0405 213.83C19.1059 220.485 18.6271 227.478 19.6366 234.334C19.6271 234.41 19.6348 234.487 19.6591 234.56C19.6834 234.633 19.7237 234.7 19.777 234.755C17.3033 230.984 16.3062 226.434 16.9761 221.975H16.9692ZM64.4416 254.555C62.6302 253.959 61.011 252.889 59.7517 251.457C58.4925 250.025 57.6389 248.282 57.2794 246.41C56.9132 244.382 57.0275 242.297 57.613 240.322C58.1986 238.347 59.2391 236.536 60.6511 235.036C60.7915 240.651 60.7915 246.831 62.8973 251.744C63.327 252.725 63.8438 253.666 64.4416 254.555ZM95.0511 75.3736C92.9919 74.6438 91.1255 73.4556 89.5929 71.8986C88.0603 70.3417 86.9016 68.4568 86.2043 66.3864C88.0317 69.6084 91.1202 71.0192 94.3492 72.7039C97.2997 74.2505 100.388 75.7948 103.477 77.0583C100.599 76.9318 97.7568 76.3636 95.0511 75.3736ZM112.183 72.0019C109.377 68.8303 107.655 64.8457 107.27 60.6281C109.526 64.308 112.161 67.742 115.131 70.8742C117.379 73.2212 120.047 75.1267 122.996 76.4921C120.971 76.6126 118.945 76.2709 117.072 75.493C115.199 74.7151 113.527 73.5213 112.183 72.0019Z" fill="#C54016"/>
<path d="M276.338 62.8743C274.373 56.1356 267.774 47.2888 262.578 42.6536C247.832 29.8759 225.365 26.2257 206.689 30.999C187.31 36.0622 168.634 52.6328 170.178 74.1101C171.021 85.9051 182.818 97.7002 193.49 103.88C190.68 113.288 188.721 115.113 178.744 120.586C182.677 122.692 201.635 122.551 210.198 111.035C227.471 117.495 248.403 115.67 258.787 109.35C277.464 97.981 281.394 80.8488 276.338 62.8743ZM205.982 73.5485C205.584 74.8648 204.899 76.0764 203.976 77.096C203.053 78.1156 201.915 78.9178 200.645 79.4449C199.35 79.9239 197.951 80.0463 196.592 79.7993C195.234 79.5523 193.967 78.9451 192.924 78.041C191.908 77.0958 191.213 75.8568 190.935 74.4971C190.658 73.1375 190.812 71.7252 191.377 70.4577C192.504 68.4912 194.301 66.9962 196.44 66.246C201.494 64.2805 207.952 66.9479 205.982 73.5485ZM233.646 73.5485C233.247 74.8651 232.562 76.0768 231.638 77.0964C230.715 78.116 229.577 78.9181 228.306 79.4449C227.012 79.9239 225.612 80.0463 224.254 79.7993C222.895 79.5523 221.628 78.9451 220.585 78.041C219.569 77.0958 218.874 75.8568 218.597 74.4971C218.319 73.1375 218.474 71.7252 219.038 70.4577C220.166 68.4912 221.963 66.9962 224.102 66.246C229.298 64.2805 235.756 66.9479 233.65 73.5485H233.646ZM259.484 73.5485C259.086 74.8647 258.4 76.0761 257.478 77.0957C256.555 78.1152 255.417 78.9176 254.147 79.4449C252.852 79.9238 251.452 80.0462 250.093 79.7992C248.735 79.5523 247.467 78.9451 246.424 78.041C245.41 77.0941 244.717 75.8551 244.44 74.496C244.163 73.137 244.317 71.7255 244.879 70.4577C246.005 68.4898 247.803 66.9942 249.943 66.246C255.003 64.2805 261.448 66.9479 259.489 73.5485H259.484Z" fill="#FDB849"/>
<path d="M63.8778 103.739C54.4694 101.208 44.0852 106.547 38.8815 115.675C36.7818 119.449 35.4461 123.6 34.9506 127.891C34.5295 131.201 34.5295 134.551 34.9506 137.861C35.6393 142.214 37.3985 146.328 40.0703 149.832C42.7421 153.337 46.2427 156.124 50.2577 157.941C54.176 159.406 58.4339 159.707 62.5193 158.809C66.6048 157.91 70.3437 155.851 73.2862 152.878C86.4852 139.829 82.1331 108.653 63.8778 103.739Z" fill="#9778FF"/>
<path d="M92.805 154.291C91.8791 155.212 91.2815 156.412 91.1039 157.706C90.9264 159 91.1787 160.317 91.8222 161.453C92.5107 162.574 93.5256 163.457 94.7306 163.984C95.9356 164.511 97.273 164.657 98.5633 164.401C99.6881 164.199 100.733 163.684 101.578 162.914C102.422 162.144 103.032 161.151 103.337 160.049C104.74 154.431 96.8763 150.505 92.805 154.291Z" fill="black"/>
<path d="M96.8762 157.801C96.5954 158.505 96.0339 158.786 95.8935 159.488C85.6554 159.196 75.6886 156.13 67.0572 150.616C58.4259 145.102 51.454 137.348 46.886 128.181C48.1112 127.588 49.1005 126.598 49.6938 125.373C58.6879 142.777 77.2171 156.116 96.8762 157.801Z" fill="black"/>
<path d="M55.3116 114.832C52.7889 114.243 50.1462 114.438 47.7372 115.391C45.3283 116.344 43.2679 118.011 41.8319 120.167C40.679 121.902 39.9122 123.864 39.5834 125.921C39.2564 127.492 39.2089 129.109 39.443 130.696C39.8025 132.871 40.7145 134.917 42.0915 136.638C43.4685 138.359 45.2644 139.698 47.3071 140.526C49.3736 141.273 51.5985 141.472 53.7647 141.102C55.9308 140.733 57.9641 139.808 59.666 138.418C66.8259 132.386 65.0008 117.364 55.3116 114.832Z" fill="black"/>
<path d="M56.7157 128.452C53.2008 117.243 51.6803 105.504 52.2232 93.7693C52.8291 81.9782 57.3222 70.7196 65.001 61.7512C72.7247 53.1852 82.1331 48.4027 94.209 44.7595C84.4888 43.8332 74.7215 45.9592 66.2657 50.8417C57.8099 55.7242 51.0859 63.1205 47.0288 72.002C45.1484 76.4559 43.828 81.126 43.0979 85.9052C40.4332 101.106 41.5396 116.729 46.32 131.403C49.9529 131.154 53.4938 130.149 56.7157 128.452Z" fill="black"/>
<path d="M132.685 145.163C132.404 148.112 131.994 151.483 129.737 153.449C128.627 154.282 127.343 154.854 125.981 155.122C124.62 155.389 123.215 155.345 121.873 154.993C119.838 154.562 117.91 153.732 116.199 152.55C114.487 151.369 113.027 149.861 111.903 148.112C118.644 147.129 125.806 146.427 132.685 145.163Z" fill="white"/>
<path d="M108.252 149.097C111.685 152.68 115.726 155.627 120.188 157.801C122.059 158.585 124.059 159.014 126.087 159.067C127.086 159.1 128.08 158.917 129.001 158.528C129.922 158.14 130.748 157.557 131.421 156.818C132.204 155.768 132.776 154.576 133.106 153.308C133.689 151.016 133.922 148.649 133.796 146.287C133.106 146.287 131.691 145.444 131.55 146.146C130.006 160.185 121.861 151.483 112.312 147.971C110.931 147.41 109.516 148.664 108.252 149.097Z" fill="#DD4040"/>
<path d="M127.069 139.265C130.579 138.142 134.793 137.58 137.18 139.265C137.515 139.65 137.771 140.099 137.932 140.584C138.092 141.069 138.155 141.582 138.116 142.092C138.077 142.601 137.936 143.098 137.703 143.553C137.47 144.008 137.149 144.412 136.758 144.742C136.008 145.328 135.147 145.758 134.227 146.006C128.894 147.973 122.855 147.973 117.375 148.664C114.565 149.087 107.967 149.789 106.28 148.804C112.745 147.41 120.328 141.373 127.069 139.265Z" fill="#DD4040"/>
<path d="M390.505 1.22945C382.726 -0.361136 374.71 -0.408835 366.912 1.08906C358.019 2.73923 349.587 6.29228 342.195 11.5048C334.803 16.7173 328.625 23.4662 324.084 31.2889C315.378 47.0172 314.957 67.5187 324.225 82.9662C333.493 98.4136 353.152 108.943 370.846 105.573C373.098 115.076 372.108 125.059 368.035 133.935C372.809 130.754 376.905 126.66 380.086 121.888C383.268 117.115 385.472 111.76 386.571 106.13C409.321 101.919 429.542 74.3955 429.963 51.2243C430.525 28.3316 413.114 6.14309 390.505 1.22945ZM379.409 83.6589C378.701 85.5248 377.291 87.0395 375.48 87.8791C373.669 88.7186 371.602 88.8163 369.72 88.1514C368.494 87.7973 367.399 87.0883 366.575 86.1136C365.75 85.1389 365.233 83.9421 365.087 82.6739C364.969 81.3988 365.193 80.1152 365.736 78.9553C366.278 77.7955 367.121 76.8014 368.176 76.0755C369.266 75.1851 370.599 74.6432 372.002 74.5201C373.404 74.3969 374.811 74.6983 376.04 75.3851C377.437 76.1976 378.526 77.4503 379.136 78.9474C379.745 80.4444 379.842 82.1013 379.409 83.6589ZM395.418 41.542C394.479 46.629 391.612 51.1566 387.414 54.1794C385.589 55.4452 383.342 56.2875 381.66 57.6914C379.69 59.6379 378.492 62.2322 378.288 64.994C378.115 66.1456 377.611 67.2224 376.839 68.0943C376.067 68.9662 375.059 69.5959 373.936 69.9076C372.856 70.0558 371.756 69.9418 370.73 69.5753C369.703 69.2087 368.78 68.6004 368.038 67.8018C366.493 65.6959 366.915 62.4647 367.195 60.078C367.511 57.4844 368.586 55.0418 370.284 53.0562C372.816 50.2485 376.885 49.1253 379.271 46.0368C379.94 45.2354 380.44 44.3066 380.74 43.3065C381.04 42.3064 381.133 41.2559 381.015 40.2185C380.897 39.1812 380.57 38.1786 380.053 37.2715C379.536 36.3644 378.84 35.5717 378.008 34.9414C374.638 32.6951 370.413 34.099 367.476 36.2072C364.254 38.4534 359.881 43.5075 355.541 41.1208C354.43 40.4378 353.579 39.4046 353.12 38.184C352.662 36.9634 352.623 35.625 353.009 34.3798C354.154 30.2053 356.616 26.5118 360.029 23.8483C364.101 20.1277 369.394 18.0263 374.91 17.9404C383.055 18.2212 390.357 22.0117 393.727 29.5951C395.333 33.3549 395.916 37.4725 395.418 41.5305V41.542Z" fill="#14D29B"/>
<path d="M194.753 357.486L190.258 353.833C202.898 295.276 217.736 237.141 234.773 179.428C294.453 163.419 355.117 149.377 415.499 136.176L419.993 139.829L194.753 357.486ZM291.785 381.497C282.658 382.76 242.918 374.054 238.143 373.071C233.367 372.088 225.926 368.859 256.538 359.17C287.15 349.481 287.148 344.284 335.318 354.395L291.785 381.497Z" fill="black"/>
<path d="M372.249 296.821C385.516 243.767 401.451 191.417 419.993 139.969C359.465 153.168 298.948 167.209 239.268 183.218C222.276 240.792 207.531 299.067 194.753 357.637C253.162 339.511 315.237 318.165 372.249 296.821Z" fill="#643CFF"/>
<path d="M319.73 293.311C324.646 291.486 331.525 297.944 333.352 307.633C335.037 316.901 334.335 328.558 327.313 331.226C320.292 333.893 333.633 335.297 338.406 329.26C343.322 323.221 343.322 313.953 341.776 305.387C340.372 296.821 329.279 287.834 322.117 289.799C315.097 291.627 319.73 293.311 319.73 293.311Z" fill="black"/>
<path d="M353.854 337.122C352.45 328.277 350.905 319.431 349.219 310.584C345.997 293.171 342.197 275.758 337.985 258.485C322.958 263.233 307.473 266.386 291.785 267.894C292.909 300.754 294.032 333.472 295.157 366.332C295.297 369.842 294.593 379.531 291.785 381.356C295.719 382.058 350.201 360.714 352.731 357.345C357.223 351.446 354.977 343.863 353.854 337.122ZM333.352 326.45C331.853 328.601 329.752 330.262 327.313 331.226C325.367 331.73 323.323 331.724 321.38 331.207C319.436 330.691 317.659 329.682 316.22 328.277C313.39 325.423 311.44 321.815 310.602 317.884C309.34 313.541 309.196 308.949 310.181 304.535C310.711 302.339 311.682 300.274 313.033 298.463C314.385 296.653 316.09 295.136 318.045 294.004C320.016 292.91 322.265 292.42 324.512 292.595C326.759 292.77 328.905 293.601 330.683 294.987C338.827 301.597 339.249 318.586 333.352 326.45Z" fill="#9778FF"/>
<path d="M291.785 267.894L289.68 272.957C289.68 272.957 292.628 349.207 291.785 360.721C291.286 367.885 289.574 374.913 286.722 381.504C288.406 381.665 290.101 381.665 291.785 381.504C294.172 381.223 296.982 378.972 296.421 363.95C295.999 348.639 291.785 267.894 291.785 267.894ZM116.959 316.48L115.976 314.796C122.397 310.784 129.561 308.11 137.039 306.931L137.32 308.897C130.086 310.005 123.156 312.586 116.959 316.48Z" fill="black"/>
</svg>
